# Blender v2.78 (sub 0) OBJ File: 'cf_terrains.blend'
# www.blender.org
mtllib cf_depression_collision.mtl
o depression_collision_Plane.006
v -3.007826 0.400000 -1.055660
v -4.726600 0.200000 -0.736069
v -3.182683 0.400000 -1.946551
v -4.970221 0.200000 -1.730854
v -3.115789 0.400000 -3.652793
v -4.970221 0.200000 -3.923443
v -2.364466 0.400000 -4.720325
v -4.625091 0.200000 -5.080642
v -2.192691 0.400000 -7.200961
v -4.645393 0.200000 -8.268017
v -4.117547 0.200000 -9.283104
v -3.102460 0.200000 -9.567328
v -1.940473 0.400000 -7.862072
v -2.188881 0.200000 -9.526725
v -0.951851 0.400000 -8.340127
v -1.275303 0.200000 -9.810950
v -0.423449 0.400000 -7.932847
v -0.199310 0.200000 -9.953062
v 2.132116 0.400000 -6.930455
v 2.561728 0.200000 -8.937975
v 2.859013 0.400000 -7.238773
v 4.023454 0.200000 -8.836466
v 2.913438 0.400000 -6.371170
v 4.916729 0.200000 -6.603273
v 2.409621 0.400000 -4.574861
v 4.591902 0.200000 -4.451287
v 2.573864 0.400000 -2.075997
v 4.673110 0.200000 -2.238398
v 2.926610 0.400000 -0.540454
v 4.896428 0.200000 -0.350336
v 2.249791 0.400000 1.120232
v 4.388885 0.200000 1.233201
v 2.613604 0.400000 3.353885
v 4.835523 0.200000 3.385185
v 2.251198 0.400000 5.419767
v 4.368583 0.200000 5.354455
v 4.855824 0.200000 6.897388
v 3.042630 0.400000 6.886057
v 4.774618 0.200000 7.587647
v 2.892799 0.400000 7.398139
v 4.165565 0.200000 8.156096
v 2.601964 0.400000 7.870072
v 3.901643 0.200000 9.171184
v 1.615939 0.400000 8.019029
v 2.175994 0.200000 9.617822
v 1.749657 0.200000 9.922348
v 0.549294 0.400000 8.057217
v 0.592457 0.200000 9.820839
v -0.888689 0.400000 8.056663
v -1.234700 0.200000 9.922348
v -2.180657 0.400000 7.695538
v -2.635520 0.200000 9.292994
v -2.078784 0.400000 7.019108
v -4.158151 0.200000 9.089977
v -1.787827 0.400000 4.142096
v -4.787505 0.200000 4.217557
v -4.523583 0.200000 0.847467
v -2.125015 0.400000 0.788264
v -4.322582 0.400000 0.842506
v -4.529658 0.400000 -0.772691
v -4.770221 0.400000 -1.754989
v -4.770221 0.400000 -3.894253
v -4.424904 0.400000 -5.052076
v -4.445081 0.400000 -8.219724
v -3.980112 0.400000 -9.113894
v -3.079359 0.400000 -9.366105
v -2.162841 0.400000 -9.325371
v -1.232192 0.400000 -9.614907
v -0.222024 0.400000 -9.748325
v 2.519453 0.400000 -8.740429
v 3.884376 0.400000 -8.645642
v 4.710864 0.400000 -6.579422
v 4.391351 0.400000 -4.462643
v 4.473542 0.400000 -2.222957
v 4.692708 0.400000 -0.369998
v 4.182359 0.400000 1.222294
v 4.630662 0.400000 3.382299
v 4.161241 0.400000 5.362032
v 4.652177 0.400000 6.916667
v 4.584554 0.400000 7.491463
v 3.986623 0.400000 8.049531
v 3.737673 0.400000 9.007032
v 2.089949 0.400000 9.433502
v 1.693532 0.400000 9.716657
v 0.595667 0.400000 9.620353
v -1.197163 0.400000 9.719954
v -2.580169 0.400000 9.098603
v -3.979475 0.400000 8.912030
v -4.586497 0.400000 4.212500
v -3.492728 1.422328 0.822023
v -3.716561 1.422328 -0.923878
v -3.944499 1.422328 -1.854626
v -3.944499 1.422328 -3.773741
v -3.598414 1.422328 -4.934140
v -3.412698 1.422328 -8.415290
v -2.055339 1.422328 -8.494056
v -1.054198 1.422328 -8.805523
v -0.315807 1.422328 -8.903047
v 2.344916 1.422328 -7.924839
v 3.310181 1.422328 -7.857806
v 3.860924 1.422328 -6.480947
v 3.563352 1.422328 -4.509530
v 3.649603 1.422328 -2.159217
v 3.851629 1.422328 -0.451175
v 3.329694 1.422328 1.177263
v 3.784870 1.422328 3.370385
v 3.305206 1.422328 5.393319
v 3.799856 1.422328 7.094354
v 3.247838 1.422328 7.609571
v 3.060704 1.422328 8.329317
v 1.734702 1.422328 8.672518
v 0.608911 1.422328 8.792622
v -1.042191 1.422328 8.884350
v -2.351646 1.422328 8.296043
v -3.241788 1.422328 8.177359
v -3.756612 1.422328 4.191623
vt 0.6165 0.4769
vt 0.6361 0.4804
vt 0.6357 0.4861
vt 0.6163 0.4826
vt 0.6481 0.4831
vt 0.6479 0.4886
vt 0.6730 0.4817
vt 0.6734 0.4873
vt 0.6871 0.4760
vt 0.6878 0.4817
vt 0.7236 0.4650
vt 0.7248 0.4700
vt 0.7330 0.4547
vt 0.7355 0.4584
vt 0.7378 0.4388
vt 0.7409 0.4406
vt 0.7397 0.4208
vt 0.7431 0.4221
vt 0.7424 0.4016
vt 0.7457 0.4024
vt 0.7431 0.3818
vt 0.7463 0.3811
vt 0.7328 0.3269
vt 0.7359 0.3251
vt 0.7276 0.3028
vt 0.7300 0.2992
vt 0.7070 0.2832
vt 0.7080 0.2782
vt 0.6827 0.2788
vt 0.6830 0.2732
vt 0.6560 0.2736
vt 0.6563 0.2680
vt 0.6339 0.2693
vt 0.6339 0.2637
vt 0.6133 0.2741
vt 0.6131 0.2680
vt 0.5860 0.2708
vt 0.5858 0.2652
vt 0.5609 0.2796
vt 0.5605 0.2735
vt 0.5407 0.2808
vt 0.5400 0.2753
vt 0.5343 0.2845
vt 0.5325 0.2796
vt 0.5271 0.2962
vt 0.5248 0.2914
vt 0.5175 0.3073
vt 0.5148 0.3041
vt 0.5114 0.3401
vt 0.5081 0.3383
vt 0.5093 0.3489
vt 0.5061 0.3481
vt 0.5103 0.3708
vt 0.5069 0.3713
vt 0.5125 0.4060
vt 0.5093 0.4076
vt 0.5204 0.4329
vt 0.5175 0.4355
vt 0.5279 0.4558
vt 0.5260 0.4602
vt 0.5772 0.4750
vt 0.5768 0.4802
vt 0.6175 0.4501
vt 0.6381 0.4544
vt 0.6490 0.4575
vt 0.6708 0.4565
vt 0.6842 0.4502
vt 0.7221 0.4389
vt 0.7249 0.4157
vt 0.7278 0.3976
vt 0.7284 0.3840
vt 0.7185 0.3348
vt 0.7163 0.3179
vt 0.7029 0.3060
vt 0.6813 0.3050
vt 0.6541 0.3000
vt 0.6341 0.2955
vt 0.6140 0.3027
vt 0.5870 0.2976
vt 0.5628 0.3078
vt 0.5424 0.3064
vt 0.5367 0.3164
vt 0.5297 0.3233
vt 0.5261 0.3479
vt 0.5255 0.3690
vt 0.5267 0.3992
vt 0.5336 0.4219
vt 0.5371 0.4364
vt 0.5787 0.4501
vt 0.6373 0.4133
vt 0.6847 0.4223
vt 0.7234 0.4221
vt 0.7322 0.4216
vt 0.7366 0.4377
vt 0.7368 0.4565
vt 0.7362 0.4705
vt 0.7346 0.4828
vt 0.7292 0.4866
vt 0.7229 0.4889
vt 0.7015 0.4804
vt 0.6710 0.4852
vt 0.6375 0.4794
vt 0.6122 0.4864
vt 0.5906 0.4797
vt 0.5551 0.4732
vt 0.5306 0.4758
vt 0.5206 0.4739
vt 0.5245 0.4649
vt 0.5142 0.4299
vt 0.5098 0.4227
vt 0.5161 0.4109
vt 0.5247 0.4078
vt 0.5589 0.4059
vt 0.5748 0.3969
vt 0.5984 0.3970
vt 0.6109 0.3999
vt 0.6399 0.4343
vt 0.6183 0.4186
vt 0.6500 0.4371
vt 0.6688 0.4354
vt 0.6810 0.4220
vt 0.7081 0.4167
vt 0.7192 0.3955
vt 0.7148 0.4117
vt 0.7153 0.3861
vt 0.7054 0.3401
vt 0.7081 0.3279
vt 0.7001 0.3261
vt 0.6807 0.3317
vt 0.6522 0.3259
vt 0.6347 0.3187
vt 0.6149 0.3302
vt 0.5880 0.3251
vt 0.5641 0.3341
vt 0.5466 0.3245
vt 0.5418 0.3280
vt 0.5376 0.3336
vt 0.5369 0.3502
vt 0.5371 0.3690
vt 0.5382 0.3941
vt 0.5425 0.4153
vt 0.5495 0.4139
vt 0.5802 0.4105
vn -0.7431 0.6689 0.0183
vn -0.7313 0.6683 0.1360
vn -0.9335 -0.3136 0.1736
vn -0.9665 -0.2557 0.0238
vn -0.7340 0.6733 0.0886
vn -0.9269 -0.3582 0.1118
vn -0.7301 0.6749 -0.1065
vn -0.9257 -0.3533 -0.1351
vn -0.7237 0.6811 -0.1110
vn -0.9702 -0.1987 -0.1384
vn -0.7016 0.6944 -0.1598
vn -0.9163 -0.3340 -0.2209
vn -0.4460 0.7067 -0.5492
vn -0.6011 -0.3016 -0.7401
vn -0.0852 0.6827 -0.7257
vn -0.1068 -0.3505 -0.9304
vn -0.1076 0.6775 -0.7275
vn -0.1264 -0.1672 -0.9778
vn -0.1592 0.6714 -0.7238
vn -0.1999 -0.3652 -0.9092
vn 0.0805 0.6835 -0.7255
vn 0.1039 -0.3342 -0.9367
vn 0.1553 0.6700 -0.7259
vn 0.2047 -0.2070 -0.9567
vn 0.3981 0.7369 -0.5463
vn 0.5668 -0.2716 -0.7777
vn 0.7226 0.6861 -0.0837
vn 0.9378 -0.3296 -0.1086
vn 0.7423 0.6687 0.0420
vn 0.9619 -0.2676 0.0544
vn 0.7417 0.6683 -0.0574
vn 0.9401 -0.3331 -0.0727
vn 0.7291 0.6807 0.0704
vn 0.9362 -0.3396 0.0903
vn 0.7353 0.6766 0.0388
vn 0.9968 -0.0603 0.0526
vn 0.7320 0.6812 0.0103
vn 0.9408 -0.3387 0.0132
vn 0.7329 0.6799 -0.0236
vn 0.9983 -0.0452 -0.0365
vn 0.7275 0.6825 -0.0700
vn 0.9362 -0.3401 -0.0886
vn 0.6394 0.6975 0.3236
vn 0.8474 -0.3128 0.4288
vn 0.6309 0.6787 0.3757
vn 0.8588 -0.0283 0.5114
vn 0.4826 0.7305 0.4831
vn 0.6789 -0.2774 0.6797
vn 0.3133 0.6718 0.6712
vn 0.4180 -0.1540 0.8953
vn 0.1859 0.7049 0.6845
vn 0.2500 -0.3124 0.9164
vn -0.0119 0.6684 0.7437
vn -0.0153 -0.2948 0.9554
vn -0.1332 0.6832 0.7179
vn -0.1718 -0.3348 0.9265
vn -0.2033 0.6701 0.7139
vn -0.2681 -0.2028 0.9418
vn -0.4603 0.7602 0.4584
vn -0.6856 -0.2523 0.6828
vn -0.7400 0.6724 0.0186
vn -0.9320 -0.3616 0.0234
vn -0.0697 0.9946 -0.0762
vn 0.0585 0.9983 -0.0028
vn -0.0407 0.9990 0.0167
vn -0.1026 0.9943 0.0294
vn -0.0259 0.9983 0.0525
vn -0.2024 0.9471 -0.2491
vn 0.0691 0.9881 0.1375
vn -0.1196 0.9924 0.0282
vn -0.0877 0.9878 -0.1288
vn 0.0388 0.9970 0.0662
vn 0.1202 0.9739 -0.1925
vn 0.1383 0.9890 -0.0533
vn 0.0226 0.9997 -0.0121
vn 0.0433 0.9989 0.0164
vn 0.1334 0.9910 0.0047
vn -0.0612 0.9978 -0.0252
vn 0.1669 0.9860 0.0039
vn -0.0806 0.9952 0.0544
vn 0.1983 0.9783 0.0589
vn -0.2132 0.9700 -0.1166
vn 0.1387 0.9869 0.0818
vn 0.0471 0.9973 -0.0561
vn -0.0093 0.9995 -0.0315
vn -0.0137 0.9942 0.1069
vn 0.1548 0.9874 0.0316
vn -0.1619 0.9451 0.2838
vn -0.2214 0.9750 0.0192
vn 0.3142 0.9458 -0.0816
vn 0.2726 0.9621 -0.0026
vn 0.2792 0.9573 -0.0742
vn 0.2848 0.8330 -0.4742
vn 0.0760 0.8795 -0.4699
vn -0.0232 0.8885 -0.4583
vn -0.0690 0.8699 -0.4884
vn -0.3604 0.8199 -0.4447
vn -0.5471 0.8157 -0.1879
vn -0.5422 0.8401 -0.0129
vn -0.3745 0.9259 0.0502
vn -0.3950 0.9186 -0.0039
vn -0.3778 0.9253 -0.0317
vn -0.4454 0.8944 -0.0409
vn -0.3657 0.9293 0.0503
vn -0.3741 0.9269 -0.0295
vn -0.4383 0.8988 0.0089
vn -0.2681 0.8437 0.4650
vn -0.0055 0.9149 0.4036
vn -0.1305 0.9030 0.4092
vn 0.0356 0.8030 0.5949
vn 0.2503 0.8896 0.3819
vn 0.3350 0.9407 0.0537
vn 0.3485 0.9330 0.0900
vn 0.4516 0.8853 0.1111
vn 0.4684 0.8823 -0.0466
vn 0.4407 0.8913 -0.1067
usemtl terrain
s 1
f 59/1/1 60/2/2 2/3/3 57/4/4
f 60/2/2 61/5/5 4/6/6 2/3/3
f 61/5/5 62/7/7 6/8/8 4/6/6
f 62/7/7 63/9/9 8/10/10 6/8/8
f 63/9/9 64/11/11 10/12/12 8/10/10
f 64/11/11 65/13/13 11/14/14 10/12/12
f 65/13/13 66/15/15 12/16/16 11/14/14
f 66/15/15 67/17/17 14/18/18 12/16/16
f 67/17/17 68/19/19 16/20/20 14/18/18
f 68/19/19 69/21/21 18/22/22 16/20/20
f 69/21/21 70/23/23 20/24/24 18/22/22
f 70/23/23 71/25/25 22/26/26 20/24/24
f 71/25/25 72/27/27 24/28/28 22/26/26
f 72/27/27 73/29/29 26/30/30 24/28/28
f 73/29/29 74/31/31 28/32/32 26/30/30
f 74/31/31 75/33/33 30/34/34 28/32/32
f 75/33/33 76/35/35 32/36/36 30/34/34
f 76/35/35 77/37/37 34/38/38 32/36/36
f 77/37/37 78/39/39 36/40/40 34/38/38
f 78/39/39 79/41/41 37/42/42 36/40/40
f 79/41/41 80/43/43 39/44/44 37/42/42
f 80/43/43 81/45/45 41/46/46 39/44/44
f 81/45/45 82/47/47 43/48/48 41/46/46
f 82/47/47 83/49/49 45/50/50 43/48/48
f 83/49/49 84/51/51 46/52/52 45/50/50
f 84/51/51 85/53/53 48/54/54 46/52/52
f 85/53/53 86/55/55 50/56/56 48/54/54
f 86/55/55 87/57/57 52/58/58 50/56/56
f 87/57/57 88/59/59 54/60/60 52/58/58
f 88/59/59 89/61/61 56/62/62 54/60/60
f 89/61/61 59/1/1 57/4/4 56/62/62
f 90/63/63 91/64/64 60/2/2 59/1/1
f 91/64/64 92/65/65 61/5/5 60/2/2
f 92/65/65 93/66/66 62/7/7 61/5/5
f 93/66/66 94/67/67 63/9/9 62/7/7
f 94/67/67 95/68/68 64/11/11 63/9/9
f 95/68/68 65/13/13 64/11/11
f 95/68/68 66/15/15 65/13/13
f 95/68/68 96/69/69 67/17/17 66/15/15
f 96/69/69 97/70/70 68/19/19 67/17/17
f 97/70/70 98/71/71 69/21/21 68/19/19
f 98/71/71 99/72/72 70/23/23 69/21/21
f 99/72/72 100/73/73 71/25/25 70/23/23
f 100/73/73 101/74/74 72/27/27 71/25/25
f 101/74/74 102/75/75 73/29/29 72/27/27
f 102/75/75 103/76/76 74/31/31 73/29/29
f 103/76/76 104/77/77 75/33/33 74/31/31
f 104/77/77 105/78/78 76/35/35 75/33/33
f 105/78/78 106/79/79 77/37/37 76/35/35
f 106/79/79 107/80/80 78/39/39 77/37/37
f 107/80/80 108/81/81 79/41/41 78/39/39
f 108/81/81 80/43/43 79/41/41
f 108/81/81 109/82/82 81/45/45 80/43/43
f 109/82/82 110/83/83 82/47/47 81/45/45
f 110/83/83 111/84/84 83/49/49 82/47/47
f 111/84/84 84/51/51 83/49/49
f 112/85/85 84/51/51 111/84/84
f 112/85/85 113/86/86 86/55/55 85/53/53
f 113/86/86 114/87/87 87/57/57 86/55/55
f 114/87/87 115/88/88 88/59/59 87/57/57
f 115/88/88 116/89/89 89/61/61 88/59/59
f 116/89/89 90/63/63 59/1/1 89/61/61
f 58/90/90 55/91/91 53/92/92 51/93/93 49/94/94 47/95/95 44/96/96 42/97/97 40/98/98 38/99/99 35/100/100 33/101/101 31/102/102 29/103/103 27/104/104 25/105/105 23/106/106 21/107/107 19/108/108 17/109/109 15/110/110 13/111/111 9/112/112 7/113/113 5/114/114 3/115/115 1/116/116
f 1/117/116 90/63/63 58/118/90
f 1/117/116 3/119/115 92/65/65 91/64/64
f 3/119/115 5/120/114 93/66/66 92/65/65
f 5/120/114 7/121/113 94/67/67 93/66/66
f 7/121/113 9/122/112 95/68/68 94/67/67
f 15/123/110 96/69/69 13/124/111
f 15/123/110 17/125/109 98/71/71 97/70/70
f 17/125/109 19/126/108 99/72/72 98/71/71
f 21/127/107 99/72/72 19/126/108
f 21/127/107 23/128/106 101/74/74 100/73/73
f 23/128/106 25/129/105 102/75/75 101/74/74
f 25/129/105 27/130/104 103/76/76 102/75/75
f 29/131/103 103/76/76 27/130/104
f 29/131/103 31/132/102 105/78/78 104/77/77
f 31/132/102 33/133/101 106/79/79 105/78/78
f 33/133/101 35/134/100 107/80/80 106/79/79
f 38/135/99 109/82/82 108/81/81
f 40/136/98 42/137/97 110/83/83 109/82/82
f 42/137/97 44/138/96 111/84/84 110/83/83
f 47/139/95 49/140/94 113/86/86 112/85/85
f 49/140/94 114/87/87 113/86/86
f 51/141/93 53/142/92 115/88/88 114/87/87
f 53/142/92 55/143/91 116/89/89 115/88/88
f 55/143/91 90/63/63 116/89/89
f 13/124/111 95/68/68 9/122/112
f 38/135/99 107/80/80 35/134/100
f 44/138/96 47/139/95 112/85/85 111/84/84
f 21/127/107 100/73/73 99/72/72
f 15/123/110 97/70/70 96/69/69
f 13/124/111 96/69/69 95/68/68
f 1/117/116 91/64/64 90/63/63
f 55/143/91 58/118/90 90/63/63
f 49/140/94 51/141/93 114/87/87
f 112/85/85 85/53/53 84/51/51
f 38/135/99 40/136/98 109/82/82
f 38/135/99 108/81/81 107/80/80
f 29/131/103 104/77/77 103/76/76
f 2/3/3 4/6/6 6/8/8 8/10/10 10/12/12 11/14/14 12/16/16 14/18/18 16/20/20 18/22/22 20/24/24 22/26/26 24/28/28 26/30/30 28/32/32 30/34/34 32/36/36 34/38/38 36/40/40 37/42/42 39/44/44 41/46/46 43/48/48 45/50/50 46/52/52 48/54/54 50/56/56 52/58/58 54/60/60 56/62/62 57/4/4
