# Blender v2.78 (sub 0) OBJ File: 'cf_terrains.blend'
# www.blender.org
mtllib cf_forest_col1.mtl
o field_Cube.001
v -5.532918 0.500000 10.205798
v -5.532918 0.500000 -10.205798
v 5.532918 0.500000 -10.205798
v 5.532918 0.500000 10.205798
v -5.532918 0.000000 -10.205798
v -5.532918 0.000000 10.205798
v 5.532918 0.000000 -10.205798
v 5.532918 0.000000 10.205798
vn 0.0000 1.0000 0.0000
vn -1.0000 0.0000 0.0000
vn 0.0000 0.0000 -1.0000
vn 1.0000 0.0000 0.0000
vn 0.0000 0.0000 1.0000
usemtl None
s off
f 3//1 2//1 1//1 4//1
f 5//2 6//2 1//2 2//2
f 7//3 5//3 2//3 3//3
f 8//4 7//4 3//4 4//4
f 6//5 8//5 4//5 1//5
