# Blender v2.78 (sub 0) OBJ File: 'cf_terrains.blend'
# www.blender.org
mtllib cf_col_bridge.mtl
o bridge_collision_Mesh.002
v -4.923446 0.964956 7.285988
v -4.923447 1.970107 2.310287
v -4.923448 1.970556 -2.098451
v -4.923448 0.974968 -6.943761
v 4.923447 0.964949 7.285986
v 4.923446 1.970101 2.310285
v 4.923445 1.970550 -2.098453
v 4.923445 0.974961 -6.943761
v -4.923446 0.200003 10.072053
v 4.923447 0.199996 10.072050
v -4.923448 0.200007 -10.072051
v 4.923445 0.200001 -10.072053
v 0.000000 0.199999 10.072052
v -0.000001 0.200004 -10.072051
v -0.000001 0.974965 -6.943759
v 0.000000 0.964952 7.285987
v -0.000000 1.970104 2.310286
v -0.000001 1.970553 -2.098452
v -4.184929 0.200002 10.072053
v -4.184931 0.200007 -10.072051
v -4.184931 0.974967 -6.943761
v -4.184929 0.964955 7.285988
v -4.184930 1.970106 2.310287
v -4.184931 1.970556 -2.098451
v 4.184930 0.199997 10.072050
v 4.184928 0.200001 -10.072053
v 4.184928 0.974962 -6.943761
v 4.184930 0.964950 7.285986
v 4.184929 1.970101 2.310285
v 4.184928 1.970550 -2.098453
v -4.923446 1.964941 7.291457
v -4.923446 2.970092 2.315755
v -4.923447 2.970541 -2.092981
v -4.923448 1.974953 -6.938293
v 4.923448 1.964934 7.291455
v 4.923447 2.970085 2.315754
v 4.923447 2.970535 -2.092983
v 4.923447 1.974946 -6.938293
v -4.923445 0.999988 10.077522
v 4.923446 0.999986 -10.066585
v 4.184931 0.999982 10.077519
v 4.923448 0.999981 10.077519
v 4.184929 0.999986 -10.066585
v -4.923448 0.999992 -10.066583
v 4.184930 1.974947 -6.938293
v 4.184931 1.964935 7.291455
v 4.184930 2.970086 2.315754
v 4.184930 2.970536 -2.092983
v -4.184928 0.999987 10.077522
v -4.184931 0.999992 -10.066583
v -4.184930 1.974952 -6.938293
v -4.184928 1.964940 7.291457
v -4.184929 2.970092 2.315755
v -4.184930 2.970541 -2.092981
vn -1.0000 0.0000 0.0000
vn 1.0000 -0.0000 -0.0000
vn 0.0000 0.9643 0.2648
vn 0.0000 0.9795 -0.2013
vn 0.0000 1.0000 0.0001
vn 0.0000 0.9802 0.1980
vn 0.0000 0.9707 -0.2405
vn -0.0000 0.0068 -1.0000
vn 0.0000 0.9547 -0.2975
vn 0.0000 0.9449 0.3273
vn -0.0000 -0.0068 1.0000
vn -0.0000 -1.0000 -0.0000
usemtl None
s off
f 29//1 28//1 46//1 47//1
f 2//1 1//1 31//1 32//1
f 22//2 23//2 53//2 52//2
f 8//2 12//2 40//2 38//2
f 11//1 4//1 34//1 44//1
f 22//3 19//3 13//3 16//3
f 24//4 18//4 15//4 21//4
f 24//5 23//5 17//5 18//5
f 22//6 16//6 17//6 23//6
f 27//7 26//7 14//7 15//7
f 30//1 29//1 47//1 48//1
f 1//1 9//1 39//1 31//1
f 12//8 26//8 43//8 40//8
f 27//1 30//1 48//1 45//1
f 15//7 14//7 20//7 21//7
f 7//2 8//2 38//2 37//2
f 16//3 13//3 25//3 28//3
f 18//4 30//4 27//4 15//4
f 18//5 17//5 29//5 30//5
f 16//6 28//6 29//6 17//6
f 6//2 5//2 10//2 12//2 8//2 7//2
f 2//1 3//1 4//1 11//1 9//1 1//1
f 51//9 50//9 44//9 34//9
f 46//6 35//6 36//6 47//6
f 48//5 47//5 36//5 37//5
f 48//4 37//4 38//4 45//4
f 46//10 41//10 42//10 35//10
f 31//6 52//6 53//6 32//6
f 33//5 32//5 53//5 54//5
f 33//4 54//4 51//4 34//4
f 31//10 39//10 49//10 52//10
f 38//9 40//9 43//9 45//9
f 23//2 24//2 54//2 53//2
f 3//1 2//1 32//1 33//1
f 10//2 5//2 35//2 42//2
f 9//11 19//11 49//11 39//11
f 24//2 21//2 51//2 54//2
f 4//1 3//1 33//1 34//1
f 20//8 11//8 44//8 50//8
f 25//11 10//11 42//11 41//11
f 19//2 22//2 52//2 49//2
f 5//2 6//2 36//2 35//2
f 26//1 27//1 45//1 43//1
f 21//2 20//2 50//2 51//2
f 6//2 7//2 37//2 36//2
f 28//1 25//1 41//1 46//1
f 10//12 25//12 13//12 19//12 9//12 11//12 20//12 14//12 26//12 12//12
