# Blender v2.78 (sub 0) OBJ File: 'cf_terrains.blend'
# www.blender.org
mtllib cf_col_field3.mtl
o field_col_Cube.000
v -4.851591 0.200000 9.876453
v -4.851591 0.400000 9.876453
v -4.851591 0.200000 -9.876453
v -4.851591 0.400000 -9.876453
v 4.851591 0.200000 9.876453
v 4.851591 0.400000 9.876453
v 4.851591 0.200000 -9.876453
v 4.851591 0.400000 -9.876453
vn -0.5773 0.5773 0.5773
vn -0.5773 -0.5773 -0.5773
vn -0.5773 -0.5773 0.5773
vn -0.5773 0.5773 -0.5773
vn 0.5773 -0.5773 -0.5773
vn 0.5773 0.5773 -0.5773
vn 0.5773 -0.5773 0.5773
vn 0.5773 0.5773 0.5773
usemtl None
s 1
f 2//1 3//2 1//3
f 4//4 7//5 3//2
f 8//6 5//7 7//5
f 6//8 1//3 5//7
f 7//5 1//3 3//2
f 4//4 6//8 8//6
f 2//1 4//4 3//2
f 4//4 8//6 7//5
f 8//6 6//8 5//7
f 6//8 2//1 1//3
f 7//5 5//7 1//3
f 4//4 2//1 6//8
