# Blender v2.78 (sub 0) OBJ File: 'cf_terrains.blend'
# www.blender.org
mtllib cf_area_collision.mtl
o terrain_collision_Plane.003
v -4.222082 0.400000 0.840025
v -4.670221 0.400000 -1.767054
v -4.670221 0.400000 -3.879659
v -3.911395 0.400000 -9.029288
v -1.210635 0.400000 -9.516886
v -0.233383 0.400000 -9.645957
v 3.814838 0.400000 -8.550231
v 4.607931 0.400000 -6.567496
v 4.590848 0.400000 -0.379829
v 4.550354 0.400000 6.926306
v 4.489523 0.400000 7.443371
v 1.665470 0.400000 9.613811
v -3.890136 0.400000 8.823057
v -4.529658 0.400000 -0.772691
v -4.726600 0.200000 -0.736069
v -4.770221 0.400000 -1.754989
v -4.970221 0.200000 -1.730854
v -4.770221 0.400000 -3.894253
v -4.970221 0.200000 -3.923443
v -4.424904 0.400000 -5.052076
v -4.625091 0.200000 -5.080642
v -4.445081 0.400000 -8.219724
v -4.645393 0.200000 -8.268017
v -3.980112 0.400000 -9.113894
v -4.117547 0.200000 -9.283104
v -3.079359 0.400000 -9.366105
v -3.102460 0.200000 -9.567328
v -2.162841 0.400000 -9.325371
v -2.188881 0.200000 -9.526725
v -1.232192 0.400000 -9.614907
v -1.275303 0.200000 -9.810950
v -0.222024 0.400000 -9.748325
v -0.199310 0.200000 -9.953062
v 2.519453 0.400000 -8.740429
v 2.561728 0.200000 -8.937975
v 3.884376 0.400000 -8.645642
v 4.023454 0.200000 -8.836466
v 4.710864 0.400000 -6.579422
v 4.916729 0.200000 -6.603273
v 4.391351 0.400000 -4.462643
v 4.591902 0.200000 -4.451287
v 4.473542 0.400000 -2.222957
v 4.673110 0.200000 -2.238398
v 4.692708 0.400000 -0.369998
v 4.896428 0.200000 -0.350336
v 4.182359 0.400000 1.222294
v 4.388885 0.200000 1.233201
v 4.630662 0.400000 3.382299
v 4.835523 0.200000 3.385185
v 4.161241 0.400000 5.362032
v 4.368583 0.200000 5.354455
v 4.652177 0.400000 6.916667
v 4.855824 0.200000 6.897388
v 4.584554 0.400000 7.491463
v 4.774618 0.200000 7.587647
v 3.986623 0.400000 8.049531
v 4.165565 0.200000 8.156096
v 3.737673 0.400000 9.007032
v 3.901643 0.200000 9.171184
v 2.089949 0.400000 9.433502
v 2.175994 0.200000 9.617822
v 1.693532 0.400000 9.716657
v 1.749657 0.200000 9.922348
v 0.595667 0.400000 9.620353
v 0.592457 0.200000 9.820839
v -1.197163 0.400000 9.719954
v -1.234700 0.200000 9.922348
v -2.580169 0.400000 9.098603
v -2.635520 0.200000 9.292994
v -3.979475 0.400000 8.912030
v -4.158151 0.200000 9.089977
v -4.586497 0.400000 4.212500
v -4.787505 0.200000 4.217557
v -4.523583 0.200000 0.847467
v -4.322582 0.400000 0.842506
vt 0.3633 0.4063
vt 0.3827 0.4089
vt 0.3822 0.4128
vt 0.3631 0.4102
vt 0.3945 0.4114
vt 0.3942 0.4152
vt 0.4193 0.4119
vt 0.4195 0.4158
vt 0.4338 0.4089
vt 0.4342 0.4131
vt 0.4719 0.4075
vt 0.4728 0.4113
vt 0.4815 0.4017
vt 0.4840 0.4042
vt 0.4849 0.3900
vt 0.4882 0.3910
vt 0.4859 0.3767
vt 0.4896 0.3774
vt 0.4890 0.3626
vt 0.4924 0.3632
vt 0.4902 0.3484
vt 0.4936 0.3479
vt 0.4792 0.3085
vt 0.4827 0.3073
vt 0.4755 0.2902
vt 0.4780 0.2876
vt 0.4541 0.2794
vt 0.4547 0.2756
vt 0.4291 0.2811
vt 0.4291 0.2770
vt 0.4020 0.2796
vt 0.4022 0.2756
vt 0.3802 0.2776
vt 0.3801 0.2737
vt 0.3602 0.2816
vt 0.3600 0.2773
vt 0.3337 0.2782
vt 0.3336 0.2744
vt 0.3088 0.2822
vt 0.3088 0.2779
vt 0.2893 0.2789
vt 0.2891 0.2751
vt 0.2831 0.2803
vt 0.2816 0.2770
vt 0.2766 0.2892
vt 0.2741 0.2856
vt 0.2662 0.2958
vt 0.2637 0.2937
vt 0.2622 0.3183
vt 0.2588 0.3170
vt 0.2597 0.3240
vt 0.2568 0.3235
vt 0.2611 0.3387
vt 0.2578 0.3390
vt 0.2626 0.3626
vt 0.2595 0.3636
vt 0.2705 0.3816
vt 0.2673 0.3834
vt 0.2768 0.3985
vt 0.2750 0.4017
vt 0.3249 0.4064
vt 0.3247 0.4101
vn -0.7014 0.7071 0.0899
vn -0.6868 0.7071 0.1682
vn -0.7071 0.7071 0.0000
vn -0.6776 0.7071 -0.2021
vn -0.7071 0.7071 0.0045
vn -0.6274 0.7071 -0.3262
vn -0.1907 0.7071 -0.6809
vn 0.0314 0.7071 -0.7064
vn -0.2101 0.7071 -0.6752
vn -0.0926 0.7071 -0.7010
vn 0.2440 0.7071 -0.6637
vn 0.0490 0.7071 -0.7054
vn 0.6565 0.7071 -0.2626
vn 0.6992 0.7071 0.1055
vn 0.7066 0.7071 -0.0259
vn 0.7022 0.7071 -0.0831
vn 0.6734 0.7071 0.2158
vn 0.6924 0.7071 -0.1437
vn 0.6880 0.7071 0.1631
vn 0.6743 0.7071 -0.2129
vn 0.7023 0.7071 0.0826
vn 0.4825 0.7071 0.5169
vn 0.6844 0.7071 0.1779
vn 0.1772 0.7071 0.6845
vn 0.4110 0.7071 0.5754
vn -0.0618 0.7071 0.7044
vn 0.0392 0.7071 0.7060
vn -0.2898 0.7071 0.6450
vn -0.0935 0.7071 0.7009
vn -0.7013 0.7071 0.0906
vn -0.7049 0.7071 -0.0552
vn 0.0000 1.0000 -0.0000
vn 0.0000 -1.0000 -0.0000
usemtl terrain
s off
f 75/1/1 14/2/1 15/3/1 74/4/1
f 14/2/2 16/5/2 17/6/2 15/3/2
f 16/5/3 18/7/3 19/8/3 17/6/3
f 18/7/4 20/9/4 21/10/4 19/8/4
f 20/9/5 22/11/5 23/12/5 21/10/5
f 22/11/6 24/13/6 25/14/6 23/12/6
f 24/13/7 26/15/7 27/16/7 25/14/7
f 26/15/8 28/17/8 29/18/8 27/16/8
f 28/17/9 30/19/9 31/20/9 29/18/9
f 30/19/10 32/21/10 33/22/10 31/20/10
f 32/21/11 34/23/11 35/24/11 33/22/11
f 34/23/12 36/25/12 37/26/12 35/24/12
f 36/25/13 38/27/13 39/28/13 37/26/13
f 38/27/14 40/29/14 41/30/14 39/28/14
f 40/29/15 42/31/15 43/32/15 41/30/15
f 42/31/16 44/33/16 45/34/16 43/32/16
f 44/33/17 46/35/17 47/36/17 45/34/17
f 46/35/18 48/37/18 49/38/18 47/36/18
f 48/37/19 50/39/19 51/40/19 49/38/19
f 50/39/20 52/41/20 53/42/20 51/40/20
f 52/41/21 54/43/21 55/44/21 53/42/21
f 54/43/22 56/45/22 57/46/22 55/44/22
f 56/45/23 58/47/23 59/48/23 57/46/23
f 58/47/24 60/49/24 61/50/24 59/48/24
f 60/49/25 62/51/25 63/52/25 61/50/25
f 62/51/26 64/53/26 65/54/26 63/52/26
f 64/53/27 66/55/27 67/56/27 65/54/27
f 66/55/28 68/57/28 69/58/28 67/56/28
f 68/57/29 70/59/29 71/60/29 69/58/29
f 70/59/30 72/61/30 73/62/30 71/60/30
f 72/61/31 75/1/31 74/4/31 73/62/31
f 40/29/32 34/23/32 20/9/32
f 75/1/32 72/61/32 46/35/32
f 68/57/32 66/55/32 64/53/32
f 72/61/32 70/59/32 68/57/32
f 18/7/32 16/5/32 42/31/32
f 14/2/32 75/1/32 46/35/32
f 68/57/32 64/53/32 72/61/32
f 60/49/32 58/47/32 56/45/32
f 64/53/32 62/51/32 60/49/32
f 16/5/32 14/2/32 42/31/32
f 24/13/32 22/11/32 26/15/32
f 20/9/32 18/7/32 42/31/32
f 64/53/32 60/49/32 50/39/32
f 56/45/32 54/43/32 52/41/32
f 50/39/32 48/37/32 72/61/32
f 56/45/32 52/41/32 50/39/32
f 72/61/32 48/37/32 46/35/32
f 26/15/32 22/11/32 28/17/32
f 32/21/32 30/19/32 34/23/32
f 28/17/32 22/11/32 20/9/32
f 60/49/32 56/45/32 50/39/32
f 46/35/32 44/33/32 42/31/32
f 64/53/32 50/39/32 72/61/32
f 30/19/32 28/17/32 20/9/32
f 38/27/32 36/25/32 34/23/32
f 34/23/32 30/19/32 20/9/32
f 14/2/32 46/35/32 42/31/32
f 40/29/32 38/27/32 34/23/32
f 20/9/32 42/31/32 40/29/32
f 43/32/33 19/8/33 21/10/33
f 15/3/33 17/6/33 43/32/33
f 21/10/33 23/12/33 29/18/33
f 17/6/33 19/8/33 43/32/33
f 71/60/33 73/62/33 69/58/33
f 74/4/33 15/3/33 47/36/33
f 23/12/33 25/14/33 27/16/33
f 29/18/33 31/20/33 21/10/33
f 23/12/33 27/16/33 29/18/33
f 73/62/33 65/54/33 69/58/33
f 65/54/33 67/56/33 69/58/33
f 73/62/33 74/4/33 47/36/33
f 21/10/33 31/20/33 35/24/33
f 35/24/33 37/26/33 39/28/33
f 31/20/33 33/22/33 35/24/33
f 65/54/33 73/62/33 51/40/33
f 61/50/33 63/52/33 65/54/33
f 57/46/33 59/48/33 61/50/33
f 53/42/33 55/44/33 57/46/33
f 47/36/33 49/38/33 73/62/33
f 51/40/33 53/42/33 57/46/33
f 57/46/33 61/50/33 51/40/33
f 15/3/33 43/32/33 47/36/33
f 35/24/33 39/28/33 41/30/33
f 43/32/33 45/34/33 47/36/33
f 35/24/33 41/30/33 21/10/33
f 61/50/33 65/54/33 51/40/33
f 49/38/33 51/40/33 73/62/33
f 41/30/33 43/32/33 21/10/33
l 2 3
l 5 6
l 7 8
l 10 11
