# Blender v2.78 (sub 0) OBJ File: 'cf_terrains.blend'
# www.blender.org
mtllib cf_sm_mine_col.mtl
o Cube_Cube.002_Cube_Cube.003
v 0.895023 0.085718 7.554126
v 0.889705 0.048989 7.507956
v 0.926433 0.085718 7.536434
v 0.889705 0.151010 7.507956
v 0.895023 0.114282 7.554126
v 0.926433 0.114282 7.536434
v -0.686050 0.151011 6.552953
v -0.725504 0.114282 6.533916
v -0.725504 0.114282 6.571989
v -0.686050 0.048990 6.552953
v -0.725504 0.085718 6.571989
v -0.725504 0.085718 6.533916
v 0.889705 0.151010 5.597949
v 0.926433 0.114282 5.569470
v 0.895023 0.114282 5.551779
v 0.895023 0.085718 5.551779
v 0.926433 0.085718 5.569470
v 0.889705 0.048989 5.597949
vt 0.1794 0.9250
vt 0.2448 0.9250
vt 0.2448 0.9904
vt 0.1794 0.9904
vt 0.1241 0.9883
vt 0.2436 0.7911
vt 0.0046 0.7911
vt 0.1241 0.9884
vt 0.0045 0.7912
vt 0.2435 0.7911
vt 0.1794 0.9250
vt 0.2448 0.9250
vt 0.2448 0.9904
vt 0.1794 0.9904
vt 0.1794 0.9250
vt 0.2448 0.9250
vt 0.2448 0.9904
vt 0.1794 0.9250
vt 0.2448 0.9250
vt 0.1794 0.9250
vt 0.2448 0.9904
vt 0.1794 0.9250
vt 0.2448 0.9250
vt 0.2448 0.9904
vt 0.1794 0.9250
vt 0.1794 0.9250
vt 0.2448 0.9250
vt 0.2448 0.9904
vt 0.1794 0.9250
vt 0.2448 0.9904
vt 0.1794 0.9904
vt 0.1794 0.9250
vt 0.2448 0.9904
vt 0.1794 0.9904
vt 0.1794 0.9250
vt 0.2448 0.9250
vt 0.2448 0.9904
vt 0.1794 0.9904
vt 0.1794 0.9250
vt 0.2448 0.9250
vt 0.2448 0.9904
vt 0.2448 0.9250
vt 0.1794 0.9904
vt 0.2448 0.9250
vt 0.1794 0.9904
vt 0.1794 0.9250
vt 0.2448 0.9250
vt 0.2448 0.9904
vt 0.1794 0.9904
vt 0.2448 0.9250
vt 0.1794 0.9904
vt 0.2448 0.9904
vt 0.1794 0.9904
vt 0.1794 0.9904
vn 1.0000 0.0000 -0.0000
vn -0.0000 -1.0000 -0.0000
vn 0.0000 1.0000 0.0000
vn -0.5183 0.0000 -0.8552
vn 0.2357 -0.5166 0.8231
vn 0.2336 -0.8794 0.4148
vn 0.5818 -0.5166 0.6282
vn 0.2337 0.8794 0.4148
vn 0.2357 0.5166 0.8231
vn 0.5818 0.5166 0.6282
vn -0.5017 0.8651 0.0000
vn -0.8380 0.5060 -0.2043
vn -0.8380 0.5060 0.2043
vn -0.5017 -0.8651 0.0000
vn -0.8380 -0.5060 0.2043
vn -0.8380 -0.5060 -0.2043
vn 0.2336 0.8794 -0.4148
vn 0.5818 0.5166 -0.6282
vn 0.2357 0.5166 -0.8231
vn 0.2357 -0.5166 -0.8231
vn 0.5818 -0.5166 -0.6282
vn 0.2336 -0.8794 -0.4148
vn -0.5183 0.0000 0.8552
usemtl None.001
s 1
f 17/1/1 14/2/1 6/3/1 3/4/1
f 10/5/2 18/6/2 2/7/2
f 7/8/3 4/9/3 13/10/3
f 12/11/4 8/12/4 15/13/4 16/14/4
f 1/15/5 2/16/6 3/17/7
f 4/18/8 5/19/9 6/3/10
f 7/20/11 8/12/12 9/21/13
f 10/22/14 11/23/15 12/24/16
f 13/25/17 14/2/18 15/13/19
f 16/26/20 17/27/21 18/28/22
f 6/29/10 14/2/18 13/30/17 4/31/8
f 14/32/18 17/27/21 16/33/20 15/34/19
f 3/35/7 6/36/10 5/37/9 1/38/5
f 2/39/6 18/40/22 17/41/21 3/4/7
f 12/11/16 16/42/20 18/28/22 10/43/14
f 4/18/8 7/44/11 9/21/13 5/45/9
f 8/46/12 12/47/16 11/48/15 9/49/13
f 7/20/11 13/50/17 15/13/19 8/51/12
f 1/15/5 11/23/15 10/52/14 2/53/6
f 1/15/23 5/19/23 9/21/23 11/54/23
o Cube_Cube.005
v 0.895023 0.085718 -5.445874
v 0.889705 0.048989 -5.492044
v 0.926433 0.085718 -5.463566
v 0.889705 0.151011 -5.492044
v 0.895023 0.114282 -5.445874
v 0.926433 0.114282 -5.463566
v -0.686050 0.151011 -6.447047
v -0.725504 0.114283 -6.466084
v -0.725504 0.114283 -6.428011
v -0.686050 0.048990 -6.447047
v -0.725504 0.085719 -6.428011
v -0.725504 0.085719 -6.466084
v 0.889705 0.151011 -7.402051
v 0.926433 0.114282 -7.430530
v 0.895023 0.114282 -7.448221
v 0.895023 0.085718 -7.448221
v 0.926433 0.085718 -7.430530
v 0.889705 0.048990 -7.402051
vt 0.1794 0.9250
vt 0.2448 0.9250
vt 0.2448 0.9904
vt 0.1794 0.9904
vt 0.1241 0.9883
vt 0.2436 0.7911
vt 0.0046 0.7911
vt 0.1241 0.9884
vt 0.0045 0.7912
vt 0.2435 0.7911
vt 0.1794 0.9250
vt 0.2448 0.9250
vt 0.2448 0.9904
vt 0.1794 0.9904
vt 0.1794 0.9250
vt 0.2448 0.9250
vt 0.2448 0.9904
vt 0.1794 0.9250
vt 0.2448 0.9250
vt 0.1794 0.9250
vt 0.2448 0.9904
vt 0.1794 0.9250
vt 0.2448 0.9250
vt 0.2448 0.9904
vt 0.1794 0.9250
vt 0.1794 0.9250
vt 0.2448 0.9250
vt 0.2448 0.9904
vt 0.1794 0.9250
vt 0.2448 0.9904
vt 0.1794 0.9904
vt 0.1794 0.9250
vt 0.2448 0.9904
vt 0.1794 0.9904
vt 0.1794 0.9250
vt 0.2448 0.9250
vt 0.2448 0.9904
vt 0.1794 0.9904
vt 0.1794 0.9250
vt 0.2448 0.9250
vt 0.2448 0.9904
vt 0.2448 0.9250
vt 0.1794 0.9904
vt 0.2448 0.9250
vt 0.1794 0.9904
vt 0.1794 0.9250
vt 0.2448 0.9250
vt 0.2448 0.9904
vt 0.1794 0.9904
vt 0.2448 0.9250
vt 0.1794 0.9904
vt 0.2448 0.9904
vt 0.1794 0.9904
vt 0.1794 0.9904
vn 1.0000 0.0000 -0.0000
vn -0.0000 -1.0000 -0.0000
vn 0.0000 1.0000 0.0000
vn -0.5183 0.0000 -0.8552
vn 0.2357 -0.5166 0.8231
vn 0.2336 -0.8794 0.4148
vn 0.5818 -0.5166 0.6282
vn 0.2336 0.8794 0.4148
vn 0.2357 0.5166 0.8231
vn 0.5818 0.5166 0.6282
vn -0.5017 0.8651 0.0000
vn -0.8380 0.5060 -0.2043
vn -0.8380 0.5060 0.2043
vn -0.5017 -0.8651 0.0000
vn -0.8380 -0.5060 0.2043
vn -0.8380 -0.5060 -0.2043
vn 0.2336 0.8794 -0.4148
vn 0.5818 0.5166 -0.6282
vn 0.2357 0.5166 -0.8231
vn 0.2357 -0.5166 -0.8231
vn 0.5817 -0.5166 -0.6282
vn 0.2336 -0.8794 -0.4148
vn -0.5183 0.0000 0.8552
usemtl None.001
s 1
f 35/55/24 32/56/24 24/57/24 21/58/24
f 28/59/25 36/60/25 20/61/25
f 25/62/26 22/63/26 31/64/26
f 30/65/27 26/66/27 33/67/27 34/68/27
f 19/69/28 20/70/29 21/71/30
f 22/72/31 23/73/32 24/57/33
f 25/74/34 26/66/35 27/75/36
f 28/76/37 29/77/38 30/78/39
f 31/79/40 32/56/41 33/67/42
f 34/80/43 35/81/44 36/82/45
f 24/83/33 32/56/41 31/84/40 22/85/31
f 32/86/41 35/81/44 34/87/43 33/88/42
f 21/89/30 24/90/33 23/91/32 19/92/28
f 20/93/29 36/94/45 35/95/44 21/58/30
f 30/65/39 34/96/43 36/82/45 28/97/37
f 22/72/31 25/98/34 27/75/36 23/99/32
f 26/100/35 30/101/39 29/102/38 27/103/36
f 25/74/34 31/104/40 33/67/42 26/105/35
f 19/69/28 29/77/38 28/106/37 20/107/29
f 19/69/46 23/73/46 27/75/46 29/108/46
