# Blender v2.78 (sub 0) OBJ File: 'cf_terrains.blend'
# www.blender.org
mtllib cf_sm_crest.mtl
o crest_Cube.002
v 0.000000 0.000000 3.465422
v 0.000000 0.000000 -3.465422
v -0.866356 0.000000 0.000000
v 0.866356 0.000000 0.000000
v 0.000000 0.957272 0.000000
v 0.000000 0.000000 0.000000
v 0.567769 -0.013770 -2.271077
v -0.567769 -0.013770 2.271077
v -0.567769 -0.013770 -2.271077
v 0.567769 -0.013770 2.271077
v 0.000000 0.700642 -1.732711
v 0.000000 0.700642 1.732711
vt 0.0037 0.3098
vt 0.0037 0.3098
vt 0.0037 0.3098
vt 0.0037 0.3098
vt 0.0636 0.4008
vt 0.0641 0.3703
vt 0.1245 0.3702
vt 0.1896 0.3990
vt 0.1858 0.3702
vt 0.2470 0.3702
vt 0.0037 0.3098
vt 0.0037 0.3098
vt 0.0037 0.3098
vt 0.0037 0.3098
vt 0.1854 0.3398
vt 0.0653 0.3401
vt 0.1244 0.3096
vt 0.0037 0.3098
vt 0.1246 0.4307
vt 0.0037 0.3705
vn 0.0000 -1.0000 0.0000
vn 0.9240 -0.3823 0.0000
vn 0.8854 -0.3648 0.2879
vn 0.0000 -0.1297 0.9915
vn -0.8854 -0.3648 0.2879
vn 0.0000 0.9771 0.2127
vn 0.0000 1.0000 0.0000
vn -0.8854 -0.3648 -0.2879
vn 0.0000 0.9771 -0.2127
vn 0.0000 -0.1297 -0.9915
vn 0.8854 -0.3648 -0.2879
vn -0.9240 -0.3823 0.0000
usemtl None
s 1
f 6/1/1 4/2/2 10/3/3 1/4/4
f 8/5/5 12/6/6 5/7/7
f 9/8/8 11/9/9 2/10/10
f 2/11/10 7/12/11 4/2/2 6/1/1
f 2/11/10 6/1/1 3/13/12 9/14/8
f 7/15/11 11/9/9 5/7/7
f 5/7/7 10/16/3 4/17/2
f 3/13/12 6/1/1 1/4/4 8/18/5
f 9/8/8 3/19/12 5/7/7
f 5/7/7 4/17/2 7/15/11
f 12/6/6 10/16/3 5/7/7
f 5/7/7 3/19/12 8/5/5
f 8/5/5 1/20/4 12/6/6
f 9/8/8 5/7/7 11/9/9
f 7/15/11 2/10/10 11/9/9
f 12/6/6 1/20/4 10/16/3
