# Blender v2.78 (sub 0) OBJ File: 'cf_terrains.blend'
# www.blender.org
mtllib cf_sm_dragon.mtl
o Cube
v 0.500000 0.000000 -6.500000
v 0.800000 1.600000 -6.800000
v 0.500000 0.000000 -7.500000
v 0.800000 1.600000 -7.200000
v 1.500000 0.000000 -6.500000
v 1.200000 1.600000 -6.800000
v 1.500000 0.000000 -7.500000
v 1.200000 1.600000 -7.200000
v -1.500000 0.000000 -6.500000
v -1.200000 1.600000 -6.800000
v -1.500000 0.000000 -7.500000
v -1.200000 1.600000 -7.200000
v -0.500000 0.000000 -6.500000
v -0.800000 1.600000 -6.800000
v -0.500000 0.000000 -7.500000
v -0.800000 1.600000 -7.200000
v 0.500000 0.000000 -4.500000
v 0.800000 1.600000 -4.800000
v 0.500000 0.000000 -5.500000
v 0.800000 1.600000 -5.200000
v 1.500000 0.000000 -4.500000
v 1.200000 1.600000 -4.800000
v 1.500000 0.000000 -5.500000
v 1.200000 1.600000 -5.200000
v -1.500000 0.000000 -4.500000
v -1.200000 1.600000 -4.800000
v -1.500000 0.000000 -5.500000
v -1.200000 1.600000 -5.200000
v -0.500000 0.000000 -4.500000
v -0.800000 1.600000 -4.800000
v -0.500000 0.000000 -5.500000
v -0.800000 1.600000 -5.200000
v 0.500000 0.000000 -2.500000
v 0.800000 1.600000 -2.800000
v 0.500000 0.000000 -3.500000
v 0.800000 1.600000 -3.200000
v 1.500000 0.000000 -2.500000
v 1.200000 1.600000 -2.800000
v 1.500000 0.000000 -3.500000
v 1.200000 1.600000 -3.200000
v -1.500000 0.000000 -2.500000
v -1.200000 1.600000 -2.800000
v -1.500000 0.000000 -3.500000
v -1.200000 1.600000 -3.200000
v -0.500000 0.000000 -2.500000
v -0.800000 1.600000 -2.800000
v -0.500000 0.000000 -3.500000
v -0.800000 1.600000 -3.200000
v 0.500000 0.000000 -0.500000
v 0.800000 1.600000 -0.800000
v 0.500000 0.000000 -1.500000
v 0.800000 1.600000 -1.200000
v 1.500000 0.000000 -0.500000
v 1.200000 1.600000 -0.800000
v 1.500000 0.000000 -1.500000
v 1.200000 1.600000 -1.200000
v -1.500000 0.000000 -0.500000
v -1.200000 1.600000 -0.800000
v -1.500000 0.000000 -1.500000
v -1.200000 1.600000 -1.200000
v -0.500000 0.000000 -0.500000
v -0.800000 1.600000 -0.800000
v -0.500000 0.000000 -1.500000
v -0.800000 1.600000 -1.200000
v 0.500000 0.000000 1.500000
v 0.800000 1.600000 1.200000
v 0.500000 0.000000 0.500000
v 0.800000 1.600000 0.800000
v 1.500000 0.000000 1.500000
v 1.200000 1.600000 1.200000
v 1.500000 0.000000 0.500000
v 1.200000 1.600000 0.800000
v -1.500000 0.000000 1.500000
v -1.200000 1.600000 1.200000
v -1.500000 0.000000 0.500000
v -1.200000 1.600000 0.800000
v -0.500000 0.000000 1.500000
v -0.800000 1.600000 1.200000
v -0.500000 0.000000 0.500000
v -0.800000 1.600000 0.800000
v 0.500000 0.000000 3.500000
v 0.800000 1.600000 3.200000
v 0.500000 0.000000 2.500000
v 0.800000 1.600000 2.800000
v 1.500000 0.000000 3.500000
v 1.200000 1.600000 3.200000
v 1.500000 0.000000 2.500000
v 1.200000 1.600000 2.800000
v -1.500000 0.000000 3.500000
v -1.200000 1.600000 3.200000
v -1.500000 0.000000 2.500000
v -1.200000 1.600000 2.800000
v -0.500000 0.000000 3.500000
v -0.800000 1.600000 3.200000
v -0.500000 0.000000 2.500000
v -0.800000 1.600000 2.800000
v 0.500000 0.000000 5.500000
v 0.800000 1.600000 5.200000
v 0.500000 0.000000 4.500000
v 0.800000 1.600000 4.800000
v 1.500000 0.000000 5.500000
v 1.200000 1.600000 5.200000
v 1.500000 0.000000 4.500000
v 1.200000 1.600000 4.800000
v -1.500000 0.000000 5.500000
v -1.200000 1.600000 5.200000
v -1.500000 0.000000 4.500000
v -1.200000 1.600000 4.800000
v -0.500000 0.000000 5.500000
v -0.800000 1.600000 5.200000
v -0.500000 0.000000 4.500000
v -0.800000 1.600000 4.800000
v 0.500000 0.000000 7.500000
v 0.800000 1.600000 7.200000
v 0.500000 0.000000 6.500000
v 0.800000 1.600000 6.800000
v 1.500000 0.000000 7.500000
v 1.200000 1.600000 7.200000
v 1.500000 0.000000 6.500000
v 1.200000 1.600000 6.800000
v -1.500000 0.000000 7.500000
v -1.200000 1.600000 7.200000
v -1.500000 0.000000 6.500000
v -1.200000 1.600000 6.800000
v -0.500000 0.000000 7.500000
v -0.800000 1.600000 7.200000
v -0.500000 0.000000 6.500000
v -0.800000 1.600000 6.800000
vt 0.0853 0.2072
vt 0.1053 0.2072
vt 0.1053 0.2272
vt 0.0853 0.2272
vt 0.0853 0.2072
vt 0.1053 0.2072
vt 0.1053 0.2272
vt 0.0853 0.2272
vt 0.0853 0.2072
vt 0.1053 0.2072
vt 0.1053 0.2272
vt 0.0853 0.2272
vt 0.0853 0.2072
vt 0.1053 0.2072
vt 0.1053 0.2272
vt 0.0853 0.2272
vt 0.1053 0.2072
vt 0.1053 0.2272
vt 0.0853 0.2072
vt 0.0853 0.2272
vt 0.0853 0.2072
vt 0.1053 0.2072
vt 0.1053 0.2272
vt 0.0853 0.2272
vt 0.0853 0.2072
vt 0.1053 0.2072
vt 0.1053 0.2272
vt 0.0853 0.2272
vt 0.0853 0.2072
vt 0.1053 0.2072
vt 0.1053 0.2272
vt 0.0853 0.2272
vt 0.0853 0.2072
vt 0.1053 0.2072
vt 0.1053 0.2272
vt 0.0853 0.2272
vt 0.1053 0.2072
vt 0.1053 0.2272
vt 0.0853 0.2072
vt 0.0853 0.2272
vt 0.0853 0.2072
vt 0.1053 0.2072
vt 0.1053 0.2272
vt 0.0853 0.2272
vt 0.0853 0.2072
vt 0.1053 0.2072
vt 0.1053 0.2272
vt 0.0853 0.2272
vt 0.0853 0.2072
vt 0.1053 0.2072
vt 0.1053 0.2272
vt 0.0853 0.2272
vt 0.0853 0.2072
vt 0.1053 0.2072
vt 0.1053 0.2272
vt 0.0853 0.2272
vt 0.1053 0.2072
vt 0.1053 0.2272
vt 0.0853 0.2072
vt 0.0853 0.2272
vt 0.0853 0.2072
vt 0.1053 0.2072
vt 0.1053 0.2272
vt 0.0853 0.2272
vt 0.0853 0.2072
vt 0.1053 0.2072
vt 0.1053 0.2272
vt 0.0853 0.2272
vt 0.0853 0.2072
vt 0.1053 0.2072
vt 0.1053 0.2272
vt 0.0853 0.2272
vt 0.0853 0.2072
vt 0.1053 0.2072
vt 0.1053 0.2272
vt 0.0853 0.2272
vt 0.1053 0.2072
vt 0.1053 0.2272
vt 0.0853 0.2072
vt 0.0853 0.2272
vt 0.0853 0.2072
vt 0.1053 0.2072
vt 0.1053 0.2272
vt 0.0853 0.2272
vt 0.0853 0.2072
vt 0.1053 0.2072
vt 0.1053 0.2272
vt 0.0853 0.2272
vt 0.0853 0.2072
vt 0.1053 0.2072
vt 0.1053 0.2272
vt 0.0853 0.2272
vt 0.0853 0.2072
vt 0.1053 0.2072
vt 0.1053 0.2272
vt 0.0853 0.2272
vt 0.1053 0.2072
vt 0.1053 0.2272
vt 0.0853 0.2072
vt 0.0853 0.2272
vt 0.0853 0.2072
vt 0.1053 0.2072
vt 0.1053 0.2272
vt 0.0853 0.2272
vt 0.0853 0.2072
vt 0.1053 0.2072
vt 0.1053 0.2272
vt 0.0853 0.2272
vt 0.0853 0.2072
vt 0.1053 0.2072
vt 0.1053 0.2272
vt 0.0853 0.2272
vt 0.0853 0.2072
vt 0.1053 0.2072
vt 0.1053 0.2272
vt 0.0853 0.2272
vt 0.1053 0.2072
vt 0.1053 0.2272
vt 0.0853 0.2072
vt 0.0853 0.2272
vt 0.0853 0.2072
vt 0.1053 0.2072
vt 0.1053 0.2272
vt 0.0853 0.2272
vt 0.0853 0.2072
vt 0.1053 0.2072
vt 0.1053 0.2272
vt 0.0853 0.2272
vt 0.0853 0.2072
vt 0.1053 0.2072
vt 0.1053 0.2272
vt 0.0853 0.2272
vt 0.0853 0.2072
vt 0.1053 0.2072
vt 0.1053 0.2272
vt 0.0853 0.2272
vt 0.1053 0.2072
vt 0.1053 0.2272
vt 0.0853 0.2072
vt 0.0853 0.2272
vt 0.0853 0.2072
vt 0.1053 0.2072
vt 0.1053 0.2272
vt 0.0853 0.2272
vt 0.0853 0.2072
vt 0.1053 0.2072
vt 0.1053 0.2272
vt 0.0853 0.2272
vt 0.0853 0.2072
vt 0.1053 0.2072
vt 0.1053 0.2272
vt 0.0853 0.2272
vt 0.0853 0.2072
vt 0.1053 0.2072
vt 0.1053 0.2272
vt 0.0853 0.2272
vt 0.1053 0.2072
vt 0.1053 0.2272
vt 0.0853 0.2072
vt 0.0853 0.2272
vt 0.0853 0.2072
vt 0.1053 0.2072
vt 0.1053 0.2272
vt 0.0853 0.2272
vt 0.0853 0.2072
vt 0.1053 0.2072
vt 0.1053 0.2272
vt 0.0853 0.2272
vt 0.0853 0.2072
vt 0.1053 0.2072
vt 0.1053 0.2272
vt 0.0853 0.2272
vt 0.0853 0.2072
vt 0.1053 0.2072
vt 0.1053 0.2272
vt 0.0853 0.2272
vt 0.1053 0.2072
vt 0.1053 0.2272
vt 0.0853 0.2072
vt 0.0853 0.2272
vt 0.0853 0.2072
vt 0.1053 0.2072
vt 0.1053 0.2272
vt 0.0853 0.2272
vt 0.0853 0.2072
vt 0.1053 0.2072
vt 0.1053 0.2272
vt 0.0853 0.2272
vt 0.0853 0.2072
vt 0.1053 0.2072
vt 0.1053 0.2272
vt 0.0853 0.2272
vt 0.0853 0.2072
vt 0.1053 0.2072
vt 0.1053 0.2272
vt 0.0853 0.2272
vt 0.1053 0.2072
vt 0.1053 0.2272
vt 0.0853 0.2072
vt 0.0853 0.2272
vt 0.0853 0.2072
vt 0.1053 0.2072
vt 0.1053 0.2272
vt 0.0853 0.2272
vt 0.0853 0.2072
vt 0.1053 0.2072
vt 0.1053 0.2272
vt 0.0853 0.2272
vt 0.0853 0.2072
vt 0.1053 0.2072
vt 0.1053 0.2272
vt 0.0853 0.2272
vt 0.0853 0.2072
vt 0.1053 0.2072
vt 0.1053 0.2272
vt 0.0853 0.2272
vt 0.1053 0.2072
vt 0.1053 0.2272
vt 0.0853 0.2072
vt 0.0853 0.2272
vt 0.0853 0.2072
vt 0.1053 0.2072
vt 0.1053 0.2272
vt 0.0853 0.2272
vt 0.0853 0.2072
vt 0.1053 0.2072
vt 0.1053 0.2272
vt 0.0853 0.2272
vt 0.0853 0.2072
vt 0.1053 0.2072
vt 0.1053 0.2272
vt 0.0853 0.2272
vt 0.0853 0.2072
vt 0.1053 0.2072
vt 0.1053 0.2272
vt 0.0853 0.2272
vt 0.1053 0.2072
vt 0.1053 0.2272
vt 0.0853 0.2072
vt 0.0853 0.2272
vt 0.0853 0.2072
vt 0.1053 0.2072
vt 0.1053 0.2272
vt 0.0853 0.2272
vt 0.0853 0.2072
vt 0.1053 0.2072
vt 0.1053 0.2272
vt 0.0853 0.2272
vt 0.0853 0.2072
vt 0.1053 0.2072
vt 0.1053 0.2272
vt 0.0853 0.2272
vt 0.0853 0.2072
vt 0.1053 0.2072
vt 0.1053 0.2272
vt 0.0853 0.2272
vt 0.1053 0.2072
vt 0.1053 0.2272
vt 0.0853 0.2072
vt 0.0853 0.2272
vt 0.0853 0.2072
vt 0.1053 0.2072
vt 0.1053 0.2272
vt 0.0853 0.2272
vt 0.0853 0.2072
vt 0.1053 0.2072
vt 0.1053 0.2272
vt 0.0853 0.2272
vt 0.0853 0.2072
vt 0.1053 0.2072
vt 0.1053 0.2272
vt 0.0853 0.2272
vt 0.0853 0.2072
vt 0.1053 0.2072
vt 0.1053 0.2272
vt 0.0853 0.2272
vt 0.1053 0.2072
vt 0.1053 0.2272
vt 0.0853 0.2072
vt 0.0853 0.2272
vt 0.0853 0.2072
vt 0.1053 0.2072
vt 0.1053 0.2272
vt 0.0853 0.2272
vt 0.0853 0.2072
vt 0.1053 0.2072
vt 0.1053 0.2272
vt 0.0853 0.2272
vt 0.0853 0.2072
vt 0.1053 0.2072
vt 0.1053 0.2272
vt 0.0853 0.2272
vt 0.0853 0.2072
vt 0.1053 0.2072
vt 0.1053 0.2272
vt 0.0853 0.2272
vt 0.1053 0.2072
vt 0.1053 0.2272
vt 0.0853 0.2072
vt 0.0853 0.2272
vt 0.0853 0.2072
vt 0.1053 0.2072
vt 0.1053 0.2272
vt 0.0853 0.2272
vt 0.0853 0.2072
vt 0.1053 0.2072
vt 0.1053 0.2272
vt 0.0853 0.2272
vt 0.0853 0.2072
vt 0.1053 0.2072
vt 0.1053 0.2272
vt 0.0853 0.2272
vt 0.0853 0.2072
vt 0.1053 0.2072
vt 0.1053 0.2272
vt 0.0853 0.2272
vt 0.1053 0.2072
vt 0.1053 0.2272
vt 0.0853 0.2072
vt 0.0853 0.2272
vn -0.9829 0.1843 0.0000
vn 0.0000 0.1843 -0.9829
vn 0.9829 0.1843 0.0000
vn 0.0000 0.1843 0.9829
vn 0.0000 -1.0000 0.0000
vn 0.0000 1.0000 0.0000
usemtl None
s off
f 1/1/1 2/2/1 4/3/1 3/4/1
f 3/5/2 4/6/2 8/7/2 7/8/2
f 7/9/3 8/10/3 6/11/3 5/12/3
f 5/13/4 6/14/4 2/15/4 1/16/4
f 3/5/5 7/17/5 5/18/5 1/16/5
f 8/19/6 4/6/6 2/15/6 6/20/6
f 9/21/1 10/22/1 12/23/1 11/24/1
f 11/25/2 12/26/2 16/27/2 15/28/2
f 15/29/3 16/30/3 14/31/3 13/32/3
f 13/33/4 14/34/4 10/35/4 9/36/4
f 11/25/5 15/37/5 13/38/5 9/36/5
f 16/39/6 12/26/6 10/35/6 14/40/6
f 17/41/1 18/42/1 20/43/1 19/44/1
f 19/45/2 20/46/2 24/47/2 23/48/2
f 23/49/3 24/50/3 22/51/3 21/52/3
f 21/53/4 22/54/4 18/55/4 17/56/4
f 19/45/5 23/57/5 21/58/5 17/56/5
f 24/59/6 20/46/6 18/55/6 22/60/6
f 25/61/1 26/62/1 28/63/1 27/64/1
f 27/65/2 28/66/2 32/67/2 31/68/2
f 31/69/3 32/70/3 30/71/3 29/72/3
f 29/73/4 30/74/4 26/75/4 25/76/4
f 27/65/5 31/77/5 29/78/5 25/76/5
f 32/79/6 28/66/6 26/75/6 30/80/6
f 33/81/1 34/82/1 36/83/1 35/84/1
f 35/85/2 36/86/2 40/87/2 39/88/2
f 39/89/3 40/90/3 38/91/3 37/92/3
f 37/93/4 38/94/4 34/95/4 33/96/4
f 35/85/5 39/97/5 37/98/5 33/96/5
f 40/99/6 36/86/6 34/95/6 38/100/6
f 41/101/1 42/102/1 44/103/1 43/104/1
f 43/105/2 44/106/2 48/107/2 47/108/2
f 47/109/3 48/110/3 46/111/3 45/112/3
f 45/113/4 46/114/4 42/115/4 41/116/4
f 43/105/5 47/117/5 45/118/5 41/116/5
f 48/119/6 44/106/6 42/115/6 46/120/6
f 49/121/1 50/122/1 52/123/1 51/124/1
f 51/125/2 52/126/2 56/127/2 55/128/2
f 55/129/3 56/130/3 54/131/3 53/132/3
f 53/133/4 54/134/4 50/135/4 49/136/4
f 51/125/5 55/137/5 53/138/5 49/136/5
f 56/139/6 52/126/6 50/135/6 54/140/6
f 57/141/1 58/142/1 60/143/1 59/144/1
f 59/145/2 60/146/2 64/147/2 63/148/2
f 63/149/3 64/150/3 62/151/3 61/152/3
f 61/153/4 62/154/4 58/155/4 57/156/4
f 59/145/5 63/157/5 61/158/5 57/156/5
f 64/159/6 60/146/6 58/155/6 62/160/6
f 65/161/1 66/162/1 68/163/1 67/164/1
f 67/165/2 68/166/2 72/167/2 71/168/2
f 71/169/3 72/170/3 70/171/3 69/172/3
f 69/173/4 70/174/4 66/175/4 65/176/4
f 67/165/5 71/177/5 69/178/5 65/176/5
f 72/179/6 68/166/6 66/175/6 70/180/6
f 73/181/1 74/182/1 76/183/1 75/184/1
f 75/185/2 76/186/2 80/187/2 79/188/2
f 79/189/3 80/190/3 78/191/3 77/192/3
f 77/193/4 78/194/4 74/195/4 73/196/4
f 75/185/5 79/197/5 77/198/5 73/196/5
f 80/199/6 76/186/6 74/195/6 78/200/6
f 81/201/1 82/202/1 84/203/1 83/204/1
f 83/205/2 84/206/2 88/207/2 87/208/2
f 87/209/3 88/210/3 86/211/3 85/212/3
f 85/213/4 86/214/4 82/215/4 81/216/4
f 83/205/5 87/217/5 85/218/5 81/216/5
f 88/219/6 84/206/6 82/215/6 86/220/6
f 89/221/1 90/222/1 92/223/1 91/224/1
f 91/225/2 92/226/2 96/227/2 95/228/2
f 95/229/3 96/230/3 94/231/3 93/232/3
f 93/233/4 94/234/4 90/235/4 89/236/4
f 91/225/5 95/237/5 93/238/5 89/236/5
f 96/239/6 92/226/6 90/235/6 94/240/6
f 97/241/1 98/242/1 100/243/1 99/244/1
f 99/245/2 100/246/2 104/247/2 103/248/2
f 103/249/3 104/250/3 102/251/3 101/252/3
f 101/253/4 102/254/4 98/255/4 97/256/4
f 99/245/5 103/257/5 101/258/5 97/256/5
f 104/259/6 100/246/6 98/255/6 102/260/6
f 105/261/1 106/262/1 108/263/1 107/264/1
f 107/265/2 108/266/2 112/267/2 111/268/2
f 111/269/3 112/270/3 110/271/3 109/272/3
f 109/273/4 110/274/4 106/275/4 105/276/4
f 107/265/5 111/277/5 109/278/5 105/276/5
f 112/279/6 108/266/6 106/275/6 110/280/6
f 113/281/1 114/282/1 116/283/1 115/284/1
f 115/285/2 116/286/2 120/287/2 119/288/2
f 119/289/3 120/290/3 118/291/3 117/292/3
f 117/293/4 118/294/4 114/295/4 113/296/4
f 115/285/5 119/297/5 117/298/5 113/296/5
f 120/299/6 116/286/6 114/295/6 118/300/6
f 121/301/1 122/302/1 124/303/1 123/304/1
f 123/305/2 124/306/2 128/307/2 127/308/2
f 127/309/3 128/310/3 126/311/3 125/312/3
f 125/313/4 126/314/4 122/315/4 121/316/4
f 123/305/5 127/317/5 125/318/5 121/316/5
f 128/319/6 124/306/6 122/315/6 126/320/6
