# Blender v2.78 (sub 0) OBJ File: 'cf_terrains.blend'
# www.blender.org
mtllib cf_sm_mine.mtl
o Cube_Cube.002_Cube_Cube.003
v -0.085017 0.085018 5.340070
v -0.085017 0.127527 5.340070
v -0.085017 0.170035 5.340070
v 0.000000 0.085018 5.000000
v 0.085018 0.085018 5.340070
v 0.085018 0.042509 5.340070
v 0.085018 0.000000 5.340070
v 0.085018 0.170035 5.340070
v 0.085018 0.127527 5.340070
v -0.085017 0.000000 5.340070
v -0.085017 0.042509 5.340070
v 0.042509 0.042509 5.680140
v -0.042508 0.042509 5.680140
v -0.042508 0.042509 5.340070
v 0.042509 0.042509 5.340070
v 0.042509 0.170035 5.340070
v -0.042508 0.000000 5.340070
v -0.042508 0.127527 5.340070
v 0.042509 0.127527 5.340070
v -0.042508 0.127527 5.680140
v 0.042509 0.127527 5.680140
v 0.000001 0.170035 5.340070
v 0.000001 0.000000 5.340070
v 0.042509 0.000000 5.340070
v -0.042508 0.170035 5.340070
v 0.895023 0.085718 7.554126
v 0.889705 0.048989 7.507956
v 0.926433 0.085718 7.536434
v 0.889705 0.151010 7.507956
v 0.895023 0.114282 7.554126
v 0.926433 0.114282 7.536434
v -0.686050 0.151011 6.552953
v -0.725504 0.114282 6.533916
v -0.725504 0.114282 6.571989
v -0.686050 0.048990 6.552953
v -0.725504 0.085718 6.571989
v -0.725504 0.085718 6.533916
v 0.889705 0.151010 5.597949
v 0.926433 0.114282 5.569470
v 0.895023 0.114282 5.551779
v 0.895023 0.085718 5.551779
v 0.926433 0.085718 5.569470
v 0.889705 0.048989 5.597949
vt 0.1794 0.9250
vt 0.2448 0.9250
vt 0.2448 0.9904
vt 0.1794 0.9904
vt 0.1241 0.9883
vt 0.2436 0.7911
vt 0.0046 0.7911
vt 0.1241 0.9884
vt 0.0045 0.7912
vt 0.2435 0.7911
vt 0.1794 0.9250
vt 0.2448 0.9250
vt 0.2448 0.9904
vt 0.1794 0.9904
vt 0.1794 0.9250
vt 0.2448 0.9250
vt 0.2448 0.9904
vt 0.1794 0.9250
vt 0.2448 0.9250
vt 0.1794 0.9250
vt 0.2448 0.9904
vt 0.1794 0.9250
vt 0.2448 0.9250
vt 0.2448 0.9904
vt 0.1794 0.9250
vt 0.1794 0.9250
vt 0.2448 0.9250
vt 0.2448 0.9904
vt 0.1794 0.9250
vt 0.2448 0.9904
vt 0.1794 0.9904
vt 0.1794 0.9250
vt 0.2448 0.9904
vt 0.1794 0.9904
vt 0.1794 0.9250
vt 0.2448 0.9250
vt 0.2448 0.9904
vt 0.1794 0.9904
vt 0.1794 0.9250
vt 0.2448 0.9250
vt 0.2448 0.9904
vt 0.2448 0.9250
vt 0.1794 0.9904
vt 0.2448 0.9250
vt 0.1794 0.9904
vt 0.1794 0.9250
vt 0.2448 0.9250
vt 0.2448 0.9904
vt 0.1794 0.9904
vt 0.2448 0.9250
vt 0.1794 0.9904
vt 0.2448 0.9904
vt 0.1794 0.9904
vt 0.1794 0.9904
vt 0.0873 0.1647
vt 0.0873 0.1640
vt 0.0873 0.1632
vt 0.0891 0.1642
vt 0.0909 0.1636
vt 0.0909 0.1643
vt 0.0909 0.1651
vt 0.0900 0.1624
vt 0.0904 0.1630
vt 0.0882 0.1659
vt 0.0877 0.1653
vt 0.0864 0.1604
vt 0.0870 0.1603
vt 0.0995 0.1624
vt 0.0972 0.1624
vt 0.0859 0.1659
vt 0.0859 0.1673
vt 0.0855 0.1673
vt 0.0855 0.1659
vt 0.0931 0.1651
vt 0.0931 0.1643
vt 0.0855 0.1659
vt 0.0855 0.1673
vt 0.0851 0.1673
vt 0.0851 0.1659
vt 0.0851 0.1640
vt 0.0851 0.1632
vt 0.0965 0.1619
vt 0.0974 0.1616
vt 0.0865 0.1600
vt 0.0851 0.1600
vt 0.0885 0.1624
vt 0.0897 0.1659
vn 1.0000 0.0000 -0.0000
vn -0.0000 -1.0000 -0.0000
vn 0.0000 1.0000 0.0000
vn -0.5183 0.0000 -0.8552
vn 0.2357 -0.5166 0.8231
vn 0.2336 -0.8794 0.4148
vn 0.5818 -0.5166 0.6282
vn 0.2337 0.8794 0.4148
vn 0.2357 0.5166 0.8231
vn 0.5818 0.5166 0.6282
vn -0.5017 0.8651 0.0000
vn -0.8380 0.5060 -0.2043
vn -0.8380 0.5060 0.2043
vn -0.5017 -0.8651 0.0000
vn -0.8380 -0.5060 0.2043
vn -0.8380 -0.5060 -0.2043
vn 0.2336 0.8794 -0.4148
vn 0.5818 0.5166 -0.6282
vn 0.2357 0.5166 -0.8231
vn 0.2357 -0.5166 -0.8231
vn 0.5818 -0.5166 -0.6282
vn 0.2336 -0.8794 -0.4148
vn -0.5183 0.0000 0.8552
vn -0.9701 0.0000 -0.2425
vn 0.9701 -0.0000 -0.2425
vn 0.0000 0.0000 1.0000
vn -1.0000 -0.0000 0.0000
vn 0.0000 0.9701 -0.2425
vn -0.0000 -0.9701 -0.2425
usemtl None.001
s 1
f 42/1/1 39/2/1 31/3/1 28/4/1
f 35/5/2 43/6/2 27/7/2
f 32/8/3 29/9/3 38/10/3
f 37/11/4 33/12/4 40/13/4 41/14/4
f 26/15/5 27/16/6 28/17/7
f 29/18/8 30/19/9 31/3/10
f 32/20/11 33/12/12 34/21/13
f 35/22/14 36/23/15 37/24/16
f 38/25/17 39/2/18 40/13/19
f 41/26/20 42/27/21 43/28/22
f 31/29/10 39/2/18 38/30/17 29/31/8
f 39/32/18 42/27/21 41/33/20 40/34/19
f 28/35/7 31/36/10 30/37/9 26/38/5
f 27/39/6 43/40/22 42/41/21 28/4/7
f 37/11/16 41/42/20 43/28/22 35/43/14
f 29/18/8 32/44/11 34/21/13 30/45/9
f 33/46/12 37/47/16 36/48/15 34/49/13
f 32/20/11 38/50/17 40/13/19 33/51/12
f 26/15/5 36/23/15 35/52/14 27/53/6
f 26/15/23 30/19/23 34/21/23 36/54/23
usemtl cf_pointer_combinetex.png
s off
f 1/55/24 2/56/24 3/57/24 4/58/24
f 5/59/25 6/60/25 7/61/25 4/58/25
f 8/62/25 9/63/25 5/59/25 4/58/25
f 10/64/24 11/65/24 1/55/24 4/58/24
f 12/66/2 13/67/2 14/68/2 15/69/2
f 6/70/26 8/71/26 16/72/26 15/73/26
f 17/74/26 7/61/26 6/60/26 14/75/26
f 17/76/26 18/77/26 2/78/26 10/79/26
f 19/80/26 16/81/26 3/57/26 2/56/26
f 19/82/3 18/83/3 20/84/3 21/85/3
f 13/67/26 12/66/26 21/85/26 20/84/26
f 18/83/27 14/68/27 13/67/27 20/84/27
f 21/85/1 12/66/1 15/69/1 19/82/1
f 4/58/28 22/86/28 8/62/28
f 4/58/28 3/57/28 22/86/28
f 4/58/29 7/61/29 23/87/29
f 4/58/29 23/87/29 10/64/29
l 24 23
l 23 17
l 25 22
l 3 25
l 22 16
l 7 24
o Cube_Cube.005
v 0.085017 0.085018 -5.340070
v 0.085017 0.127527 -5.340070
v 0.085017 0.170036 -5.340070
v -0.000000 0.085018 -5.000000
v -0.085018 0.085018 -5.340070
v -0.085018 0.042509 -5.340070
v -0.085018 0.000001 -5.340070
v -0.085018 0.170036 -5.340070
v -0.085018 0.127527 -5.340070
v 0.085017 0.000001 -5.340070
v 0.085017 0.042509 -5.340070
v -0.042509 0.042509 -5.680140
v 0.042508 0.042509 -5.680140
v 0.042508 0.042509 -5.340070
v -0.042509 0.042509 -5.340070
v -0.042509 0.170036 -5.340070
v 0.042508 0.000001 -5.340070
v 0.042508 0.127527 -5.340070
v -0.042509 0.127527 -5.340070
v 0.042508 0.127527 -5.680140
v -0.042509 0.127527 -5.680140
v -0.000001 0.170036 -5.340070
v -0.000001 0.000001 -5.340070
v -0.042509 0.000001 -5.340070
v 0.042508 0.170036 -5.340070
v 0.895023 0.085718 -5.445874
v 0.889705 0.048989 -5.492044
v 0.926433 0.085718 -5.463566
v 0.889705 0.151011 -5.492044
v 0.895023 0.114282 -5.445874
v 0.926433 0.114282 -5.463566
v -0.686050 0.151011 -6.447047
v -0.725504 0.114283 -6.466084
v -0.725504 0.114283 -6.428011
v -0.686050 0.048990 -6.447047
v -0.725504 0.085719 -6.428011
v -0.725504 0.085719 -6.466084
v 0.889705 0.151011 -7.402051
v 0.926433 0.114282 -7.430530
v 0.895023 0.114282 -7.448221
v 0.895023 0.085718 -7.448221
v 0.926433 0.085718 -7.430530
v 0.889705 0.048990 -7.402051
vt 0.1794 0.9250
vt 0.2448 0.9250
vt 0.2448 0.9904
vt 0.1794 0.9904
vt 0.1241 0.9883
vt 0.2436 0.7911
vt 0.0046 0.7911
vt 0.1241 0.9884
vt 0.0045 0.7912
vt 0.2435 0.7911
vt 0.1794 0.9250
vt 0.2448 0.9250
vt 0.2448 0.9904
vt 0.1794 0.9904
vt 0.1794 0.9250
vt 0.2448 0.9250
vt 0.2448 0.9904
vt 0.1794 0.9250
vt 0.2448 0.9250
vt 0.1794 0.9250
vt 0.2448 0.9904
vt 0.1794 0.9250
vt 0.2448 0.9250
vt 0.2448 0.9904
vt 0.1794 0.9250
vt 0.1794 0.9250
vt 0.2448 0.9250
vt 0.2448 0.9904
vt 0.1794 0.9250
vt 0.2448 0.9904
vt 0.1794 0.9904
vt 0.1794 0.9250
vt 0.2448 0.9904
vt 0.1794 0.9904
vt 0.1794 0.9250
vt 0.2448 0.9250
vt 0.2448 0.9904
vt 0.1794 0.9904
vt 0.1794 0.9250
vt 0.2448 0.9250
vt 0.2448 0.9904
vt 0.2448 0.9250
vt 0.1794 0.9904
vt 0.2448 0.9250
vt 0.1794 0.9904
vt 0.1794 0.9250
vt 0.2448 0.9250
vt 0.2448 0.9904
vt 0.1794 0.9904
vt 0.2448 0.9250
vt 0.1794 0.9904
vt 0.2448 0.9904
vt 0.1794 0.9904
vt 0.1794 0.9904
vt 0.0873 0.1647
vt 0.0873 0.1640
vt 0.0873 0.1632
vt 0.0891 0.1642
vt 0.0909 0.1636
vt 0.0909 0.1643
vt 0.0909 0.1651
vt 0.0900 0.1624
vt 0.0904 0.1630
vt 0.0882 0.1659
vt 0.0877 0.1653
vt 0.0864 0.1604
vt 0.0870 0.1603
vt 0.0995 0.1624
vt 0.0972 0.1624
vt 0.0859 0.1659
vt 0.0859 0.1673
vt 0.0855 0.1673
vt 0.0855 0.1659
vt 0.0931 0.1651
vt 0.0931 0.1643
vt 0.0855 0.1659
vt 0.0855 0.1673
vt 0.0851 0.1673
vt 0.0851 0.1659
vt 0.0851 0.1640
vt 0.0851 0.1632
vt 0.0965 0.1619
vt 0.0974 0.1616
vt 0.0865 0.1600
vt 0.0851 0.1600
vt 0.0885 0.1624
vt 0.0897 0.1659
vn 1.0000 0.0000 -0.0000
vn -0.0000 -1.0000 -0.0000
vn 0.0000 1.0000 0.0000
vn -0.5183 0.0000 -0.8552
vn 0.2357 -0.5166 0.8231
vn 0.2336 -0.8794 0.4148
vn 0.5818 -0.5166 0.6282
vn 0.2336 0.8794 0.4148
vn 0.2357 0.5166 0.8231
vn 0.5818 0.5166 0.6282
vn -0.5017 0.8651 0.0000
vn -0.8380 0.5060 -0.2043
vn -0.8380 0.5060 0.2043
vn -0.5017 -0.8651 0.0000
vn -0.8380 -0.5060 0.2043
vn -0.8380 -0.5060 -0.2043
vn 0.2336 0.8794 -0.4148
vn 0.5818 0.5166 -0.6282
vn 0.2357 0.5166 -0.8231
vn 0.2357 -0.5166 -0.8231
vn 0.5817 -0.5166 -0.6282
vn 0.2336 -0.8794 -0.4148
vn -0.5183 0.0000 0.8552
vn 0.9701 -0.0000 0.2425
vn -0.9701 0.0000 0.2425
vn 0.0000 0.0000 -1.0000
vn -1.0000 0.0000 0.0000
vn 0.0000 0.9701 0.2425
vn 0.0000 -0.9701 0.2425
usemtl None.001
s 1
f 85/88/30 82/89/30 74/90/30 71/91/30
f 78/92/31 86/93/31 70/94/31
f 75/95/32 72/96/32 81/97/32
f 80/98/33 76/99/33 83/100/33 84/101/33
f 69/102/34 70/103/35 71/104/36
f 72/105/37 73/106/38 74/90/39
f 75/107/40 76/99/41 77/108/42
f 78/109/43 79/110/44 80/111/45
f 81/112/46 82/89/47 83/100/48
f 84/113/49 85/114/50 86/115/51
f 74/116/39 82/89/47 81/117/46 72/118/37
f 82/119/47 85/114/50 84/120/49 83/121/48
f 71/122/36 74/123/39 73/124/38 69/125/34
f 70/126/35 86/127/51 85/128/50 71/91/36
f 80/98/45 84/129/49 86/115/51 78/130/43
f 72/105/37 75/131/40 77/108/42 73/132/38
f 76/133/41 80/134/45 79/135/44 77/136/42
f 75/107/40 81/137/46 83/100/48 76/138/41
f 69/102/34 79/110/44 78/139/43 70/140/35
f 69/102/52 73/106/52 77/108/52 79/141/52
usemtl cf_pointer_combinetex.png
s off
f 44/142/53 45/143/53 46/144/53 47/145/53
f 48/146/54 49/147/54 50/148/54 47/145/54
f 51/149/54 52/150/54 48/146/54 47/145/54
f 53/151/53 54/152/53 44/142/53 47/145/53
f 55/153/31 56/154/31 57/155/31 58/156/31
f 49/157/55 51/158/55 59/159/55 58/160/55
f 60/161/55 50/148/55 49/147/55 57/162/55
f 60/163/55 61/164/55 45/165/55 53/166/55
f 62/167/55 59/168/55 46/144/55 45/143/55
f 62/169/32 61/170/32 63/171/32 64/172/32
f 56/154/55 55/153/55 64/172/55 63/171/55
f 61/170/30 57/155/30 56/154/30 63/171/30
f 64/172/56 55/153/56 58/156/56 62/169/56
f 47/145/57 65/173/57 51/149/57
f 47/145/57 46/144/57 65/173/57
f 47/145/58 50/148/58 66/174/58
f 47/145/58 66/174/58 53/151/58
l 67 66
l 66 60
l 68 65
l 46 68
l 65 59
l 50 67
