# Blender v2.78 (sub 0) OBJ File: 'cf_terrains.blend'
# www.blender.org
mtllib cf_tr3.mtl
o polySurface1
v -3.453965 0.164462 2.454494
v -1.171836 0.172162 3.225435
v -0.886576 0.448251 2.412100
v -2.560645 0.448251 1.923374
v -0.687666 0.704035 1.505566
v -2.000000 0.704035 1.505566
v -0.687666 -0.000000 1.505566
v -2.000000 -0.000000 1.505566
v -3.041267 -0.000000 2.169261
v -1.037307 -0.000000 2.681707
v -1.349719 -0.000001 3.732616
v -3.971662 -0.000000 2.762288
v -3.290733 0.149606 -1.805780
v -3.689728 0.000000 -2.100062
v -4.574165 0.000000 -1.736925
v -4.171690 0.099086 -1.452216
v 3.323670 -0.000000 2.828660
v 2.699052 -0.000000 2.204313
v 3.371558 -0.000000 1.158623
v 4.597076 -0.000000 1.461038
v 2.039336 -0.000000 1.505566
v 2.039336 0.704035 1.505566
v 2.039336 0.704035 0.820171
v 2.039336 -0.000000 0.820171
v 2.541923 0.448251 2.122489
v 3.319092 0.448251 1.118990
v 2.962359 0.207175 2.502279
v 3.986166 0.214276 1.297530
v -4.954827 -0.000000 1.458251
v -3.560492 -0.000000 1.166379
v -3.291021 0.448251 1.279873
v -4.366539 0.158492 1.395180
v -2.086583 0.704035 1.074239
v -2.086583 -0.000000 1.074239
v -3.290733 0.448251 -0.158935
v -2.086583 0.704035 -0.158935
v -4.699054 0.117530 -0.158935
v -3.689728 0.000000 -0.158935
v -5.199537 0.000000 -0.158935
v -2.086583 0.000000 -0.158935
v 2.039336 0.704035 -0.158935
v 2.039336 0.000000 -0.158935
v 3.627929 0.000000 -0.158935
v 5.082520 0.000000 -0.158935
v 4.385845 0.179049 -0.158935
v 3.338383 0.448251 -0.158935
v 0.892693 0.704035 1.505566
v 0.892693 -0.000000 1.505566
v 1.104347 -0.000000 2.695556
v 1.293464 -0.000001 3.758839
v 1.226046 0.184191 3.237774
v 1.129396 0.448251 2.490768
v 3.627929 0.000000 -1.250325
v 5.082520 0.000000 -0.684625
v 2.039336 0.704035 -1.250325
v 2.039336 0.000000 -1.250325
v 3.338383 0.448251 -1.250325
v 4.223248 0.220837 -0.963325
v -5.199537 0.000000 -0.684625
v -3.689728 0.000000 -1.047761
v -3.290733 0.448251 -1.047761
v -4.643826 0.130500 -0.790345
v -2.086583 0.704035 -1.047761
v -2.086583 0.000000 -1.047761
v 3.338383 0.149606 -2.004066
v 3.627929 0.000000 -2.302626
v 2.039336 0.000000 -2.302626
v 2.039336 0.297408 -2.004066
v -2.086583 0.297408 -1.805780
v -2.086583 0.000000 -2.100062
v 4.195254 0.000000 -1.736925
v 3.913725 0.120595 -1.541133
v -1.995817 -0.000000 1.536261
v -0.565158 -0.000000 1.536261
v -0.565158 0.768446 1.536261
v -1.995817 0.768446 1.536261
v -1.995817 0.997409 1.536261
v -0.565158 0.997409 1.536261
v -0.565158 0.997409 1.378250
v -1.995817 0.997409 1.378250
v -1.995817 0.768446 1.378250
v -0.565158 0.768446 1.378250
v -0.565158 -0.000000 1.378250
v -1.995817 -0.000000 1.378250
v 2.039974 -0.000000 1.536261
v 2.039974 -0.000000 1.378250
v 2.039974 0.768446 1.378250
v 2.039974 0.768446 1.536261
v 0.870060 0.768446 1.378250
v 0.870060 -0.000000 1.378250
v 0.870060 -0.000000 1.536261
v 0.870060 0.768446 1.536261
v 0.870060 0.997409 1.378250
v 0.870060 0.997409 1.536261
v 2.039974 0.997409 1.536261
v 2.039974 0.997409 1.378250
v 2.172933 0.527016 1.548572
v 2.172933 0.617811 -1.515169
v 2.172933 0.977371 -1.515169
v 2.172933 0.977371 1.548572
v 2.014921 0.977371 -1.515169
v 2.014921 0.977371 1.548572
v 2.014921 0.617811 -1.515169
v 2.014921 0.527016 1.548572
v 2.014921 -0.000000 1.548572
v 2.014921 0.000000 -1.515169
v 2.172933 0.000000 -1.515169
v 2.172933 -0.000000 1.548572
v 2.014921 0.260449 -1.515169
v 2.014921 0.260449 1.548572
v 2.172933 0.260449 1.548572
v 2.172933 0.260449 -1.515169
v 2.172933 0.260449 -2.022761
v 2.014921 0.260449 -2.022761
v 2.014921 0.617811 -2.022761
v 2.172933 0.617811 -2.022761
v 2.172933 0.000000 -2.419585
v 2.014921 0.000000 -2.419585
v 2.014921 0.260449 -2.419585
v 2.172933 0.260449 -2.419585
v 2.014921 0.000000 -2.022761
v 2.172933 0.000000 -2.022761
v 0.988290 -0.000000 1.371683
v 1.162033 -0.000000 1.371683
v 1.162033 1.215178 1.371683
v 0.988290 1.215178 1.371683
v 1.162033 1.215178 1.274265
v 0.988290 1.215178 1.274265
v 1.162033 -0.000000 1.274265
v 0.988290 -0.000000 1.274265
v -1.985906 0.527016 1.548572
v -1.985906 0.617811 -1.515169
v -1.985906 0.977371 -1.515169
v -1.985906 0.977371 1.548572
v -2.143918 0.977371 -1.515169
v -2.143918 0.977371 1.548572
v -2.143918 0.617811 -1.515169
v -2.143918 0.527016 1.548572
v -2.143918 -0.000000 1.548572
v -2.143918 0.000000 -1.515169
v -1.985906 0.000000 -1.515169
v -1.985906 -0.000000 1.548572
v -2.143918 0.260449 -1.515169
v -2.143918 0.260449 1.548572
v -1.985906 0.260449 1.548572
v -1.985906 0.260449 -1.515169
v -1.985906 0.260449 -2.022761
v -2.143918 0.260449 -2.022761
v -2.143918 0.617811 -2.022761
v -1.985906 0.617811 -2.022761
v -1.985906 0.000000 -2.419585
v -2.143918 0.000000 -2.419585
v -2.143918 0.260449 -2.419585
v -1.985906 0.260449 -2.419585
v -2.143918 0.000000 -2.022761
v -1.985906 0.000000 -2.022761
v -0.816880 -0.000000 1.371683
v -0.643137 -0.000000 1.371683
v -0.643137 1.215178 1.371683
v -0.816880 1.215178 1.371683
v -0.643137 1.215178 1.274265
v -0.816880 1.215178 1.274265
v -0.643137 -0.000000 1.274265
v -0.816880 -0.000000 1.274265
v 1.857146 -0.000000 1.371683
v 2.030890 -0.000000 1.371683
v 2.030890 1.215178 1.371683
v 1.857146 1.215178 1.371683
v 2.030890 1.215178 1.274265
v 1.857146 1.215178 1.274265
v 2.030890 -0.000000 1.274265
v 1.857146 -0.000000 1.274265
v -2.006924 -0.000000 1.371683
v -1.833181 -0.000000 1.371683
v -1.833181 1.215178 1.371683
v -2.006924 1.215178 1.371683
v -1.833181 1.215178 1.274265
v -2.006924 1.215178 1.274265
v -1.833181 -0.000000 1.274265
v -2.006924 -0.000000 1.274265
v -1.871343 -0.000000 0.126829
v -1.871343 0.000000 -0.046914
v -1.871343 1.215178 -0.046914
v -1.871343 1.215178 0.126829
v -1.968762 1.215178 -0.046914
v -1.968762 1.215178 0.126829
v -1.968762 0.000000 -0.046914
v -1.968762 -0.000000 0.126829
v -1.871343 0.000000 -1.000289
v -1.871343 0.000000 -1.174032
v -1.871343 1.215178 -1.174032
v -1.871343 1.215178 -1.000289
v -1.968762 1.215178 -1.174032
v -1.968762 1.215178 -1.000289
v -1.968762 0.000000 -1.174032
v -1.968762 0.000000 -1.000289
v 2.026014 0.000000 -1.000289
v 2.026014 0.000000 -1.174032
v 2.026014 1.215178 -1.174032
v 2.026014 1.215178 -1.000289
v 1.928596 1.215178 -1.174032
v 1.928596 1.215178 -1.000289
v 1.928596 0.000000 -1.174032
v 1.928596 0.000000 -1.000289
v 2.026014 -0.000000 0.126829
v 2.026014 0.000000 -0.046914
v 2.026014 1.215178 -0.046914
v 2.026014 1.215178 0.126829
v 1.928596 1.215178 -0.046914
v 1.928596 1.215178 0.126829
v 1.928596 0.000000 -0.046914
v 1.928596 -0.000000 0.126829
v -1.281900 0.700498 1.964306
v -1.333380 0.677459 2.241966
v -0.159998 0.430479 2.439027
v -0.108518 0.453517 2.161366
v -0.178117 0.335423 2.427780
v -0.126637 0.358461 2.150120
v -1.351499 0.582403 2.230720
v -1.300019 0.605442 1.953059
vt 0.4880 0.8932
vt 0.4880 0.8494
vt 0.4940 0.8494
vt 0.4940 0.8932
vt 0.4053 0.8135
vt 0.4114 0.8135
vt 0.4114 0.8609
vt 0.4053 0.8609
vt 0.4940 0.8019
vt 0.4880 0.8019
vt 0.4880 0.7681
vt 0.4940 0.7681
vt 0.4053 0.8059
vt 0.4114 0.8059
vt 0.4114 0.8685
vt 0.4053 0.8685
vt 0.3975 0.9926
vt 0.3975 0.9298
vt 0.4007 0.9298
vt 0.4007 0.9926
vt 0.4367 0.9298
vt 0.4367 0.9265
vt 0.4440 0.9265
vt 0.4440 0.9298
vt 0.4293 0.9193
vt 0.4293 0.9161
vt 0.4367 0.9161
vt 0.4367 0.9193
vt 0.4208 0.9080
vt 0.4208 0.9112
vt 0.4154 0.9112
vt 0.4154 0.9080
vt 0.4081 0.9298
vt 0.4049 0.9298
vt 0.4049 0.9193
vt 0.4081 0.9193
vt 0.4154 0.9193
vt 0.4122 0.9193
vt 0.4122 0.9112
vt 0.3176 0.7581
vt 0.3223 0.7581
vt 0.3223 0.7913
vt 0.3176 0.7913
vt 0.3223 0.7940
vt 0.3176 0.7940
vt 0.3297 0.7913
vt 0.3250 0.7913
vt 0.3250 0.7581
vt 0.3297 0.7581
vt 0.3176 0.7555
vt 0.3223 0.7555
vt 0.3324 0.7581
vt 0.3324 0.7913
vt 0.4495 0.9910
vt 0.4495 0.9282
vt 0.4527 0.9282
vt 0.4527 0.9910
vt 0.4887 0.9282
vt 0.4887 0.9250
vt 0.4961 0.9250
vt 0.4961 0.9282
vt 0.4814 0.9178
vt 0.4814 0.9146
vt 0.4887 0.9146
vt 0.4887 0.9178
vt 0.4728 0.9064
vt 0.4728 0.9097
vt 0.4674 0.9097
vt 0.4674 0.9064
vt 0.4601 0.9282
vt 0.4569 0.9282
vt 0.4569 0.9178
vt 0.4601 0.9178
vt 0.4674 0.9178
vt 0.4642 0.9178
vt 0.4642 0.9097
vt 0.3491 0.7589
vt 0.3539 0.7589
vt 0.3539 0.7921
vt 0.3491 0.7921
vt 0.3539 0.7947
vt 0.3491 0.7947
vt 0.3613 0.7921
vt 0.3565 0.7921
vt 0.3565 0.7589
vt 0.3613 0.7589
vt 0.3491 0.7562
vt 0.3539 0.7562
vt 0.3639 0.7589
vt 0.3639 0.7921
vt 0.2870 0.7581
vt 0.2917 0.7581
vt 0.2917 0.7913
vt 0.2870 0.7913
vt 0.2917 0.7940
vt 0.2870 0.7940
vt 0.2991 0.7913
vt 0.2944 0.7913
vt 0.2944 0.7581
vt 0.2991 0.7581
vt 0.2870 0.7555
vt 0.2917 0.7555
vt 0.3018 0.7581
vt 0.3018 0.7913
vt 0.3329 0.7581
vt 0.3376 0.7581
vt 0.3376 0.7913
vt 0.3329 0.7913
vt 0.3376 0.7940
vt 0.3329 0.7940
vt 0.3450 0.7913
vt 0.3403 0.7913
vt 0.3403 0.7581
vt 0.3450 0.7581
vt 0.3329 0.7555
vt 0.3376 0.7555
vt 0.3477 0.7581
vt 0.3477 0.7913
vt 0.3644 0.7589
vt 0.3692 0.7589
vt 0.3692 0.7921
vt 0.3644 0.7921
vt 0.3692 0.7947
vt 0.3644 0.7947
vt 0.3766 0.7921
vt 0.3718 0.7921
vt 0.3718 0.7589
vt 0.3766 0.7589
vt 0.3644 0.7562
vt 0.3692 0.7562
vt 0.3792 0.7589
vt 0.3792 0.7921
vt 0.3950 0.7589
vt 0.3998 0.7589
vt 0.3998 0.7921
vt 0.3950 0.7921
vt 0.3998 0.7947
vt 0.3950 0.7947
vt 0.4072 0.7921
vt 0.4025 0.7921
vt 0.4025 0.7589
vt 0.4072 0.7589
vt 0.3950 0.7562
vt 0.3998 0.7562
vt 0.4099 0.7589
vt 0.4099 0.7921
vt 0.3797 0.7589
vt 0.3845 0.7589
vt 0.3845 0.7921
vt 0.3797 0.7921
vt 0.3845 0.7947
vt 0.3797 0.7947
vt 0.3919 0.7921
vt 0.3871 0.7921
vt 0.3871 0.7589
vt 0.3919 0.7589
vt 0.3797 0.7562
vt 0.3845 0.7562
vt 0.3945 0.7589
vt 0.3945 0.7921
vt 0.3023 0.7581
vt 0.3070 0.7581
vt 0.3070 0.7913
vt 0.3023 0.7913
vt 0.3070 0.7940
vt 0.3023 0.7940
vt 0.3144 0.7913
vt 0.3097 0.7913
vt 0.3097 0.7581
vt 0.3144 0.7581
vt 0.3023 0.7555
vt 0.3070 0.7555
vt 0.3171 0.7581
vt 0.3171 0.7913
vt 0.3111 0.8920
vt 0.3158 0.8920
vt 0.3158 0.9251
vt 0.3111 0.9251
vt 0.3158 0.9278
vt 0.3111 0.9278
vt 0.3232 0.9251
vt 0.3185 0.9251
vt 0.3185 0.8920
vt 0.3232 0.8920
vt 0.3111 0.8893
vt 0.3158 0.8893
vt 0.3259 0.8920
vt 0.3259 0.9251
vt 0.2826 0.9640
vt 0.2688 0.9232
vt 0.2834 0.9181
vt 0.2921 0.9480
vt 0.2996 0.9146
vt 0.2996 0.9380
vt 0.2544 0.7749
vt 0.2544 0.7682
vt 0.2580 0.7682
vt 0.2580 0.7749
vt 0.2770 0.7930
vt 0.2783 0.7878
vt 0.2811 0.7886
vt 0.2785 0.7955
vt 0.3587 0.9611
vt 0.3640 0.9682
vt 0.3575 0.9840
vt 0.3524 0.9768
vt 0.2787 0.7763
vt 0.2771 0.7780
vt 0.2743 0.7762
vt 0.2751 0.7730
vt 0.2566 0.7752
vt 0.2602 0.7752
vt 0.2602 0.7787
vt 0.2566 0.7787
vt 0.2885 0.8569
vt 0.3065 0.8430
vt 0.3118 0.8666
vt 0.2996 0.8666
vt 0.2818 0.8494
vt 0.3033 0.8311
vt 0.2751 0.7980
vt 0.2744 0.7944
vt 0.3036 0.9611
vt 0.3015 0.9803
vt 0.3073 0.9380
vt 0.2831 0.8218
vt 0.2795 0.8218
vt 0.2795 0.8196
vt 0.2831 0.8196
vt 0.3293 0.9611
vt 0.3293 0.9380
vt 0.3293 0.9862
vt 0.2709 0.7947
vt 0.2709 0.7987
vt 0.2795 0.8133
vt 0.2831 0.8133
vt 0.2602 0.7838
vt 0.2566 0.7838
vt 0.2709 0.7755
vt 0.2709 0.7717
vt 0.3293 0.8240
vt 0.3293 0.8427
vt 0.3293 0.8666
vt 0.2544 0.7600
vt 0.2580 0.7600
vt 0.2784 0.7822
vt 0.2812 0.7817
vt 0.2686 0.8804
vt 0.2820 0.8821
vt 0.2996 0.8863
vt 0.2544 0.7543
vt 0.2580 0.7543
vt 0.2680 0.7755
vt 0.2695 0.7717
vt 0.2602 0.7894
vt 0.2566 0.7894
vt 0.3488 0.8427
vt 0.3488 0.8666
vt 0.3437 0.8269
vt 0.2695 0.7987
vt 0.2686 0.7947
vt 0.3452 0.9611
vt 0.3406 0.9852
vt 0.3452 0.9380
vt 0.2795 0.8087
vt 0.2831 0.8087
vt 0.2753 0.7903
vt 0.2741 0.7903
vt 0.2753 0.7869
vt 0.2753 0.7827
vt 0.2753 0.7798
vt 0.2735 0.7798
vt 0.2709 0.7798
vt 0.2680 0.7798
vt 0.2709 0.7903
vt 0.2686 0.7903
vt 0.3622 0.8427
vt 0.3676 0.8375
vt 0.3676 0.8666
vt 0.3622 0.8666
vt 0.3587 0.9380
vt 0.3640 0.9380
vt 0.2653 0.7755
vt 0.2668 0.7741
vt 0.3540 0.8324
vt 0.2653 0.7798
vt 0.2581 0.7933
vt 0.2566 0.7948
vt 0.2668 0.7970
vt 0.2658 0.7947
vt 0.2795 0.8033
vt 0.2810 0.8048
vt 0.2658 0.7903
vt 0.3387 0.9952
vt 0.3293 0.9952
vt 0.3004 0.9908
vt 0.2771 0.9732
vt 0.2598 0.9264
vt 0.2593 0.8792
vt 0.2759 0.8429
vt 0.3004 0.8202
vt 0.3293 0.8115
vt 0.3387 0.8115
vt 0.3575 0.8274
vt 0.4550 0.8932
vt 0.4550 0.8494
vt 0.4804 0.8494
vt 0.4804 0.8932
vt 0.4235 0.8932
vt 0.4235 0.8494
vt 0.4489 0.8494
vt 0.4489 0.8932
vt 0.4550 0.7681
vt 0.4550 0.7621
vt 0.4804 0.7621
vt 0.4804 0.7681
vt 0.4550 0.8993
vt 0.4804 0.8993
vt 0.4235 0.8019
vt 0.4489 0.8019
vt 0.4550 0.8019
vt 0.4804 0.8019
vt 0.4235 0.7681
vt 0.4489 0.7681
vt 0.4159 0.8932
vt 0.4159 0.8494
vt 0.4880 0.8993
vt 0.4880 0.7621
vt 0.4159 0.8019
vt 0.4159 0.7681
vt 0.4348 0.9926
vt 0.4440 0.9926
vt 0.4100 0.9926
vt 0.4208 0.9926
vt 0.4208 0.9298
vt 0.4240 0.9298
vt 0.4240 0.9926
vt 0.4100 0.9958
vt 0.4007 0.9958
vt 0.4154 0.9298
vt 0.4154 0.9926
vt 0.4154 0.9958
vt 0.4293 0.9926
vt 0.4293 0.9298
vt 0.4208 0.9958
vt 0.4208 0.9193
vt 0.4240 0.9193
vt 0.4240 0.9112
vt 0.4293 0.9112
vt 0.4868 0.9910
vt 0.4961 0.9910
vt 0.4620 0.9910
vt 0.4728 0.9910
vt 0.4728 0.9282
vt 0.4760 0.9282
vt 0.4760 0.9910
vt 0.4620 0.9943
vt 0.4527 0.9943
vt 0.4674 0.9282
vt 0.4674 0.9910
vt 0.4674 0.9943
vt 0.4814 0.9910
vt 0.4814 0.9282
vt 0.4728 0.9943
vt 0.4728 0.9178
vt 0.4760 0.9178
vt 0.4760 0.9097
vt 0.4814 0.9097
vn 0.0000 1.0000 0.0000
vn 1.0000 0.0000 0.0000
vn -1.0000 0.0000 0.0000
vn 0.0000 0.0000 -1.0000
vn 0.0000 -0.0000 1.0000
vn 0.0000 -1.0000 -0.0000
vn 0.1860 0.9757 0.1154
vn 0.9656 -0.2032 0.1622
vn -0.1860 -0.9757 -0.1154
vn -0.9656 0.2032 -0.1622
vn -0.1817 -0.0813 0.9800
vn 0.1817 0.0813 -0.9800
vn -0.1564 0.9542 0.2550
vn -0.0545 0.9469 0.3168
vn -0.0423 0.9508 0.3070
vn -0.1472 0.9561 0.2532
vn -0.0301 0.9544 0.2971
vn -0.1380 0.9580 0.2515
vn -0.1395 0.9106 -0.3890
vn -0.0855 0.9030 -0.4210
vn -0.1649 0.9669 -0.1947
vn -0.1880 0.9554 -0.2279
vn 0.1692 0.9537 0.2486
vn 0.2470 0.9645 0.0932
vn 0.2100 0.9763 0.0527
vn 0.1342 0.9712 0.1967
vn 0.2033 0.9322 0.2993
vn 0.2833 0.9497 0.1336
vn -0.2213 0.9705 0.0959
vn -0.2303 0.9672 0.1074
vn -0.2145 0.9731 0.0837
vn 0.9804 0.0000 -0.1968
vn 0.9951 0.0000 -0.0989
vn -0.2215 0.9752 0.0034
vn -0.2078 0.9782 -0.0000
vn -0.2353 0.9719 0.0073
vn 0.2638 0.9645 0.0152
vn 0.2288 0.9734 0.0080
vn 0.1938 0.9810 0.0008
vn 0.0552 0.9374 0.3438
vn 0.0365 0.9503 0.3091
vn 0.0178 0.9616 0.2740
vn 0.2329 0.9529 -0.1943
vn 0.1703 0.9617 -0.2149
vn 0.2841 0.9461 -0.1552
vn -0.2087 0.9611 -0.1808
vn -0.2253 0.9679 -0.1112
vn -0.1833 0.9596 -0.2135
vn 0.1901 0.8956 -0.4022
vn 0.1433 0.8953 -0.4217
vn 0.0414 0.8094 -0.5858
vn 0.0909 0.8580 -0.5055
vn -0.0970 0.8580 -0.5044
vn -0.0426 0.8093 -0.5858
vn 0.2880 0.9145 -0.2843
vn -0.2170 0.9733 -0.0744
vn -0.2363 0.9716 0.0159
vn -0.2333 0.9669 0.1038
vn -0.1652 0.9571 0.2382
vn -0.1651 0.9571 0.2381
vn -0.0564 0.9478 0.3137
vn 0.0727 0.9376 0.3401
vn 0.2138 0.9292 0.3013
vn 0.2791 0.9468 0.1601
vn 0.2644 0.9638 0.0348
vn 0.2643 0.9638 0.0347
vn 0.2742 0.9518 -0.1375
vn 0.2666 0.9293 -0.2556
usemtl lambert4SG
s off
f 77/1/1 78/2/1 79/3/1 80/4/1
f 82/5/1 75/6/1 92/7/1 89/8/1
f 93/9/1 94/10/1 95/11/1 96/12/1
f 75/6/2 82/5/2 79/13/2 78/14/2
f 89/8/3 92/7/3 94/15/3 93/16/3
f 100/17/1 99/18/1 101/19/1 102/20/1
f 98/21/4 103/22/4 101/23/4 99/24/4
f 113/25/4 114/26/4 115/27/4 116/28/4
f 117/29/4 118/30/4 119/31/4 120/32/4
f 103/33/1 98/34/1 116/35/1 115/36/1
f 114/37/1 113/38/1 120/39/1 119/31/1
f 123/40/5 124/41/5 125/42/5 126/43/5
f 126/43/1 125/42/1 127/44/1 128/45/1
f 128/46/4 127/47/4 129/48/4 130/49/4
f 130/50/6 129/51/6 124/41/6 123/40/6
f 124/41/2 129/48/2 127/47/2 125/42/2
f 130/49/3 123/52/3 126/53/3 128/46/3
f 134/54/1 133/55/1 135/56/1 136/57/1
f 132/58/4 137/59/4 135/60/4 133/61/4
f 147/62/4 148/63/4 149/64/4 150/65/4
f 151/66/4 152/67/4 153/68/4 154/69/4
f 137/70/1 132/71/1 150/72/1 149/73/1
f 148/74/1 147/75/1 154/76/1 153/68/1
f 157/77/5 158/78/5 159/79/5 160/80/5
f 160/80/1 159/79/1 161/81/1 162/82/1
f 162/83/4 161/84/4 163/85/4 164/86/4
f 164/87/6 163/88/6 158/78/6 157/77/6
f 158/78/2 163/85/2 161/84/2 159/79/2
f 164/86/3 157/89/3 160/90/3 162/83/3
f 165/91/5 166/92/5 167/93/5 168/94/5
f 168/94/1 167/93/1 169/95/1 170/96/1
f 170/97/4 169/98/4 171/99/4 172/100/4
f 172/101/6 171/102/6 166/92/6 165/91/6
f 166/92/2 171/99/2 169/98/2 167/93/2
f 172/100/3 165/103/3 168/104/3 170/97/3
f 173/105/5 174/106/5 175/107/5 176/108/5
f 176/108/1 175/107/1 177/109/1 178/110/1
f 178/111/4 177/112/4 179/113/4 180/114/4
f 180/115/6 179/116/6 174/106/6 173/105/6
f 174/106/2 179/113/2 177/112/2 175/107/2
f 180/114/3 173/117/3 176/118/3 178/111/3
f 181/119/2 182/120/2 183/121/2 184/122/2
f 184/122/1 183/121/1 185/123/1 186/124/1
f 186/125/3 185/126/3 187/127/3 188/128/3
f 188/129/6 187/130/6 182/120/6 181/119/6
f 182/120/4 187/127/4 185/126/4 183/121/4
f 188/128/5 181/131/5 184/132/5 186/125/5
f 189/133/2 190/134/2 191/135/2 192/136/2
f 192/136/1 191/135/1 193/137/1 194/138/1
f 194/139/3 193/140/3 195/141/3 196/142/3
f 196/143/6 195/144/6 190/134/6 189/133/6
f 190/134/4 195/141/4 193/140/4 191/135/4
f 196/142/5 189/145/5 192/146/5 194/139/5
f 197/147/2 198/148/2 199/149/2 200/150/2
f 200/150/1 199/149/1 201/151/1 202/152/1
f 202/153/3 201/154/3 203/155/3 204/156/3
f 204/157/6 203/158/6 198/148/6 197/147/6
f 198/148/4 203/155/4 201/154/4 199/149/4
f 204/156/5 197/159/5 200/160/5 202/153/5
f 205/161/2 206/162/2 207/163/2 208/164/2
f 208/164/1 207/163/1 209/165/1 210/166/1
f 210/167/3 209/168/3 211/169/3 212/170/3
f 212/171/6 211/172/6 206/162/6 205/161/6
f 206/162/4 211/169/4 209/168/4 207/163/4
f 212/170/5 205/173/5 208/174/5 210/167/5
f 213/175/7 214/176/7 215/177/7 216/178/7
f 216/178/8 215/177/8 217/179/8 218/180/8
f 218/181/9 217/182/9 219/183/9 220/184/9
f 220/185/10 219/186/10 214/176/10 213/175/10
f 214/176/11 219/183/11 217/182/11 215/177/11
f 220/184/12 213/187/12 216/188/12 218/181/12
s 1
f 1/189/13 2/190/14 3/191/15 4/192/16
f 4/192/16 3/191/15 5/193/17 6/194/18
f 6/195/4 5/196/4 7/197/4 8/198/4
f 9/199/6 10/200/6 11/201/6 12/202/6
f 13/203/19 14/204/20 15/205/21 16/206/22
f 17/207/6 18/208/6 19/209/6 20/210/6
f 21/211/3 22/212/3 23/213/3 24/214/3
f 25/215/23 26/216/24 23/217/25 22/218/26
f 25/215/23 27/219/27 28/220/28 26/216/24
f 9/199/6 12/202/6 29/221/6 30/222/6
f 1/189/13 4/192/16 31/223/29 32/224/30
f 33/225/31 31/223/29 4/192/16 6/194/18
f 6/226/32 8/227/32 34/228/33 33/229/33
f 35/230/34 31/223/29 33/225/31 36/231/35
f 32/224/30 31/223/29 35/230/34 37/232/36
f 38/233/6 30/222/6 29/221/6 39/234/6
f 33/229/33 34/228/33 40/235/2 36/236/2
f 24/214/3 23/213/3 41/237/3 42/238/3
f 20/210/6 19/209/6 43/239/6 44/240/6
f 26/216/24 28/220/28 45/241/37 46/242/38
f 26/216/24 46/242/38 41/243/39 23/217/25
f 5/196/4 47/244/4 48/245/4 7/197/4
f 11/201/6 10/200/6 49/246/6 50/247/6
f 3/191/15 2/190/14 51/248/40 52/249/41
f 3/191/15 52/249/41 47/250/42 5/193/17
f 47/244/4 22/251/4 21/252/4 48/245/4
f 50/247/6 49/246/6 18/208/6 17/207/6
f 52/249/41 51/248/40 27/219/27 25/215/23
f 52/249/41 25/215/23 22/218/26 47/250/42
f 44/240/6 43/239/6 53/253/6 54/254/6
f 42/238/3 41/237/3 55/255/3 56/256/3
f 46/242/38 57/257/43 55/258/44 41/243/39
f 46/242/38 45/241/37 58/259/45 57/257/43
f 38/233/6 39/234/6 59/260/6 60/261/6
f 37/232/36 35/230/34 61/262/46 62/263/47
f 61/262/46 35/230/34 36/231/35 63/264/48
f 36/236/2 40/235/2 64/265/2 63/266/2
f 8/267/6 9/199/6 30/222/6 34/268/6
f 8/267/6 7/269/6 10/200/6 9/199/6
f 49/246/6 10/200/6 7/269/6 48/270/6
f 18/208/6 49/246/6 48/270/6 21/271/6
f 19/209/6 18/208/6 21/271/6 24/272/6
f 43/239/6 19/209/6 24/272/6 42/273/6
f 53/253/6 43/239/6 42/273/6 56/274/6
f 40/275/6 38/233/6 60/261/6 64/276/6
f 34/268/6 30/222/6 38/233/6 40/275/6
f 65/277/49 66/278/50 67/279/51 68/280/52
f 14/204/20 13/203/19 69/281/53 70/282/54
f 54/254/6 53/253/6 66/283/6 71/284/6
f 57/257/43 58/259/45 72/285/55 65/277/49
f 53/253/6 56/274/6 67/286/6 66/283/6
f 56/256/3 55/255/3 68/287/3 67/288/3
f 55/258/44 57/257/43 65/277/49 68/280/52
f 60/261/6 59/260/6 15/289/6 14/290/6
f 62/263/47 61/262/46 13/203/19 16/206/22
f 61/262/46 63/264/48 69/281/53 13/203/19
f 63/266/2 64/265/2 70/291/2 69/292/2
f 64/276/6 60/261/6 14/290/6 70/293/6
f 59/294/56 62/263/47 16/206/22 15/205/21
f 39/295/57 37/232/36 62/263/47 59/294/56
f 29/296/58 32/224/30 37/232/36 39/295/57
f 12/297/59 1/189/60 32/224/30 29/296/58
f 12/297/59 11/298/61 2/190/61 1/189/60
f 51/248/62 2/190/61 11/298/61 50/299/62
f 27/219/63 51/248/62 50/299/62 17/300/63
f 28/220/64 27/219/63 17/300/63 20/301/64
f 45/241/65 28/220/64 20/301/64 44/302/66
f 58/259/45 45/241/65 44/302/66 54/303/67
f 72/285/55 58/259/45 54/303/67 71/304/68
f 65/277/49 72/285/55 71/304/68 66/278/50
f 73/305/5 74/306/5 75/307/5 76/308/5
f 81/309/4 82/310/4 83/311/4 84/312/4
f 84/312/6 83/311/6 74/306/6 73/305/6
f 85/313/2 86/314/2 87/315/2 88/316/2
f 84/317/3 73/305/3 76/308/3 81/318/3
f 82/310/4 89/319/4 90/320/4 83/311/4
f 74/306/6 83/311/6 90/320/6 91/321/6
f 75/307/5 74/306/5 91/321/5 92/322/5
f 89/319/4 87/323/4 86/324/4 90/320/4
f 91/321/6 90/320/6 86/324/6 85/313/6
f 92/322/5 91/321/5 85/313/5 88/316/5
f 76/308/5 75/307/5 78/2/5 77/1/5
f 82/310/4 81/309/4 80/325/4 79/326/4
f 81/318/3 76/308/3 77/1/3 80/327/3
f 92/322/5 88/316/5 95/11/5 94/10/5
f 88/316/2 87/315/2 96/328/2 95/11/2
f 87/323/4 89/319/4 93/329/4 96/330/4
f 97/331/2 98/21/2 99/24/2 100/332/2
f 102/20/3 101/19/3 103/33/3 104/333/3
f 105/334/6 106/335/6 107/336/6 108/337/6
f 104/333/5 97/338/5 100/339/5 102/20/5
f 104/333/3 103/33/3 109/340/3 110/341/3
f 110/341/5 111/342/5 97/338/5 104/333/5
f 111/343/2 112/344/2 98/21/2 97/331/2
f 110/341/3 109/340/3 106/335/3 105/334/3
f 105/334/5 108/345/5 111/342/5 110/341/5
f 108/337/2 107/336/2 112/344/2 111/343/2
f 109/340/3 103/33/3 115/36/3 114/37/3
f 98/21/2 112/344/2 113/25/2 116/28/2
f 107/336/6 106/335/6 121/346/6 122/347/6
f 106/335/3 109/340/3 114/37/3 121/346/3
f 112/344/2 107/336/2 122/347/2 113/25/2
f 122/347/6 121/346/6 118/30/6 117/348/6
f 121/346/3 114/37/3 119/31/3 118/30/3
f 113/25/2 122/347/2 117/348/2 120/349/2
f 131/350/2 132/58/2 133/61/2 134/351/2
f 136/57/3 135/56/3 137/70/3 138/352/3
f 139/353/6 140/354/6 141/355/6 142/356/6
f 138/352/5 131/357/5 134/358/5 136/57/5
f 138/352/3 137/70/3 143/359/3 144/360/3
f 144/360/5 145/361/5 131/357/5 138/352/5
f 145/362/2 146/363/2 132/58/2 131/350/2
f 144/360/3 143/359/3 140/354/3 139/353/3
f 139/353/5 142/364/5 145/361/5 144/360/5
f 142/356/2 141/355/2 146/363/2 145/362/2
f 143/359/3 137/70/3 149/73/3 148/74/3
f 132/58/2 146/363/2 147/62/2 150/65/2
f 141/355/6 140/354/6 155/365/6 156/366/6
f 140/354/3 143/359/3 148/74/3 155/365/3
f 146/363/2 141/355/2 156/366/2 147/62/2
f 156/366/6 155/365/6 152/67/6 151/367/6
f 155/365/3 148/74/3 153/68/3 152/67/3
f 147/62/2 156/366/2 151/367/2 154/368/2
