# Blender v2.79 (sub 0) OBJ File: ''
# www.blender.org
mtllib cf_tr_cir.mtl
o Cylinder
v 0.000000 -0.000001 -2.195619
v 0.000000 0.345833 -2.195619
v 0.428344 -0.000001 -2.153431
v 0.428344 0.345833 -2.153431
v 0.840227 -0.000001 -2.028487
v 0.840227 0.345833 -2.028487
v 1.219821 -0.000001 -1.825590
v 1.219821 0.345833 -1.825590
v 1.552537 -0.000001 -1.552537
v 1.552537 0.345833 -1.552537
v 1.825591 -0.000001 -1.219820
v 1.825591 0.345833 -1.219820
v 2.028487 -0.000001 -0.840227
v 2.028487 0.345833 -0.840227
v 2.153431 -0.000001 -0.428344
v 2.153431 0.345833 -0.428344
v 2.195619 -0.000001 -0.000000
v 2.195619 0.345833 -0.000000
v 2.153431 -0.000001 0.428344
v 2.153431 0.345833 0.428344
v 2.028488 -0.000001 0.840227
v 2.028488 0.345833 0.840227
v 1.825591 -0.000001 1.219820
v 1.825591 0.345833 1.219820
v 1.552537 -0.000001 1.552537
v 1.552537 0.345833 1.552537
v 1.219820 -0.000001 1.825591
v 1.219820 0.345833 1.825591
v 0.840227 -0.000001 2.028488
v 0.840227 0.345833 2.028488
v 0.428344 -0.000001 2.153431
v 0.428344 0.345833 2.153431
v -0.000001 -0.000001 2.195619
v -0.000001 0.345833 2.195619
v -0.428345 -0.000001 2.153431
v -0.428345 0.345833 2.153431
v -0.840228 -0.000001 2.028487
v -0.840228 0.345833 2.028487
v -1.219822 -0.000001 1.825590
v -1.219822 0.345833 1.825590
v -1.552538 -0.000001 1.552536
v -1.552538 0.345833 1.552536
v -1.825591 -0.000001 1.219819
v -1.825591 0.345833 1.219819
v -2.028488 -0.000001 0.840225
v -2.028488 0.345833 0.840225
v -2.153431 -0.000001 0.428342
v -2.153431 0.345833 0.428342
v -2.195619 -0.000001 -0.000002
v -2.195619 0.345833 -0.000002
v -2.153430 -0.000001 -0.428346
v -2.153430 0.345833 -0.428346
v -2.028486 -0.000001 -0.840229
v -2.028486 0.345833 -0.840229
v -1.825589 -0.000001 -1.219823
v -1.825589 0.345833 -1.219823
v -1.552535 -0.000001 -1.552539
v -1.552535 0.345833 -1.552539
v -1.219818 -0.000001 -1.825592
v -1.219818 0.345833 -1.825592
v -0.840224 -0.000001 -2.028489
v -0.840224 0.345833 -2.028489
v -0.428341 -0.000001 -2.153431
v -0.428341 0.345833 -2.153431
vt 0.346158 0.850256
vt 0.346420 0.847853
vt 0.348085 0.847865
vt 0.348274 0.850265
vt 0.349714 0.847560
vt 0.350352 0.849875
vt 0.351246 0.846953
vt 0.352314 0.849096
vt 0.352623 0.846068
vt 0.354082 0.847955
vt 0.353792 0.844935
vt 0.355591 0.846493
vt 0.354708 0.843596
vt 0.356779 0.844764
vt 0.355335 0.842102
vt 0.357599 0.842832
vt 0.355651 0.840510
vt 0.358018 0.840774
vt 0.355641 0.838884
vt 0.358019 0.838670
vt 0.355306 0.837286
vt 0.357602 0.836603
vt 0.354660 0.835778
vt 0.356783 0.834654
vt 0.353726 0.834422
vt 0.355595 0.832899
vt 0.352540 0.833267
vt 0.354084 0.831405
vt 0.351152 0.832354
vt 0.352309 0.830228
vt 0.349612 0.831727
vt 0.350337 0.829414
vt 0.347979 0.831409
vt 0.348243 0.828999
vt 0.346315 0.831414
vt 0.346108 0.828999
vt 0.344685 0.831740
vt 0.344016 0.829413
vt 0.343150 0.832370
vt 0.342048 0.830221
vt 0.341770 0.833280
vt 0.340277 0.831392
vt 0.340598 0.834438
vt 0.338772 0.832881
vt 0.339679 0.835793
vt 0.337590 0.834629
vt 0.339049 0.837298
vt 0.336776 0.836572
vt 0.338733 0.838894
vt 0.336365 0.838636
vt 0.338743 0.840518
vt 0.336373 0.840737
vt 0.339078 0.842106
vt 0.336799 0.842794
vt 0.339724 0.843595
vt 0.337626 0.844724
vt 0.340659 0.844925
vt 0.338821 0.846455
vt 0.341845 0.846058
vt 0.340336 0.847922
vt 0.343237 0.846940
vt 0.342112 0.849068
vt 0.344782 0.847547
vt 0.344078 0.849855
vt 0.331555 0.859833
vt 0.304229 0.845226
vt 0.346162 0.832506
vt 0.318835 0.817900
vt 0.323048 0.817062
vt 0.327343 0.817062
vt 0.331555 0.817900
vt 0.335524 0.819543
vt 0.339095 0.821929
vt 0.342132 0.824967
vt 0.344518 0.828538
vt 0.347000 0.836718
vt 0.347000 0.841014
vt 0.346162 0.845226
vt 0.344518 0.849194
vt 0.342132 0.852765
vt 0.339095 0.855803
vt 0.335524 0.858189
vt 0.327343 0.860670
vt 0.323048 0.860670
vt 0.318835 0.859832
vt 0.314867 0.858189
vt 0.311296 0.855803
vt 0.308259 0.852765
vt 0.305872 0.849194
vt 0.303391 0.841013
vt 0.303391 0.836718
vt 0.304229 0.832506
vt 0.305873 0.828538
vt 0.308259 0.824966
vt 0.311296 0.821929
vt 0.314867 0.819543
vn 0.0980 0.0000 -0.9952
vn 0.2903 0.0000 -0.9569
vn 0.4714 0.0000 -0.8819
vn 0.6344 0.0000 -0.7730
vn 0.7730 0.0000 -0.6344
vn 0.8819 0.0000 -0.4714
vn 0.9569 0.0000 -0.2903
vn 0.9952 0.0000 -0.0980
vn 0.9952 0.0000 0.0980
vn 0.9569 0.0000 0.2903
vn 0.8819 0.0000 0.4714
vn 0.7730 0.0000 0.6344
vn 0.6344 0.0000 0.7730
vn 0.4714 0.0000 0.8819
vn 0.2903 0.0000 0.9569
vn 0.0980 0.0000 0.9952
vn -0.0980 0.0000 0.9952
vn -0.2903 0.0000 0.9569
vn -0.4714 0.0000 0.8819
vn -0.6344 0.0000 0.7730
vn -0.7730 0.0000 0.6344
vn -0.8819 0.0000 0.4714
vn -0.9569 0.0000 0.2903
vn -0.9952 0.0000 0.0980
vn -0.9952 0.0000 -0.0980
vn -0.9569 0.0000 -0.2903
vn -0.8819 0.0000 -0.4714
vn -0.7730 0.0000 -0.6344
vn -0.6344 0.0000 -0.7730
vn -0.4714 0.0000 -0.8819
vn 0.0000 1.0000 0.0000
vn -0.2903 0.0000 -0.9569
vn -0.0980 0.0000 -0.9952
vn 0.0000 -1.0000 -0.0000
usemtl small.002
s off
f 1/1/1 2/2/1 4/3/1 3/4/1
f 3/4/2 4/3/2 6/5/2 5/6/2
f 5/6/3 6/5/3 8/7/3 7/8/3
f 7/8/4 8/7/4 10/9/4 9/10/4
f 9/10/5 10/9/5 12/11/5 11/12/5
f 11/12/6 12/11/6 14/13/6 13/14/6
f 13/14/7 14/13/7 16/15/7 15/16/7
f 15/16/8 16/15/8 18/17/8 17/18/8
f 17/18/9 18/17/9 20/19/9 19/20/9
f 19/20/10 20/19/10 22/21/10 21/22/10
f 21/22/11 22/21/11 24/23/11 23/24/11
f 23/24/12 24/23/12 26/25/12 25/26/12
f 25/26/13 26/25/13 28/27/13 27/28/13
f 27/28/14 28/27/14 30/29/14 29/30/14
f 29/30/15 30/29/15 32/31/15 31/32/15
f 31/32/16 32/31/16 34/33/16 33/34/16
f 33/34/17 34/33/17 36/35/17 35/36/17
f 35/36/18 36/35/18 38/37/18 37/38/18
f 37/38/19 38/37/19 40/39/19 39/40/19
f 39/40/20 40/39/20 42/41/20 41/42/20
f 41/42/21 42/41/21 44/43/21 43/44/21
f 43/44/22 44/43/22 46/45/22 45/46/22
f 45/46/23 46/45/23 48/47/23 47/48/23
f 47/48/24 48/47/24 50/49/24 49/50/24
f 49/50/25 50/49/25 52/51/25 51/52/25
f 51/52/26 52/51/26 54/53/26 53/54/26
f 53/54/27 54/53/27 56/55/27 55/56/27
f 55/56/28 56/55/28 58/57/28 57/58/28
f 57/58/29 58/57/29 60/59/29 59/60/29
f 59/60/30 60/59/30 62/61/30 61/62/30
f 38/37/31 22/21/31 54/53/31
f 61/62/32 62/61/32 64/63/32 63/64/32
f 63/64/33 64/63/33 2/2/33 1/1/33
f 31/65/34 47/66/34 15/67/34
f 6/5/31 4/3/31 2/2/31
f 2/2/31 64/63/31 6/5/31
f 62/61/31 60/59/31 58/57/31
f 58/57/31 56/55/31 54/53/31
f 54/53/31 52/51/31 50/49/31
f 50/49/31 48/47/31 54/53/31
f 46/45/31 44/43/31 38/37/31
f 42/41/31 40/39/31 38/37/31
f 38/37/31 36/35/31 34/33/31
f 34/33/31 32/31/31 30/29/31
f 30/29/31 28/27/31 26/25/31
f 26/25/31 24/23/31 22/21/31
f 22/21/31 20/19/31 18/17/31
f 18/17/31 16/15/31 22/21/31
f 14/13/31 12/11/31 10/9/31
f 10/9/31 8/7/31 6/5/31
f 6/5/31 64/63/31 62/61/31
f 62/61/31 58/57/31 6/5/31
f 54/53/31 48/47/31 46/45/31
f 44/43/31 42/41/31 38/37/31
f 38/37/31 34/33/31 22/21/31
f 30/29/31 26/25/31 22/21/31
f 22/21/31 16/15/31 14/13/31
f 14/13/31 10/9/31 22/21/31
f 6/5/31 58/57/31 54/53/31
f 54/53/31 46/45/31 38/37/31
f 34/33/31 30/29/31 22/21/31
f 22/21/31 10/9/31 6/5/31
f 6/5/31 54/53/31 22/21/31
f 63/68/34 1/69/34 3/70/34
f 3/70/34 5/71/34 7/72/34
f 7/72/34 9/73/34 11/74/34
f 11/74/34 13/75/34 7/72/34
f 15/67/34 17/76/34 19/77/34
f 19/77/34 21/78/34 15/67/34
f 23/79/34 25/80/34 31/65/34
f 27/81/34 29/82/34 31/65/34
f 31/65/34 33/83/34 35/84/34
f 35/84/34 37/85/34 39/86/34
f 39/86/34 41/87/34 43/88/34
f 43/88/34 45/89/34 47/66/34
f 47/66/34 49/90/34 51/91/34
f 51/91/34 53/92/34 55/93/34
f 55/93/34 57/94/34 63/68/34
f 59/95/34 61/96/34 63/68/34
f 63/68/34 3/70/34 15/67/34
f 7/72/34 13/75/34 15/67/34
f 15/67/34 21/78/34 23/79/34
f 25/80/34 27/81/34 31/65/34
f 31/65/34 35/84/34 47/66/34
f 39/86/34 43/88/34 47/66/34
f 47/66/34 51/91/34 63/68/34
f 57/94/34 59/95/34 63/68/34
f 3/70/34 7/72/34 15/67/34
f 15/67/34 23/79/34 31/65/34
f 35/84/34 39/86/34 47/66/34
f 51/91/34 55/93/34 63/68/34
f 63/68/34 15/67/34 47/66/34
