# Blender v2.79 (sub 0) OBJ File: ''
# www.blender.org
mtllib cf_b_col.mtl
o 0base_Cube.006
v -5.693069 0.199996 3.688598
v -5.693069 0.345202 3.688598
v -5.693069 0.345207 -3.688598
v -5.693069 0.200001 -3.688598
v 5.693069 0.345204 -3.688599
v 5.693069 0.200001 -3.688598
v 5.693069 0.345202 3.688598
v 5.693069 0.199996 3.688598
v -5.420470 0.316428 -3.688598
v -5.420470 2.589043 -3.688597
v -5.420467 2.589041 3.688600
v -5.420467 0.316426 3.688599
v -5.693067 2.589041 3.688600
v -5.693069 2.589043 -3.688597
v 5.693069 2.589043 -3.688597
v 5.693069 2.617820 -3.415998
v 5.693069 0.345204 -3.415999
v -5.420468 2.617820 -3.415998
v -5.420468 0.345204 -3.415999
v 5.420468 0.316426 3.688598
v 5.420468 2.589041 3.688598
v -5.693069 2.617819 3.415998
v -5.693069 0.345202 3.415998
v 5.420468 2.617819 3.415998
v 5.420468 0.345202 3.415998
v 5.420468 2.589043 -3.688597
v 5.420468 0.316428 -3.688598
v 5.693069 2.589041 3.688598
vt 0.996500 0.875000
vt 0.980500 0.875000
vt 0.980500 0.753500
vt 0.996500 0.753500
vt 0.964600 0.941000
vt 0.948700 0.941000
vt 0.948700 0.753500
vt 0.964600 0.753500
vt 0.996500 0.996500
vt 0.980500 0.996500
vt 0.980500 0.875000
vt 0.996500 0.875000
vt 0.964600 0.753500
vt 0.980500 0.753500
vt 0.980500 0.941000
vt 0.964600 0.941000
vt 0.753500 0.941000
vt 0.753500 0.753500
vt 0.867000 0.753500
vt 0.867000 0.941000
vt 0.867000 0.941000
vt 0.867000 0.753500
vt 0.996500 0.875000
vt 0.980500 0.875000
vt 0.980500 0.753500
vt 0.996500 0.753500
vt 0.964600 0.941000
vt 0.948700 0.941000
vt 0.948700 0.753500
vt 0.964600 0.753500
vt 0.996500 0.996500
vt 0.980500 0.996500
vt 0.980500 0.875000
vt 0.996500 0.875000
vt 0.964600 0.753500
vt 0.980500 0.753500
vt 0.980500 0.941000
vt 0.964600 0.941000
vt 0.753500 0.941000
vt 0.753500 0.753500
vt 0.867000 0.753500
vt 0.867000 0.941000
vt 0.867000 0.941000
vt 0.867000 0.753500
vt 0.980500 0.753500
vt 0.996500 0.753500
vt 0.964600 0.941000
vt 0.948700 0.941000
vt 0.948700 0.753500
vt 0.964600 0.753500
vt 0.996500 0.996500
vt 0.980500 0.996500
vt 0.980500 0.875000
vt 0.996500 0.875000
vt 0.964600 0.753500
vt 0.980500 0.753500
vt 0.753500 0.941000
vt 0.753500 0.753500
vt 0.867000 0.753500
vt 0.867000 0.753500
vt 0.996500 0.875000
vt 0.980500 0.875000
vt 0.980500 0.753500
vt 0.996500 0.753500
vt 0.964600 0.941000
vt 0.948700 0.941000
vt 0.948700 0.753500
vt 0.964600 0.753500
vt 0.996500 0.996500
vt 0.980500 0.996500
vt 0.980500 0.875000
vt 0.996500 0.875000
vt 0.964600 0.753500
vt 0.980500 0.753500
vt 0.980500 0.941000
vt 0.964600 0.941000
vt 0.753500 0.941000
vt 0.753500 0.753500
vt 0.867000 0.753500
vt 0.867000 0.941000
vt 0.867000 0.941000
vt 0.867000 0.753500
vt 0.980500 0.753500
vt 0.996500 0.753500
vt 0.964600 0.941000
vt 0.948700 0.941000
vt 0.948700 0.753500
vt 0.980500 0.996500
vt 0.980500 0.875000
vt 0.980500 0.753500
vt 0.753500 0.941000
vt 0.867000 0.753500
vn -0.5269 -0.6292 0.5714
vn -0.7164 0.0005 0.6977
vn -0.5774 0.5773 -0.5774
vn -0.5268 -0.6292 -0.5714
vn 0.7164 0.0005 -0.6977
vn 0.5268 -0.6292 -0.5714
vn 0.5774 0.5774 0.5774
vn 0.5269 -0.6292 0.5714
vn 0.1559 -0.6487 -0.7449
vn -0.0231 0.6876 -0.7257
vn 0.5773 0.5774 0.5774
vn 0.6666 -0.4401 0.6016
vn -0.5804 0.5601 0.5911
vn -0.5268 -0.6293 0.5714
vn -0.5773 0.5774 -0.5774
vn 0.5804 0.5601 -0.5911
vn 0.5720 0.6097 0.5487
vn 0.5680 -0.5664 0.5971
vn -0.5720 0.6097 0.5487
vn -0.5919 -0.5547 0.5847
vn -0.1559 -0.6487 0.7449
vn 0.0231 0.6876 0.7257
vn -0.5720 0.6097 -0.5487
vn -0.5680 -0.5664 -0.5971
vn 0.5720 0.6097 -0.5487
vn 0.5919 -0.5547 -0.5847
vn -0.5774 0.5774 -0.5773
vn -0.6666 -0.4401 -0.6016
vn 0.5268 -0.6293 -0.5714
vn 0.5268 -0.6293 0.5714
usemtl _door.000
s 1
f 1/1/1 2/2/2 3/3/3 4/4/4
f 4/5/4 3/6/3 5/7/5 6/8/6
f 6/9/6 5/10/5 7/11/7 8/12/8
f 8/13/8 7/14/7 2/15/2 1/16/1
f 4/17/4 6/18/6 8/19/8 1/20/1
f 5/7/5 3/6/3 2/21/2 7/22/7
f 9/23/9 10/24/10 11/25/11 12/26/12
f 12/27/12 11/28/11 13/29/13 1/30/14
f 1/31/14 13/32/13 14/33/15 4/34/4
f 4/35/4 14/36/15 10/37/10 9/38/9
f 12/39/12 1/40/14 4/41/4 9/42/9
f 13/29/13 11/28/11 10/43/10 14/44/15
f 9/23/9 10/24/10 15/45/16 5/46/5
f 5/47/5 15/48/16 16/49/17 17/50/18
f 17/51/18 16/52/17 18/53/19 19/54/20
f 19/55/20 18/56/19 10/37/10 9/38/9
f 5/57/5 17/58/18 19/59/20 9/42/9
f 16/49/17 15/48/16 10/43/10 18/60/19
f 20/61/21 21/62/22 13/63/13 2/64/2
f 2/65/2 13/66/13 22/67/23 23/68/24
f 23/69/24 22/70/23 24/71/25 25/72/26
f 25/73/26 24/74/25 21/75/22 20/76/21
f 2/77/2 23/78/24 25/79/26 20/80/21
f 22/67/23 13/66/13 21/81/22 24/82/25
f 20/61/21 21/62/22 26/83/27 27/84/28
f 27/85/28 26/86/27 15/87/16 6/8/29
f 6/9/29 15/88/16 28/89/7 8/12/30
f 8/13/30 28/90/7 21/75/22 20/76/21
f 27/91/28 6/18/29 8/19/30 20/80/21
f 15/87/16 26/86/27 21/81/22 28/92/7
o 0base.005_Cube.037
v -5.693069 2.589041 3.688598
v -5.693069 2.734247 3.688598
v -5.693069 2.734252 -3.688597
v -5.693069 2.589046 -3.688597
v 5.693069 2.734252 -3.688597
v 5.693069 2.589046 -3.688597
v 5.693069 2.734247 3.688598
v 5.693069 2.589041 3.688598
vt 0.996500 0.875000
vt 0.980500 0.875000
vt 0.980500 0.753500
vt 0.996500 0.753500
vt 0.964600 0.941000
vt 0.948700 0.941000
vt 0.948700 0.753500
vt 0.964600 0.753500
vt 0.996500 0.996500
vt 0.980500 0.996500
vt 0.980500 0.875000
vt 0.996500 0.875000
vt 0.964600 0.753500
vt 0.980500 0.753500
vt 0.980500 0.941000
vt 0.964600 0.941000
vt 0.753500 0.941000
vt 0.753500 0.753500
vt 0.867000 0.753500
vt 0.867000 0.941000
vt 0.867000 0.941000
vt 0.867000 0.753500
vn -0.5774 -0.5774 0.5774
vn -0.5774 0.5774 0.5774
vn -0.5774 0.5774 -0.5774
vn -0.5774 -0.5774 -0.5774
vn 0.5774 0.5774 -0.5774
vn 0.5774 -0.5774 -0.5774
vn 0.5774 0.5774 0.5774
vn 0.5774 -0.5774 0.5774
usemtl _door.001
s 1
f 29/93/31 30/94/32 31/95/33 32/96/34
f 32/97/34 31/98/33 33/99/35 34/100/36
f 34/101/36 33/102/35 35/103/37 36/104/38
f 36/105/38 35/106/37 30/107/32 29/108/31
f 32/109/34 34/110/36 36/111/38 29/112/31
f 33/99/35 31/98/33 30/113/32 35/114/37
