# Blender v2.78 (sub 0) OBJ File: 'cf_b_col.blend'
# www.blender.org
mtllib cf_b_col2.mtl
o 0base_Cube.006
v -5.693069 0.199997 3.688598
v -5.693069 0.345203 3.688598
v -5.693069 0.200000 -3.688598
v -5.693069 0.345206 -3.688598
v 5.693069 0.199997 3.688598
v 5.693069 0.345203 3.688598
v 5.693069 0.200000 -3.688598
v -5.420470 0.316427 -3.688598
v -5.420470 2.589042 -3.688598
v -5.420467 0.316427 3.688599
v -5.420467 2.589042 3.688599
v -5.693069 2.589042 -3.688598
v -5.693067 2.589042 3.688599
v 5.693069 0.345203 -3.688599
v -5.420468 0.345203 -3.415999
v -5.420468 2.617819 -3.415999
v 5.693069 0.345203 -3.415999
v 5.693069 2.617819 -3.415999
v 5.420468 0.345203 3.415998
v 5.420468 2.617819 3.415998
v -5.693069 0.345203 3.415998
v -5.693069 2.617819 3.415998
v 5.420468 0.316427 3.688598
v 5.420468 2.589042 3.688598
v 5.420468 0.316427 -3.688598
v 5.420468 2.589042 -3.688598
v 5.693069 2.589042 3.688598
v 5.693069 2.589042 -3.688598
vt 0.9965 0.8750
vt 0.9805 0.8750
vt 0.9805 0.7535
vt 0.9965 0.7535
vt 0.9646 0.9410
vt 0.9487 0.9410
vt 0.9487 0.7535
vt 0.9646 0.7535
vt 0.9965 0.9965
vt 0.9805 0.9965
vt 0.9805 0.8750
vt 0.9965 0.8750
vt 0.9646 0.7535
vt 0.9805 0.7535
vt 0.9805 0.9410
vt 0.9646 0.9410
vt 0.7535 0.9410
vt 0.7535 0.7535
vt 0.8670 0.7535
vt 0.8670 0.9410
vt 0.8670 0.9410
vt 0.8670 0.7535
vt 0.9965 0.8750
vt 0.9805 0.8750
vt 0.9805 0.7535
vt 0.9965 0.7535
vt 0.9646 0.9410
vt 0.9487 0.9410
vt 0.9487 0.7535
vt 0.9646 0.7535
vt 0.9965 0.9965
vt 0.9805 0.9965
vt 0.9805 0.8750
vt 0.9965 0.8750
vt 0.9646 0.7535
vt 0.9805 0.7535
vt 0.9805 0.9410
vt 0.9646 0.9410
vt 0.7535 0.9410
vt 0.7535 0.7535
vt 0.8670 0.7535
vt 0.8670 0.9410
vt 0.8670 0.9410
vt 0.8670 0.7535
vt 0.9805 0.7535
vt 0.9965 0.7535
vt 0.9646 0.9410
vt 0.9487 0.9410
vt 0.9487 0.7535
vt 0.9646 0.7535
vt 0.9965 0.9965
vt 0.9805 0.9965
vt 0.9805 0.8750
vt 0.9965 0.8750
vt 0.9646 0.7535
vt 0.9805 0.7535
vt 0.7535 0.9410
vt 0.7535 0.7535
vt 0.8670 0.7535
vt 0.8670 0.7535
vt 0.9965 0.8750
vt 0.9805 0.8750
vt 0.9805 0.7535
vt 0.9965 0.7535
vt 0.9646 0.9410
vt 0.9487 0.9410
vt 0.9487 0.7535
vt 0.9646 0.7535
vt 0.9965 0.9965
vt 0.9805 0.9965
vt 0.9805 0.8750
vt 0.9965 0.8750
vt 0.9646 0.7535
vt 0.9805 0.7535
vt 0.9805 0.9410
vt 0.9646 0.9410
vt 0.7535 0.9410
vt 0.7535 0.7535
vt 0.8670 0.7535
vt 0.8670 0.9410
vt 0.8670 0.9410
vt 0.8670 0.7535
vt 0.9805 0.7535
vt 0.9965 0.7535
vt 0.9646 0.9410
vt 0.9487 0.9410
vt 0.9487 0.7535
vt 0.9805 0.9965
vt 0.9805 0.8750
vt 0.9805 0.7535
vt 0.7535 0.9410
vt 0.8670 0.7535
vn -0.5268 -0.6292 0.5713
vn -0.7164 0.0005 0.6977
vn -0.5773 0.5773 -0.5773
vn -0.5268 -0.6292 -0.5714
vn 0.7164 0.0005 -0.6977
vn 0.5268 -0.6292 -0.5714
vn 0.5773 0.5773 0.5773
vn 0.5268 -0.6292 0.5713
vn 0.1559 -0.6487 -0.7449
vn -0.0231 0.6876 -0.7257
vn 0.6666 -0.4401 0.6016
vn -0.5804 0.5601 0.5911
vn 0.5804 0.5601 -0.5911
vn 0.5720 0.6097 0.5487
vn 0.5679 -0.5664 0.5971
vn -0.5720 0.6097 0.5487
vn -0.5919 -0.5547 0.5847
vn -0.1559 -0.6487 0.7449
vn 0.0231 0.6876 0.7257
vn -0.5720 0.6097 -0.5487
vn -0.5679 -0.5664 -0.5971
vn 0.5720 0.6097 -0.5487
vn 0.5919 -0.5547 -0.5847
vn -0.6666 -0.4401 -0.6016
usemtl _door.001
s 1
f 1/1/1 2/2/2 4/3/3 3/4/4
f 3/5/4 4/6/3 14/7/5 7/8/6
f 7/9/6 14/10/5 6/11/7 5/12/8
f 5/13/8 6/14/7 2/15/2 1/16/1
f 3/17/4 7/18/6 5/19/8 1/20/1
f 14/7/5 4/6/3 2/21/2 6/22/7
f 8/23/9 9/24/10 11/25/7 10/26/11
f 10/27/11 11/28/7 13/29/12 1/30/1
f 1/31/1 13/32/12 12/33/3 3/34/4
f 3/35/4 12/36/3 9/37/10 8/38/9
f 10/39/11 1/40/1 3/41/4 8/42/9
f 13/29/12 11/28/7 9/43/10 12/44/3
f 8/23/9 9/24/10 28/45/13 14/46/5
f 14/47/5 28/48/13 18/49/14 17/50/15
f 17/51/15 18/52/14 16/53/16 15/54/17
f 15/55/17 16/56/16 9/37/10 8/38/9
f 14/57/5 17/58/15 15/59/17 8/42/9
f 18/49/14 28/48/13 9/43/10 16/60/16
f 23/61/18 24/62/19 13/63/12 2/64/2
f 2/65/2 13/66/12 22/67/20 21/68/21
f 21/69/21 22/70/20 20/71/22 19/72/23
f 19/73/23 20/74/22 24/75/19 23/76/18
f 2/77/2 21/78/21 19/79/23 23/80/18
f 22/67/20 13/66/12 24/81/19 20/82/22
f 23/61/18 24/62/19 26/83/3 25/84/24
f 25/85/24 26/86/3 28/87/13 7/8/6
f 7/9/6 28/88/13 27/89/7 5/12/8
f 5/13/8 27/90/7 24/75/19 23/76/18
f 25/91/24 7/18/6 5/19/8 23/80/18
f 28/87/13 26/86/3 24/81/19 27/92/7
