# Blender v2.78 (sub 0) OBJ File: 'cf_b3.blend'
# www.blender.org
mtllib cf_r3.mtl
o 0roof_Cube.003
v -6.000000 2.589043 -4.000000
v -6.000000 4.272832 0.000000
v 6.000000 2.589043 4.000000
v 6.000000 4.272832 0.006385
v -6.000000 2.589043 4.000000
v -6.000000 4.484783 0.000000
v 6.000000 4.484783 0.000000
v 6.000000 2.589043 -3.993615
v 6.000000 4.272832 0.006385
v 6.000000 2.589043 4.000000
v 6.000000 2.589043 -3.993615
v 5.494626 4.272832 0.006385
v 5.494626 2.589043 4.000000
v 5.494626 2.589043 -3.993615
v -5.503777 4.272832 0.000000
v -5.503777 2.589043 -4.000000
v -5.503777 2.589043 4.000000
vt 0.6890 0.9542
vt 0.6890 0.8851
vt 0.6918 0.8851
vt 0.6918 0.9542
vt 0.5057 0.9948
vt 0.5058 0.7554
vt 0.7439 0.7566
vt 0.7438 0.9959
vt 0.5074 0.9950
vt 0.5063 0.7571
vt 0.7431 0.7579
vt 0.7441 0.9958
vt 0.6755 0.9608
vt 0.6936 0.9506
vt 0.6958 0.9506
vt 0.6777 0.9710
vt 0.6958 0.9812
vt 0.6754 0.9710
vt 0.6755 0.9404
vt 0.6958 0.9608
vt 0.6890 0.8159
vt 0.6890 0.8851
vt 0.6861 0.8851
vt 0.6861 0.8159
vt 0.6890 0.9542
vt 0.6861 0.9542
vt 0.6890 0.8159
vt 0.6918 0.8159
vt 0.5056 0.2779
vt 0.5056 0.2779
vt 0.5056 0.2779
vt 0.5056 0.2779
vt 0.5056 0.2779
vt 0.5056 0.2779
vt 0.3917 0.8527
vt 0.3711 0.8895
vt 0.3503 0.8528
vt 0.3978 0.8473
vt 0.3710 0.8949
vt 0.3442 0.8473
vn -0.5370 -0.3443 0.7700
vn -0.8057 -0.5923 0.0000
vn -0.6293 -0.7771 0.0000
vn -0.2459 -0.8934 -0.3760
vn -0.5329 -0.3508 -0.7700
vn -0.6222 0.7828 -0.0001
vn 0.6222 0.7829 -0.0001
vn 0.0267 0.8450 0.5341
vn 0.0164 0.5346 0.8449
vn 0.7818 0.0000 0.6235
vn 0.0000 -0.5532 0.8330
vn 0.0000 -0.6778 0.7353
vn 0.6293 -0.7772 -0.0002
vn 0.2459 -0.8934 0.3760
vn 0.0000 -0.8332 0.5529
vn 0.2462 -0.8931 -0.3765
vn -0.2459 -0.8934 0.3760
usemtl _roof
s 1
f 5/1/1 2/2/2 15/3/3 17/4/4
f 1/5/5 6/6/6 7/7/7 8/8/8
f 3/9/9 7/10/7 6/11/6 5/12/1
f 1/13/5 2/14/2 6/15/6
f 4/16/10 8/17/8 7/18/7
f 2/14/2 5/19/1 6/15/6
f 3/20/9 4/16/10 7/18/7
f 11/21/11 9/22/12 12/23/13 14/24/14
f 9/22/12 10/25/15 13/26/16 12/23/13
f 2/2/2 1/27/5 16/28/17 15/3/3
usemtl _roof_NONE
f 8/29/8 4/30/10 9/31/12 11/32/11
f 4/30/10 3/33/9 10/34/15 9/31/12
usemtl _roof_face
f 14/35/14 12/36/13 13/37/16
f 17/38/4 15/39/3 16/40/17
