# Blender v2.78 (sub 0) OBJ File: 'cf_b1.blend'
# www.blender.org
mtllib cf_r1.mtl
o 0roof_Cube.003
v -6.000000 2.589043 -4.000000
v -6.000000 4.272832 0.000000
v 6.000000 2.589043 4.000000
v 6.000000 4.272832 0.006385
v -6.000000 2.589043 4.000000
v -6.000000 4.484783 0.000000
v 6.000000 4.484783 0.000000
v 6.000000 2.589043 -3.993615
v 6.000000 4.272832 0.006385
v 6.000000 2.589043 4.000000
v 6.000000 2.589043 -3.993615
v 5.494626 4.272832 0.006385
v 5.494626 2.589043 4.000000
v 5.494626 2.589043 -3.993615
v -5.503777 4.272832 0.000000
v -5.503777 2.589043 -4.000000
v -5.503777 2.589043 4.000000
vt 0.1915 0.7067
vt 0.1915 0.6344
vt 0.1945 0.6344
vt 0.1945 0.7067
vt 0.0001 0.7490
vt 0.0002 0.4989
vt 0.2489 0.5002
vt 0.2488 0.7502
vt 0.0018 0.7493
vt 0.0007 0.5007
vt 0.2481 0.5016
vt 0.2492 0.7501
vt 0.1774 0.7135
vt 0.1963 0.7029
vt 0.1987 0.7029
vt 0.1798 0.7242
vt 0.1987 0.7348
vt 0.1774 0.7242
vt 0.1774 0.6923
vt 0.1987 0.7136
vt 0.1915 0.5622
vt 0.1915 0.6344
vt 0.1885 0.6344
vt 0.1885 0.5622
vt 0.1915 0.7067
vt 0.1885 0.7067
vt 0.1915 0.5621
vt 0.1945 0.5621
vt 0.0000 0.0000
vt 0.0000 0.0000
vt 0.0000 0.0000
vt 0.0000 0.0000
vt 0.0000 0.0000
vt 0.0000 0.0000
vt 0.2123 0.7815
vt 0.1248 0.9377
vt 0.0368 0.7819
vt 0.2380 0.7587
vt 0.1245 0.9603
vt 0.0109 0.7587
vn -0.5370 -0.3443 0.7700
vn -0.8057 -0.5923 0.0000
vn -0.6293 -0.7771 0.0000
vn -0.2459 -0.8934 -0.3760
vn -0.5329 -0.3508 -0.7700
vn -0.6222 0.7828 -0.0001
vn 0.6222 0.7829 -0.0001
vn 0.0267 0.8450 0.5341
vn 0.0164 0.5346 0.8449
vn 0.7818 0.0000 0.6235
vn 0.0000 -0.5532 0.8330
vn 0.0000 -0.6778 0.7353
vn 0.6293 -0.7772 -0.0002
vn 0.2459 -0.8934 0.3760
vn 0.0000 -0.8332 0.5529
vn 0.2462 -0.8931 -0.3765
vn -0.2459 -0.8934 0.3760
usemtl _roof
s 1
f 5/1/1 2/2/2 15/3/3 17/4/4
f 1/5/5 6/6/6 7/7/7 8/8/8
f 3/9/9 7/10/7 6/11/6 5/12/1
f 1/13/5 2/14/2 6/15/6
f 4/16/10 8/17/8 7/18/7
f 2/14/2 5/19/1 6/15/6
f 3/20/9 4/16/10 7/18/7
f 11/21/11 9/22/12 12/23/13 14/24/14
f 9/22/12 10/25/15 13/26/16 12/23/13
f 2/2/2 1/27/5 16/28/17 15/3/3
usemtl _roof_NONE
f 8/29/8 4/30/10 9/31/12 11/32/11
f 4/30/10 3/33/9 10/34/15 9/31/12
usemtl _roof_face
f 14/35/14 12/36/13 13/37/16
f 17/38/4 15/39/3 16/40/17
