# Blender v2.78 (sub 0) OBJ File: 'cf_b_col.blend'
# www.blender.org
mtllib cf_r_col.mtl
o 0base_Cube.006
v -5.693069 0.199997 3.688598
v -5.693069 0.345203 3.688598
v -5.693069 0.200000 -3.688598
v -5.693069 0.345206 -3.688598
v 5.693069 0.199997 3.688598
v 5.693069 0.345203 3.688598
v 5.693069 0.200000 -3.688598
v 5.693069 0.345206 -3.688598
vt 0.9965 0.8750
vt 0.9805 0.8750
vt 0.9805 0.7535
vt 0.9965 0.7535
vt 0.9646 0.9410
vt 0.9487 0.9410
vt 0.9487 0.7535
vt 0.9646 0.7535
vt 0.9965 0.9965
vt 0.9805 0.9965
vt 0.9805 0.8750
vt 0.9965 0.8750
vt 0.9646 0.7535
vt 0.9805 0.7535
vt 0.9805 0.9410
vt 0.9646 0.9410
vt 0.7535 0.9410
vt 0.7535 0.7535
vt 0.8670 0.7535
vt 0.8670 0.9410
vt 0.8670 0.9410
vt 0.8670 0.7535
vn -0.5773 -0.5773 0.5773
vn -0.5773 0.5773 0.5773
vn -0.5773 0.5773 -0.5773
vn -0.5773 -0.5773 -0.5773
vn 0.5773 0.5773 -0.5773
vn 0.5773 -0.5773 -0.5773
vn 0.5773 0.5773 0.5773
vn 0.5773 -0.5773 0.5773
usemtl _door.001
s 1
f 1/1/1 2/2/2 4/3/3 3/4/4
f 3/5/4 4/6/3 8/7/5 7/8/6
f 7/9/6 8/10/5 6/11/7 5/12/8
f 5/13/8 6/14/7 2/15/2 1/16/1
f 3/17/4 7/18/6 5/19/8 1/20/1
f 8/7/5 4/6/3 2/21/2 6/22/7
o 0base.004_Cube.036
v -5.420470 0.316427 -3.688598
v -5.420470 2.589042 -3.688598
v -5.420467 0.316427 3.688599
v -5.420467 2.589042 3.688599
v -5.693070 0.316427 -3.688598
v -5.693070 2.589042 -3.688598
v -5.693067 0.316427 3.688599
v -5.693067 2.589042 3.688599
vt 0.9965 0.8750
vt 0.9805 0.8750
vt 0.9805 0.7535
vt 0.9965 0.7535
vt 0.9646 0.9410
vt 0.9487 0.9410
vt 0.9487 0.7535
vt 0.9646 0.7535
vt 0.9965 0.9965
vt 0.9805 0.9965
vt 0.9805 0.8750
vt 0.9965 0.8750
vt 0.9646 0.7535
vt 0.9805 0.7535
vt 0.9805 0.9410
vt 0.9646 0.9410
vt 0.7535 0.9410
vt 0.7535 0.7535
vt 0.8670 0.7535
vt 0.8670 0.9410
vt 0.8670 0.9410
vt 0.8670 0.7535
vn 0.5773 -0.5773 -0.5773
vn 0.5773 0.5773 -0.5773
vn 0.5773 0.5773 0.5773
vn 0.5773 -0.5773 0.5773
vn -0.5773 0.5773 0.5773
vn -0.5773 -0.5773 0.5773
vn -0.5773 0.5773 -0.5773
vn -0.5773 -0.5773 -0.5773
usemtl _door.001
s 1
f 9/23/9 10/24/10 12/25/11 11/26/12
f 11/27/12 12/28/11 16/29/13 15/30/14
f 15/31/14 16/32/13 14/33/15 13/34/16
f 13/35/16 14/36/15 10/37/10 9/38/9
f 11/39/12 15/40/14 13/41/16 9/42/9
f 16/29/13 12/28/11 10/43/10 14/44/15
o 0base.003_Cube.035
v -5.420468 0.345203 -3.688600
v -5.420468 2.617819 -3.688600
v 5.693069 0.345203 -3.688598
v 5.693069 2.617819 -3.688598
v -5.420468 0.345203 -3.416000
v -5.420468 2.617819 -3.416000
v 5.693069 0.345203 -3.415998
v 5.693069 2.617819 -3.415998
vt 0.9965 0.8750
vt 0.9805 0.8750
vt 0.9805 0.7535
vt 0.9965 0.7535
vt 0.9646 0.9410
vt 0.9487 0.9410
vt 0.9487 0.7535
vt 0.9646 0.7535
vt 0.9965 0.9965
vt 0.9805 0.9965
vt 0.9805 0.8750
vt 0.9965 0.8750
vt 0.9646 0.7535
vt 0.9805 0.7535
vt 0.9805 0.9410
vt 0.9646 0.9410
vt 0.7535 0.9410
vt 0.7535 0.7535
vt 0.8670 0.7535
vt 0.8670 0.9410
vt 0.8670 0.9410
vt 0.8670 0.7535
vn -0.5773 -0.5773 -0.5773
vn -0.5773 0.5773 -0.5773
vn 0.5773 0.5773 -0.5773
vn 0.5773 -0.5773 -0.5773
vn 0.5773 0.5773 0.5773
vn 0.5773 -0.5773 0.5773
vn -0.5773 0.5773 0.5773
vn -0.5773 -0.5773 0.5773
usemtl _door.001
s 1
f 17/45/17 18/46/18 20/47/19 19/48/20
f 19/49/20 20/50/19 24/51/21 23/52/22
f 23/53/22 24/54/21 22/55/23 21/56/24
f 21/57/24 22/58/23 18/59/18 17/60/17
f 19/61/20 23/62/22 21/63/24 17/64/17
f 24/51/21 20/50/19 18/65/18 22/66/23
o 0base.002_Cube.034
v 5.420468 0.345203 3.688597
v 5.420468 2.617819 3.688597
v -5.693069 0.345203 3.688599
v -5.693069 2.617819 3.688599
v 5.420468 0.345203 3.415997
v 5.420468 2.617819 3.415997
v -5.693069 0.345203 3.415999
v -5.693069 2.617819 3.415999
vt 0.9965 0.8750
vt 0.9805 0.8750
vt 0.9805 0.7535
vt 0.9965 0.7535
vt 0.9646 0.9410
vt 0.9487 0.9410
vt 0.9487 0.7535
vt 0.9646 0.7535
vt 0.9965 0.9965
vt 0.9805 0.9965
vt 0.9805 0.8750
vt 0.9965 0.8750
vt 0.9646 0.7535
vt 0.9805 0.7535
vt 0.9805 0.9410
vt 0.9646 0.9410
vt 0.7535 0.9410
vt 0.7535 0.7535
vt 0.8670 0.7535
vt 0.8670 0.9410
vt 0.8670 0.9410
vt 0.8670 0.7535
vn 0.5773 -0.5773 0.5773
vn 0.5773 0.5773 0.5773
vn -0.5773 0.5773 0.5773
vn -0.5773 -0.5773 0.5773
vn -0.5773 0.5773 -0.5773
vn -0.5773 -0.5773 -0.5773
vn 0.5773 0.5773 -0.5773
vn 0.5773 -0.5773 -0.5773
usemtl _door.001
s 1
f 25/67/25 26/68/26 28/69/27 27/70/28
f 27/71/28 28/72/27 32/73/29 31/74/30
f 31/75/30 32/76/29 30/77/31 29/78/32
f 29/79/32 30/80/31 26/81/26 25/82/25
f 27/83/28 31/84/30 29/85/32 25/86/25
f 32/73/29 28/72/27 26/87/26 30/88/31
o 0base.001_Cube.033
v 5.420468 0.316427 3.688598
v 5.420468 2.589042 3.688598
v 5.420468 0.316427 -3.688598
v 5.420468 2.589042 -3.688598
v 5.693069 0.316427 3.688598
v 5.693069 2.589042 3.688598
v 5.693069 0.316427 -3.688598
v 5.693069 2.589042 -3.688598
vt 0.9965 0.8750
vt 0.9805 0.8750
vt 0.9805 0.7535
vt 0.9965 0.7535
vt 0.9646 0.9410
vt 0.9487 0.9410
vt 0.9487 0.7535
vt 0.9646 0.7535
vt 0.9965 0.9965
vt 0.9805 0.9965
vt 0.9805 0.8750
vt 0.9965 0.8750
vt 0.9646 0.7535
vt 0.9805 0.7535
vt 0.9805 0.9410
vt 0.9646 0.9410
vt 0.7535 0.9410
vt 0.7535 0.7535
vt 0.8670 0.7535
vt 0.8670 0.9410
vt 0.8670 0.9410
vt 0.8670 0.7535
vn -0.5773 -0.5773 0.5773
vn -0.5773 0.5773 0.5773
vn -0.5773 0.5773 -0.5773
vn -0.5773 -0.5773 -0.5773
vn 0.5773 0.5773 -0.5773
vn 0.5773 -0.5773 -0.5773
vn 0.5773 0.5773 0.5773
vn 0.5773 -0.5773 0.5773
usemtl _door.001
s 1
f 33/89/33 34/90/34 36/91/35 35/92/36
f 35/93/36 36/94/35 40/95/37 39/96/38
f 39/97/38 40/98/37 38/99/39 37/100/40
f 37/101/40 38/102/39 34/103/34 33/104/33
f 35/105/36 39/106/38 37/107/40 33/108/33
f 40/95/37 36/94/35 34/109/34 38/110/39
