# Blender v2.78 (sub 0) OBJ File: 'cf_terrains.blend'
# www.blender.org
mtllib cf_ta_field4.mtl
o field_field_Cube.001
v 4.923447 0.399997 10.072051
v 4.923447 -0.000003 10.072051
v 4.923447 0.000003 -10.072051
v 4.923447 0.400003 -10.072051
v -4.923447 0.000003 -10.072051
v -4.923447 0.400003 -10.072051
v -4.923447 -0.000003 10.072051
v -4.923447 0.399997 10.072051
v 4.601846 -0.000003 9.730200
v 4.601846 0.000003 -9.730200
v -4.601846 0.000003 -9.730200
v -4.601846 -0.000003 9.730200
v -4.601846 -0.000003 9.730200
v -4.601846 0.000003 -9.730200
v -4.601846 0.200003 -9.730200
v 4.601846 0.200003 -9.730200
v 4.601846 0.199997 9.730200
v 4.601846 0.000003 -9.730200
v 4.601846 -0.000003 9.730200
v -4.601846 0.199997 9.730200
vt 0.2191 0.1560
vt 0.2191 0.2391
vt 0.2279 0.2391
vt 0.4714 0.0208
vt 0.4714 0.0068
vt 0.2885 0.0068
vt 0.2102 0.1560
vt 0.2102 0.2391
vt 0.2191 0.2391
vt 0.2885 0.2179
vt 0.2885 0.2320
vt 0.4714 0.2320
vt 0.3002 0.2471
vt 0.4423 0.2471
vt 0.4423 0.0059
vt 0.1067 0.1932
vt 0.1197 0.1932
vt 0.1199 0.1927
vt 0.1197 0.2057
vt 0.1199 0.2062
vt 0.1067 0.2057
vt 0.1065 0.2062
vt 0.1065 0.1927
vt 0.1063 0.2326
vt 0.1065 0.1927
vt 0.0870 0.2123
vt 0.0865 0.2128
vt 0.0870 0.2133
vt 0.0678 0.1931
vt 0.0678 0.2327
vt 0.0876 0.2128
vt 0.2279 0.1560
vt 0.2885 0.0208
vt 0.2191 0.1560
vt 0.4714 0.2179
vt 0.3002 0.0059
vt 0.0000 0.0000
vt 0.0000 0.0000
vt 0.0000 0.0000
vt 0.0000 0.0000
vt 0.0000 0.0000
vt 0.0000 0.0000
vt 0.0000 0.0000
vt 0.0000 0.0000
vn 0.5774 0.5774 0.5774
vn 0.5774 -0.5773 0.5774
vn 0.5774 -0.5773 -0.5774
vn 0.5774 0.5774 -0.5774
vn -0.5774 -0.5773 -0.5774
vn -0.5774 0.5774 -0.5774
vn -0.5774 -0.5774 0.5774
vn -0.5774 0.5774 0.5774
vn 0.0000 -0.8321 0.5547
vn 0.7071 0.0000 0.7071
vn 0.3162 0.0000 0.9487
vn 0.5774 -0.5774 0.5774
vn -0.5774 -0.5774 0.5773
vn -0.5774 -0.5774 -0.5774
vn -0.3162 0.0000 0.9487
vn -0.7071 0.0000 0.7071
vn 0.5774 -0.5774 -0.5773
usemtl terrain.001
s 1
f 1/1/1 2/2/2 3/3/3
f 4/4/4 3/5/3 5/6/5
f 6/7/6 5/8/5 7/9/7
f 8/10/8 7/11/7 2/12/2
f 8/13/8 1/14/1 4/15/4
f 9/16/9 10/17/9 3/18/3
f 10/17/9 11/19/9 5/20/5
f 11/19/9 12/21/9 7/22/7
f 12/21/9 9/16/9 2/23/2
f 13/24/10 14/25/11 15/26/12
f 15/26/12 16/27/13 17/28/14
f 18/29/15 19/30/16 17/28/14
f 19/30/16 13/24/10 20/31/17
f 14/25/11 18/29/15 16/27/13
f 1/1/1 3/3/3 4/32/4
f 4/4/4 5/6/5 6/33/6
f 6/7/6 7/9/7 8/34/8
f 8/10/8 2/12/2 1/35/1
f 8/13/8 4/15/4 6/36/6
f 9/16/9 3/18/3 2/23/2
f 10/17/9 5/20/5 3/18/3
f 11/19/9 7/22/7 5/20/5
f 12/21/9 2/23/2 7/22/7
f 13/24/10 15/26/12 20/31/17
f 15/26/12 17/28/14 20/31/17
f 18/29/15 17/28/14 16/27/13
f 19/30/16 20/31/17 17/28/14
f 14/25/11 16/27/13 15/26/12
usemtl terrain_NONE
f 12/37/9 13/38/10 19/39/16
f 10/40/9 18/41/15 14/42/11
f 11/43/9 14/42/11 13/38/10
f 9/44/9 19/39/16 18/41/15
f 12/37/9 19/39/16 9/44/9
f 10/40/9 14/42/11 11/43/9
f 11/43/9 13/38/10 12/37/9
f 9/44/9 18/41/15 10/40/9
o field_parts.009_field_Cube.011
v -4.000004 3.373331 -8.483574
v -4.000004 0.373331 -8.483573
v -3.999997 3.373331 8.349758
v -3.999999 3.373331 4.983092
v -4.000000 3.373331 1.616426
v -4.000001 3.373331 -1.750241
v -4.000003 3.373331 -5.116907
v -4.000002 0.373331 -5.116906
v -4.000001 0.373331 -1.750240
v -4.000000 0.373331 1.616426
v -3.999999 0.373331 4.983093
v -3.999997 0.373331 8.349760
vt 0.7522 0.2478
vt 0.7522 -0.0009
vt 0.9991 -0.0009
vt 0.9991 0.2478
vt 0.7522 0.2478
vt 0.7522 -0.0009
vt 0.9991 -0.0009
vt 0.9991 0.2478
vt 0.7522 0.2478
vt 0.7522 -0.0009
vt 0.9991 -0.0009
vt 0.9991 0.2478
vt 0.7522 0.2478
vt 0.7522 -0.0009
vt 0.9991 -0.0009
vt 0.9991 0.2478
vt 0.7522 0.2478
vt 0.7522 -0.0009
vt 0.9991 -0.0009
vt 0.9991 0.2478
vn -1.0000 -0.0000 0.0000
usemtl terrain
s off
f 21/45/18 22/46/18 28/47/18 27/48/18
f 27/49/18 28/50/18 29/51/18 26/52/18
f 26/53/18 29/54/18 30/55/18 25/56/18
f 25/57/18 30/58/18 31/59/18 24/60/18
f 24/61/18 31/62/18 32/63/18 23/64/18
o field_parts.008_field_Cube.010
v -2.000004 3.373331 -10.100000
v -2.000004 0.373331 -10.099999
v -1.999996 3.373331 10.099998
v -1.999996 0.373331 10.099999
v -1.999997 3.373331 6.733332
v -1.999999 3.373331 3.366666
v -2.000000 3.373331 -0.000001
v -2.000001 3.373331 -3.366667
v -2.000003 3.373331 -6.733334
v -2.000003 0.373331 -6.733333
v -2.000001 0.373331 -3.366666
v -2.000000 0.373331 0.000000
v -1.999999 0.373331 3.366667
v -1.999997 0.373331 6.733333
vt 0.7522 0.2478
vt 0.7522 -0.0009
vt 0.9991 -0.0009
vt 0.9991 0.2478
vt 0.7522 0.2478
vt 0.7522 -0.0009
vt 0.9991 -0.0009
vt 0.9991 0.2478
vt 0.7522 0.2478
vt 0.7522 -0.0009
vt 0.9991 -0.0009
vt 0.9991 0.2478
vt 0.7522 0.2478
vt 0.7522 -0.0009
vt 0.9991 -0.0009
vt 0.9991 0.2478
vt 0.7522 0.2478
vt 0.7522 -0.0009
vt 0.9991 -0.0009
vt 0.9991 0.2478
vt 0.7522 0.2478
vt 0.7522 -0.0009
vt 0.9991 -0.0009
vt 0.9991 0.2478
vn -1.0000 -0.0000 0.0000
usemtl terrain
s off
f 37/65/19 46/66/19 36/67/19 35/68/19
f 33/69/19 34/70/19 42/71/19 41/72/19
f 41/73/19 42/74/19 43/75/19 40/76/19
f 40/77/19 43/78/19 44/79/19 39/80/19
f 39/81/19 44/82/19 45/83/19 38/84/19
f 38/85/19 45/86/19 46/87/19 37/88/19
o field_parts.007_field_Cube.009
v -0.000004 3.373331 -8.483574
v -0.000004 0.373331 -8.483573
v 0.000003 3.373331 8.349758
v 0.000001 3.373331 4.983092
v -0.000000 3.373331 1.616426
v -0.000001 3.373331 -1.750241
v -0.000003 3.373331 -5.116907
v -0.000003 0.373331 -5.116906
v -0.000001 0.373331 -1.750240
v 0.000000 0.373331 1.616426
v 0.000001 0.373331 4.983093
v 0.000003 0.373331 8.349760
vt 0.7522 0.2478
vt 0.7522 -0.0009
vt 0.9991 -0.0009
vt 0.9991 0.2478
vt 0.7522 0.2478
vt 0.7522 -0.0009
vt 0.9991 -0.0009
vt 0.9991 0.2478
vt 0.7522 0.2478
vt 0.7522 -0.0009
vt 0.9991 -0.0009
vt 0.9991 0.2478
vt 0.7522 0.2478
vt 0.7522 -0.0009
vt 0.9991 -0.0009
vt 0.9991 0.2478
vt 0.7522 0.2478
vt 0.7522 -0.0009
vt 0.9991 -0.0009
vt 0.9991 0.2478
vn -1.0000 -0.0000 0.0000
usemtl terrain
s off
f 47/89/20 48/90/20 54/91/20 53/92/20
f 53/93/20 54/94/20 55/95/20 52/96/20
f 52/97/20 55/98/20 56/99/20 51/100/20
f 51/101/20 56/102/20 57/103/20 50/104/20
f 50/105/20 57/106/20 58/107/20 49/108/20
o field_parts.006_field_Cube.008
v 3.999996 3.373331 -8.483574
v 3.999996 0.373331 -8.483573
v 4.000002 3.373331 8.349758
v 4.000001 3.373331 4.983092
v 4.000000 3.373331 1.616426
v 3.999999 3.373331 -1.750241
v 3.999997 3.373331 -5.116907
v 3.999997 0.373331 -5.116906
v 3.999999 0.373331 -1.750240
v 4.000000 0.373331 1.616426
v 4.000001 0.373331 4.983093
v 4.000002 0.373331 8.349760
vt 0.7522 0.2478
vt 0.7522 -0.0009
vt 0.9991 -0.0009
vt 0.9991 0.2478
vt 0.7522 0.2478
vt 0.7522 -0.0009
vt 0.9991 -0.0009
vt 0.9991 0.2478
vt 0.7522 0.2478
vt 0.7522 -0.0009
vt 0.9991 -0.0009
vt 0.9991 0.2478
vt 0.7522 0.2478
vt 0.7522 -0.0009
vt 0.9991 -0.0009
vt 0.9991 0.2478
vt 0.7522 0.2478
vt 0.7522 -0.0009
vt 0.9991 -0.0009
vt 0.9991 0.2478
vn -1.0000 -0.0000 0.0000
usemtl terrain
s off
f 59/109/21 60/110/21 66/111/21 65/112/21
f 65/113/21 66/114/21 67/115/21 64/116/21
f 64/117/21 67/118/21 68/119/21 63/120/21
f 63/121/21 68/122/21 69/123/21 62/124/21
f 62/125/21 69/126/21 70/127/21 61/128/21
o field_parts.005_field_Cube.007
v 1.999996 3.373331 -10.100000
v 1.999996 0.373331 -10.099999
v 2.000004 3.373331 10.099998
v 2.000004 0.373331 10.099999
v 2.000003 3.373331 6.733332
v 2.000001 3.373331 3.366666
v 2.000000 3.373331 -0.000001
v 1.999999 3.373331 -3.366667
v 1.999997 3.373331 -6.733334
v 1.999997 0.373331 -6.733333
v 1.999999 0.373331 -3.366666
v 2.000000 0.373331 0.000000
v 2.000001 0.373331 3.366667
v 2.000003 0.373331 6.733333
vt 0.7522 0.2478
vt 0.7522 -0.0009
vt 0.9991 -0.0009
vt 0.9991 0.2478
vt 0.7522 0.2478
vt 0.7522 -0.0009
vt 0.9991 -0.0009
vt 0.9991 0.2478
vt 0.7522 0.2478
vt 0.7522 -0.0009
vt 0.9991 -0.0009
vt 0.9991 0.2478
vt 0.7522 0.2478
vt 0.7522 -0.0009
vt 0.9991 -0.0009
vt 0.9991 0.2478
vt 0.7522 0.2478
vt 0.7522 -0.0009
vt 0.9991 -0.0009
vt 0.9991 0.2478
vt 0.7522 0.2478
vt 0.7522 -0.0009
vt 0.9991 -0.0009
vt 0.9991 0.2478
vn -1.0000 0.0000 0.0000
usemtl terrain
s off
f 75/129/22 84/130/22 74/131/22 73/132/22
f 71/133/22 72/134/22 80/135/22 79/136/22
f 79/137/22 80/138/22 81/139/22 78/140/22
f 78/141/22 81/142/22 82/143/22 77/144/22
f 77/145/22 82/146/22 83/147/22 76/148/22
f 76/149/22 83/150/22 84/151/22 75/152/22
o field_parts.004_field_Cube.005
v 2.000000 3.373331 10.100000
v 2.000000 0.373331 10.099999
v 2.000000 3.373331 -10.099998
v 2.000000 0.373331 -10.099999
v 2.000000 3.373331 -6.733332
v 2.000000 3.373331 -3.366666
v 2.000000 3.373331 0.000001
v 2.000000 3.373331 3.366667
v 2.000000 3.373331 6.733334
v 2.000000 0.373331 6.733333
v 2.000000 0.373331 3.366666
v 2.000000 0.373331 -0.000000
v 2.000000 0.373331 -3.366667
v 2.000000 0.373331 -6.733333
vt 0.7522 0.2478
vt 0.7522 -0.0009
vt 0.9991 -0.0009
vt 0.9991 0.2478
vt 0.7522 0.2478
vt 0.7522 -0.0009
vt 0.9991 -0.0009
vt 0.9991 0.2478
vt 0.7522 0.2478
vt 0.7522 -0.0009
vt 0.9991 -0.0009
vt 0.9991 0.2478
vt 0.7522 0.2478
vt 0.7522 -0.0009
vt 0.9991 -0.0009
vt 0.9991 0.2478
vt 0.7522 0.2478
vt 0.7522 -0.0009
vt 0.9991 -0.0009
vt 0.9991 0.2478
vt 0.7522 0.2478
vt 0.7522 -0.0009
vt 0.9991 -0.0009
vt 0.9991 0.2478
vn 1.0000 0.0000 0.0000
usemtl terrain
s off
f 89/153/23 98/154/23 88/155/23 87/156/23
f 85/157/23 86/158/23 94/159/23 93/160/23
f 93/161/23 94/162/23 95/163/23 92/164/23
f 92/165/23 95/166/23 96/167/23 91/168/23
f 91/169/23 96/170/23 97/171/23 90/172/23
f 90/173/23 97/174/23 98/175/23 89/176/23
o field_parts.003_field_Cube.004
v 4.000000 3.373331 -8.483572
v 4.000000 0.373331 -8.483573
v 4.000000 3.373331 -5.116906
v 4.000000 3.373331 -1.750239
v 4.000000 3.373331 1.616427
v 4.000000 3.373331 4.983094
v 4.000000 3.373331 8.349760
v 4.000000 0.373331 8.349759
v 4.000000 0.373331 4.983093
v 4.000000 0.373331 1.616426
v 4.000000 0.373331 -1.750240
v 4.000000 0.373331 -5.116907
vt 0.7522 0.2478
vt 0.7522 -0.0009
vt 0.9991 -0.0009
vt 0.9991 0.2478
vt 0.7522 0.2478
vt 0.7522 -0.0009
vt 0.9991 -0.0009
vt 0.9991 0.2478
vt 0.7522 0.2478
vt 0.7522 -0.0009
vt 0.9991 -0.0009
vt 0.9991 0.2478
vt 0.7522 0.2478
vt 0.7522 -0.0009
vt 0.9991 -0.0009
vt 0.9991 0.2478
vt 0.7522 0.2478
vt 0.7522 -0.0009
vt 0.9991 -0.0009
vt 0.9991 0.2478
vn 1.0000 0.0000 0.0000
usemtl terrain
s off
f 101/177/24 110/178/24 100/179/24 99/180/24
f 105/181/24 106/182/24 107/183/24 104/184/24
f 104/185/24 107/186/24 108/187/24 103/188/24
f 103/189/24 108/190/24 109/191/24 102/192/24
f 102/193/24 109/194/24 110/195/24 101/196/24
o field_parts.002_field_Cube.003
v 0.000000 3.373331 -8.483572
v 0.000000 0.373331 -8.483573
v 0.000000 3.373331 -5.116906
v 0.000000 3.373331 -1.750239
v 0.000000 3.373331 1.616427
v 0.000000 3.373331 4.983094
v 0.000000 3.373331 8.349760
v 0.000000 0.373331 8.349759
v 0.000000 0.373331 4.983093
v 0.000000 0.373331 1.616426
v 0.000000 0.373331 -1.750240
v 0.000000 0.373331 -5.116907
vt 0.7522 0.2478
vt 0.7522 -0.0009
vt 0.9991 -0.0009
vt 0.9991 0.2478
vt 0.7522 0.2478
vt 0.7522 -0.0009
vt 0.9991 -0.0009
vt 0.9991 0.2478
vt 0.7522 0.2478
vt 0.7522 -0.0009
vt 0.9991 -0.0009
vt 0.9991 0.2478
vt 0.7522 0.2478
vt 0.7522 -0.0009
vt 0.9991 -0.0009
vt 0.9991 0.2478
vt 0.7522 0.2478
vt 0.7522 -0.0009
vt 0.9991 -0.0009
vt 0.9991 0.2478
vn 1.0000 -0.0000 0.0000
usemtl terrain
s off
f 113/197/25 122/198/25 112/199/25 111/200/25
f 117/201/25 118/202/25 119/203/25 116/204/25
f 116/205/25 119/206/25 120/207/25 115/208/25
f 115/209/25 120/210/25 121/211/25 114/212/25
f 114/213/25 121/214/25 122/215/25 113/216/25
o field_parts.001_field_Cube.002
v -2.000000 3.373331 10.100000
v -2.000000 0.373331 10.099999
v -2.000000 3.373331 -10.099998
v -2.000000 0.373331 -10.099999
v -2.000000 3.373331 -6.733332
v -2.000000 3.373331 -3.366666
v -2.000000 3.373331 0.000001
v -2.000000 3.373331 3.366667
v -2.000000 3.373331 6.733334
v -2.000000 0.373331 6.733333
v -2.000000 0.373331 3.366666
v -2.000000 0.373331 -0.000000
v -2.000000 0.373331 -3.366667
v -2.000000 0.373331 -6.733333
vt 0.7522 0.2478
vt 0.7522 -0.0009
vt 0.9991 -0.0009
vt 0.9991 0.2478
vt 0.7522 0.2478
vt 0.7522 -0.0009
vt 0.9991 -0.0009
vt 0.9991 0.2478
vt 0.7522 0.2478
vt 0.7522 -0.0009
vt 0.9991 -0.0009
vt 0.9991 0.2478
vt 0.7522 0.2478
vt 0.7522 -0.0009
vt 0.9991 -0.0009
vt 0.9991 0.2478
vt 0.7522 0.2478
vt 0.7522 -0.0009
vt 0.9991 -0.0009
vt 0.9991 0.2478
vt 0.7522 0.2478
vt 0.7522 -0.0009
vt 0.9991 -0.0009
vt 0.9991 0.2478
vn 1.0000 -0.0000 0.0000
usemtl terrain
s off
f 127/217/26 136/218/26 126/219/26 125/220/26
f 123/221/26 124/222/26 132/223/26 131/224/26
f 131/225/26 132/226/26 133/227/26 130/228/26
f 130/229/26 133/230/26 134/231/26 129/232/26
f 129/233/26 134/234/26 135/235/26 128/236/26
f 128/237/26 135/238/26 136/239/26 127/240/26
o field_parts_field_Cube.000
v -4.000000 3.373331 -8.483572
v -4.000000 0.373331 -8.483573
v -4.000000 3.373331 -5.116906
v -4.000000 3.373331 -1.750239
v -4.000000 3.373331 1.616427
v -4.000000 3.373331 4.983094
v -4.000000 3.373331 8.349760
v -4.000000 0.373331 8.349759
v -4.000000 0.373331 4.983093
v -4.000000 0.373331 1.616426
v -4.000000 0.373331 -1.750240
v -4.000000 0.373331 -5.116907
vt 0.7522 0.2478
vt 0.7522 -0.0009
vt 0.9991 -0.0009
vt 0.9991 0.2478
vt 0.7522 0.2478
vt 0.7522 -0.0009
vt 0.9991 -0.0009
vt 0.9991 0.2478
vt 0.7522 0.2478
vt 0.7522 -0.0009
vt 0.9991 -0.0009
vt 0.9991 0.2478
vt 0.7522 0.2478
vt 0.7522 -0.0009
vt 0.9991 -0.0009
vt 0.9991 0.2478
vt 0.7522 0.2478
vt 0.7522 -0.0009
vt 0.9991 -0.0009
vt 0.9991 0.2478
vn 1.0000 0.0000 0.0000
usemtl terrain
s off
f 139/241/27 148/242/27 138/243/27 137/244/27
f 143/245/27 144/246/27 145/247/27 142/248/27
f 142/249/27 145/250/27 146/251/27 141/252/27
f 141/253/27 146/254/27 147/255/27 140/256/27
f 140/257/27 147/258/27 148/259/27 139/260/27
