# Blender v2.78 (sub 0) OBJ File: 'cf_terrains.blend'
# www.blender.org
mtllib cf_ta_field.mtl
o field_Cube.000
v 4.601846 -0.000001 9.730200
v 4.923447 0.399999 10.072051
v 4.601846 0.000001 -9.730200
v 4.923447 0.400001 -10.072051
v -4.601846 -0.000001 9.730200
v -4.923447 0.399999 10.072051
v -4.601846 0.000001 -9.730200
v -4.923447 0.400001 -10.072051
v 4.923447 0.000001 -10.072051
v 4.923447 -0.000001 10.072051
v -4.923447 0.000001 -10.072051
v -4.923447 -0.000001 10.072051
v 4.601846 0.000001 -9.730200
v 4.601846 -0.000001 9.730200
v -4.601846 0.000001 -9.730200
v -4.601846 -0.000001 9.730200
v 4.601846 0.200001 -9.730200
v 4.601846 0.199999 9.730200
v -4.601846 0.200001 -9.730200
v -4.601846 0.199999 9.730200
v -3.354898 0.399890 8.498059
v -3.354900 2.973896 -8.288693
v -3.377494 0.399891 -8.332671
v -3.377493 2.973895 8.454081
v -3.377494 0.399889 8.454081
v -3.377494 0.399890 5.096730
v -3.377494 0.399890 1.739380
v -3.377494 0.399890 -1.617971
v -3.377494 0.399891 -4.975321
v -3.354900 2.973896 -4.931343
v -3.354900 2.973896 -1.573992
v -3.354900 2.973895 1.783358
v -3.354900 2.973895 5.140709
v -3.354900 2.973895 8.498059
v -1.426288 2.973894 10.116030
v -1.426288 2.973896 -10.028073
v -1.448882 0.399891 -10.072051
v -1.448882 0.399889 10.072051
v -1.448882 0.399890 6.714700
v -1.448882 0.399890 3.357350
v -1.448882 0.399890 -0.000000
v -1.448882 0.399890 -3.357351
v -1.448882 0.399891 -6.714701
v -1.426288 2.973896 -6.670722
v -1.426288 2.973896 -3.313372
v -1.426288 2.973895 0.043978
v -1.426288 2.973895 3.401329
v -1.426288 2.973895 6.758679
v 0.338502 2.973896 -8.288693
v 0.315908 0.399891 -8.332671
v 0.315908 0.399889 8.454081
v 0.315908 0.399890 5.096730
v 0.315908 0.399890 1.739380
v 0.315908 0.399890 -1.617971
v 0.315908 0.399891 -4.975321
v 0.338502 2.973896 -4.931343
v 0.338502 2.973896 -1.573992
v 0.338502 2.973895 1.783358
v 0.338502 2.973895 5.140709
v 0.338502 2.973895 8.498059
v 1.739951 2.973894 10.116030
v 1.739951 2.973896 -10.028073
v 1.717357 0.399891 -10.072051
v 1.717357 0.399889 10.072051
v 1.717357 0.399890 6.714700
v 1.717357 0.399890 3.357350
v 1.717357 0.399890 -0.000000
v 1.717357 0.399890 -3.357351
v 1.717357 0.399891 -6.714701
v 1.739951 2.973896 -6.670722
v 1.739951 2.973896 -3.313372
v 1.739951 2.973895 0.043978
v 1.739951 2.973895 3.401329
v 1.739951 2.973895 6.758679
v 3.427384 2.973896 -8.288693
v 3.404791 0.399891 -8.332671
v 3.404791 0.399889 8.454081
v 3.404791 0.399890 5.096730
v 3.404791 0.399890 1.739380
v 3.404791 0.399890 -1.617971
v 3.404791 0.399891 -4.975321
v 3.427384 2.973896 -4.931343
v 3.427384 2.973896 -1.573992
v 3.427384 2.973895 1.783358
v 3.427384 2.973895 5.140709
v 3.427384 2.973895 8.498059
v -3.354900 0.399891 -8.288692
v -3.354900 0.399891 -4.931342
v -3.354900 0.399890 -1.573992
v -3.354899 0.399890 1.783358
v -3.354899 0.399890 5.140709
v -3.377493 2.973895 5.096731
v -3.377493 2.973895 1.739380
v -3.377494 2.973896 -1.617970
v -3.377494 2.973896 -4.975320
v -3.377494 2.973896 -8.332671
v -1.448883 2.973896 -10.072051
v -1.448881 2.973894 10.072050
v -1.426287 0.399889 10.116030
v -1.426289 0.399891 -10.028073
v -1.426289 0.399891 -6.670723
v -1.426288 0.399891 -3.313372
v -1.426288 0.399890 0.043978
v -1.426288 0.399890 3.401328
v -1.426288 0.399890 6.758678
v -1.448881 2.973895 6.714701
v -1.448882 2.973895 3.357350
v -1.448882 2.973895 -0.000000
v -1.448882 2.973896 -3.357351
v -1.448883 2.973896 -6.714701
v 0.315909 2.973895 8.454081
v 0.338502 0.399890 8.498059
v 0.338501 0.399891 -8.288692
v 0.338501 0.399891 -4.931342
v 0.338502 0.399890 -1.573992
v 0.338502 0.399890 1.783358
v 0.338502 0.399890 5.140709
v 0.315908 2.973895 5.096731
v 0.315908 2.973895 1.739380
v 0.315908 2.973896 -1.617970
v 0.315908 2.973896 -4.975320
v 0.315907 2.973896 -8.332671
v 1.717357 2.973896 -10.072051
v 1.717358 2.973894 10.072050
v 1.739952 0.399889 10.116030
v 1.739950 0.399891 -10.028073
v 1.739951 0.399891 -6.670723
v 1.739951 0.399891 -3.313372
v 1.739951 0.399890 0.043978
v 1.739952 0.399890 3.401328
v 1.739952 0.399890 6.758678
v 1.717358 2.973895 6.714701
v 1.717358 2.973895 3.357350
v 1.717358 2.973895 -0.000000
v 1.717357 2.973896 -3.357351
v 1.717357 2.973896 -6.714701
v 3.404791 2.973895 8.454081
v 3.427385 0.399890 8.498059
v 3.427384 0.399891 -8.288692
v 3.427384 0.399891 -4.931342
v 3.427384 0.399890 -1.573992
v 3.427384 0.399890 1.783358
v 3.427385 0.399890 5.140709
v 3.404791 2.973895 5.096731
v 3.404790 2.973895 1.739380
v 3.404790 2.973896 -1.617970
v 3.404790 2.973896 -4.975320
v 3.404790 2.973896 -8.332671
vt 0.2048 0.2219
vt 0.2048 0.1888
vt 0.2213 0.1888
vt 0.2213 0.2219
vt 0.4714 0.0068
vt 0.4714 0.0208
vt 0.2885 0.0208
vt 0.2885 0.0068
vt 0.1882 0.2219
vt 0.1882 0.1888
vt 0.2047 0.1888
vt 0.2047 0.2219
vt 0.2885 0.2320
vt 0.2885 0.2179
vt 0.4714 0.2179
vt 0.4714 0.2320
vt 0.4185 0.2066
vt 0.3241 0.2066
vt 0.3241 0.0464
vt 0.4185 0.0464
vt 0.1197 0.1932
vt 0.1067 0.1932
vt 0.1065 0.1927
vt 0.1199 0.1927
vt 0.1197 0.2057
vt 0.1199 0.2062
vt 0.1067 0.2057
vt 0.1065 0.2062
vt 0.1065 0.1927
vt 0.1063 0.2326
vt 0.0876 0.2128
vt 0.0870 0.2123
vt 0.0865 0.2128
vt 0.0870 0.2133
vt 0.0678 0.2327
vt 0.0678 0.1931
vt 0.9986 0.0007
vt 0.9986 0.2494
vt 0.7501 0.2494
vt 0.7501 0.0007
vt 0.9986 0.0007
vt 0.9986 0.2494
vt 0.7501 0.2494
vt 0.7501 0.0007
vt 0.9983 0.0007
vt 0.9983 0.2499
vt 0.7501 0.2499
vt 0.7501 0.0007
vt 0.9987 0.0007
vt 0.9986 0.2477
vt 0.7504 0.2477
vt 0.7504 0.0007
vt 0.9981 0.0007
vt 0.9981 0.2485
vt 0.7498 0.2485
vt 0.7498 0.0007
vt 0.9984 0.0007
vt 0.9984 0.2485
vt 0.7492 0.2485
vt 0.7493 0.0007
vt 0.9984 0.0007
vt 0.9983 0.2478
vt 0.7492 0.2478
vt 0.7493 0.0007
vt 0.9986 0.0007
vt 0.9986 0.2494
vt 0.7501 0.2494
vt 0.7501 0.0007
vt 0.9983 0.0007
vt 0.9983 0.2499
vt 0.7501 0.2499
vt 0.7501 0.0007
vt 0.9987 0.0007
vt 0.9986 0.2477
vt 0.7504 0.2477
vt 0.7504 0.0007
vt 0.9981 0.0007
vt 0.9981 0.2485
vt 0.7498 0.2485
vt 0.7498 0.0007
vt 0.9984 0.0007
vt 0.9984 0.2485
vt 0.7492 0.2485
vt 0.7493 0.0007
vt 0.9986 0.0007
vt 0.9986 0.2494
vt 0.7501 0.2494
vt 0.7501 0.0007
vt 0.9983 0.0007
vt 0.9983 0.2499
vt 0.7501 0.2499
vt 0.7501 0.0007
vt 0.9987 0.0007
vt 0.9986 0.2477
vt 0.7504 0.2477
vt 0.7504 0.0007
vt 0.9981 0.0007
vt 0.9981 0.2485
vt 0.7498 0.2485
vt 0.7498 0.0007
vt 0.9984 0.0007
vt 0.9984 0.2485
vt 0.7492 0.2485
vt 0.7493 0.0007
vt 0.9984 0.0007
vt 0.9983 0.2478
vt 0.7492 0.2478
vt 0.7493 0.0007
vt 0.9986 0.0007
vt 0.9986 0.2494
vt 0.7501 0.2494
vt 0.7501 0.0007
vt 0.9983 0.0007
vt 0.9983 0.2499
vt 0.7501 0.2499
vt 0.7501 0.0007
vt 0.9987 0.0007
vt 0.9986 0.2477
vt 0.7504 0.2477
vt 0.7504 0.0007
vt 0.9981 0.0007
vt 0.9981 0.2485
vt 0.7498 0.2485
vt 0.7498 0.0007
vt 0.9984 0.0007
vt 0.9984 0.2485
vt 0.7492 0.2485
vt 0.7493 0.0007
vt 0.9986 0.0007
vt 0.9986 0.2494
vt 0.7501 0.2494
vt 0.7501 0.0007
vt 0.9983 0.0007
vt 0.9983 0.2499
vt 0.7501 0.2499
vt 0.7501 0.0007
vt 0.9987 0.0007
vt 0.9986 0.2477
vt 0.7504 0.2477
vt 0.7504 0.0007
vt 0.9981 0.0007
vt 0.9981 0.2485
vt 0.7498 0.2485
vt 0.7498 0.0007
vt 0.9984 0.0007
vt 0.9984 0.2485
vt 0.7492 0.2485
vt 0.7493 0.0007
vt 0.9983 0.0007
vt 0.9983 0.2499
vt 0.7501 0.2499
vt 0.7501 0.0007
vt 0.9987 0.0007
vt 0.9986 0.2477
vt 0.7504 0.2477
vt 0.7504 0.0007
vt 0.9981 0.0007
vt 0.9981 0.2485
vt 0.7498 0.2485
vt 0.7498 0.0007
vt 0.9984 0.0007
vt 0.9984 0.2485
vt 0.7492 0.2485
vt 0.7493 0.0007
vt 0.9984 0.0007
vt 0.9983 0.2478
vt 0.7492 0.2478
vt 0.7493 0.0007
vt 0.9986 0.0007
vt 0.9986 0.2494
vt 0.7501 0.2494
vt 0.7501 0.0007
vt 0.9983 0.0007
vt 0.9983 0.2499
vt 0.7501 0.2499
vt 0.7501 0.0007
vt 0.9987 0.0007
vt 0.9986 0.2477
vt 0.7504 0.2477
vt 0.7504 0.0007
vt 0.9981 0.0007
vt 0.9981 0.2485
vt 0.7498 0.2485
vt 0.7498 0.0007
vt 0.9984 0.0007
vt 0.9984 0.2485
vt 0.7492 0.2485
vt 0.7493 0.0007
vt 0.9986 0.0007
vt 0.9986 0.2494
vt 0.7501 0.2494
vt 0.7501 0.0007
vt 0.9983 0.0007
vt 0.9983 0.2499
vt 0.7501 0.2499
vt 0.7501 0.0007
vt 0.9987 0.0007
vt 0.9986 0.2477
vt 0.7504 0.2477
vt 0.7504 0.0007
vt 0.9981 0.0007
vt 0.9981 0.2485
vt 0.7498 0.2485
vt 0.7498 0.0007
vt 0.9984 0.0007
vt 0.9984 0.2485
vt 0.7492 0.2485
vt 0.7493 0.0007
vt 0.9984 0.0007
vt 0.9983 0.2478
vt 0.7492 0.2478
vt 0.7493 0.0007
vt 0.9986 0.0007
vt 0.9986 0.2494
vt 0.7501 0.2494
vt 0.7501 0.0007
vt 0.9983 0.0007
vt 0.9983 0.2499
vt 0.7501 0.2499
vt 0.7501 0.0007
vt 0.9987 0.0007
vt 0.9986 0.2477
vt 0.7504 0.2477
vt 0.7504 0.0007
vt 0.9981 0.0007
vt 0.9981 0.2485
vt 0.7498 0.2485
vt 0.7498 0.0007
vt 0.9984 0.0007
vt 0.9984 0.2485
vt 0.7492 0.2485
vt 0.7493 0.0007
vt 0.9986 0.0007
vt 0.9986 0.2494
vt 0.7501 0.2494
vt 0.7501 0.0007
vt 0.9983 0.0007
vt 0.9983 0.2499
vt 0.7501 0.2499
vt 0.7501 0.0007
vt 0.9987 0.0007
vt 0.9986 0.2477
vt 0.7504 0.2477
vt 0.7504 0.0007
vt 0.9981 0.0007
vt 0.9981 0.2485
vt 0.7498 0.2485
vt 0.7498 0.0007
vt 0.9984 0.0007
vt 0.9984 0.2485
vt 0.7492 0.2485
vt 0.7493 0.0007
vt 0.0000 0.0000
vt 0.0000 0.0000
vt 0.0000 0.0000
vt 0.0000 0.0000
vt 0.0000 0.0000
vt 0.0000 0.0000
vt 0.0000 0.0000
vt 0.0000 0.0000
vn -0.5773 0.5773 -0.5773
vn -0.5773 -0.5773 -0.5773
vn -0.5773 -0.5773 0.5773
vn -0.5773 0.5773 0.5773
vn 0.5773 -0.5773 0.5773
vn 0.5773 0.5773 0.5773
vn 0.5773 -0.5773 -0.5773
vn 0.5773 0.5773 -0.5773
vn 0.0000 0.8320 0.5547
vn -0.7071 0.0000 0.7071
vn -0.3162 0.0000 0.9487
vn 0.3162 0.0000 0.9487
vn 0.7071 0.0000 0.7071
vn -0.9999 -0.0088 0.0000
vn 0.9999 -0.0088 0.0000
usemtl terrain
s 1
f 10/1/1 2/2/2 4/3/3 9/4/4
f 9/5/4 4/6/3 8/7/5 11/8/6
f 11/9/6 8/10/5 6/11/7 12/12/8
f 12/13/8 6/14/7 2/15/2 10/16/1
f 2/17/2 6/18/7 8/19/5 4/20/3
f 3/21/9 1/22/9 10/23/1 9/24/4
f 7/25/9 3/21/9 9/24/4 11/26/6
f 5/27/9 7/25/9 11/26/6 12/28/8
f 1/22/9 5/27/9 12/28/8 10/23/1
f 15/29/10 16/30/11 20/31/4 19/32/1
f 17/33/8 19/32/1 20/31/4 18/34/6
f 14/35/12 13/36/13 17/33/8 18/34/6
f 16/30/11 14/35/12 18/34/6 20/31/4
f 13/36/13 15/29/10 19/32/1 17/33/8
f 21/37/14 24/38/14 92/39/14 91/40/14
f 23/41/15 22/42/15 30/43/15 29/44/15
f 29/45/15 30/46/15 31/47/15 28/48/15
f 28/49/15 31/50/15 32/51/15 27/52/15
f 27/53/15 32/54/15 33/55/15 26/56/15
f 26/57/15 33/58/15 34/59/15 25/60/15
f 39/61/15 48/62/15 35/63/15 38/64/15
f 37/65/15 36/66/15 44/67/15 43/68/15
f 43/69/15 44/70/15 45/71/15 42/72/15
f 42/73/15 45/74/15 46/75/15 41/76/15
f 41/77/15 46/78/15 47/79/15 40/80/15
f 40/81/15 47/82/15 48/83/15 39/84/15
f 50/85/15 49/86/15 56/87/15 55/88/15
f 55/89/15 56/90/15 57/91/15 54/92/15
f 54/93/15 57/94/15 58/95/15 53/96/15
f 53/97/15 58/98/15 59/99/15 52/100/15
f 52/101/15 59/102/15 60/103/15 51/104/15
f 65/105/15 74/106/15 61/107/15 64/108/15
f 63/109/15 62/110/15 70/111/15 69/112/15
f 69/113/15 70/114/15 71/115/15 68/116/15
f 68/117/15 71/118/15 72/119/15 67/120/15
f 67/121/15 72/122/15 73/123/15 66/124/15
f 66/125/15 73/126/15 74/127/15 65/128/15
f 76/129/15 75/130/15 82/131/15 81/132/15
f 81/133/15 82/134/15 83/135/15 80/136/15
f 80/137/15 83/138/15 84/139/15 79/140/15
f 79/141/15 84/142/15 85/143/15 78/144/15
f 78/145/15 85/146/15 86/147/15 77/148/15
f 91/149/14 92/150/14 93/151/14 90/152/14
f 90/153/14 93/154/14 94/155/14 89/156/14
f 89/157/14 94/158/14 95/159/14 88/160/14
f 88/161/14 95/162/14 96/163/14 87/164/14
f 101/165/14 110/166/14 97/167/14 100/168/14
f 99/169/14 98/170/14 106/171/14 105/172/14
f 105/173/14 106/174/14 107/175/14 104/176/14
f 104/177/14 107/178/14 108/179/14 103/180/14
f 103/181/14 108/182/14 109/183/14 102/184/14
f 102/185/14 109/186/14 110/187/14 101/188/14
f 112/189/14 111/190/14 118/191/14 117/192/14
f 117/193/14 118/194/14 119/195/14 116/196/14
f 116/197/14 119/198/14 120/199/14 115/200/14
f 115/201/14 120/202/14 121/203/14 114/204/14
f 114/205/14 121/206/14 122/207/14 113/208/14
f 127/209/14 136/210/14 123/211/14 126/212/14
f 125/213/14 124/214/14 132/215/14 131/216/14
f 131/217/14 132/218/14 133/219/14 130/220/14
f 130/221/14 133/222/14 134/223/14 129/224/14
f 129/225/14 134/226/14 135/227/14 128/228/14
f 128/229/14 135/230/14 136/231/14 127/232/14
f 138/233/14 137/234/14 144/235/14 143/236/14
f 143/237/14 144/238/14 145/239/14 142/240/14
f 142/241/14 145/242/14 146/243/14 141/244/14
f 141/245/14 146/246/14 147/247/14 140/248/14
f 140/249/14 147/250/14 148/251/14 139/252/14
usemtl terrain_NONE
f 5/253/9 1/254/9 14/255/12 16/256/11
f 3/257/9 7/258/9 15/259/10 13/260/13
f 7/258/9 5/253/9 16/256/11 15/259/10
f 1/254/9 3/257/9 13/260/13 14/255/12
