# Exported from Wings 3D 1.5.3
mtllib Field Tile 1.mtl
o Cube1
#8 vertices, 6 faces
v -1.60207133 -4.3522964e-2 -1.60207133
v -1.60207133 -4.3522964e-2 1.60207133
v -1.60207133 4.3522964e-2 -1.60207133
v -1.60207133 4.3522964e-2 1.60207133
v 1.60207133 -4.3522964e-2 -1.60207133
v 1.60207133 -4.3522964e-2 1.60207133
v 1.60207133 4.3522964e-2 -1.60207133
v 1.60207133 4.3522964e-2 1.60207133
vt 0.0000000e+0 8.3266727e-17
vt 0.0000000e+0 0.50000000
vt 0.0000000e+0 0.50265200
vt 0.0000000e+0 0.50530400
vt 0.0000000e+0 0.50530400
vt 0.0000000e+0 0.50795600
vt 0.0000000e+0 0.50795600
vt 0.0000000e+0 0.51060800
vt 8.3266727e-17 0.50000000
vt 0.50000000 0.0000000e+0
vt 0.50000000 0.50000000
vt 0.50000000 0.50265200
vt 0.50000000 0.50265200
vt 0.50000000 0.50530400
vt 0.50000000 0.50530400
vt 0.50000000 0.50795600
vt 0.50000000 0.50795600
vt 0.50000000 0.51060800
vt 0.50000000 0.0000000e+0
vt 0.50000000 0.50000000
vt 1.00000000 0.0000000e+0
vt 1.00000000 0.50000000
vn -0.57735027 -0.57735027 -0.57735027
vn -0.57735027 -0.57735027 0.57735027
vn -0.57735027 0.57735027 -0.57735027
vn -0.57735027 0.57735027 0.57735027
vn 0.57735027 -0.57735027 -0.57735027
vn 0.57735027 -0.57735027 0.57735027
vn 0.57735027 0.57735027 -0.57735027
vn 0.57735027 0.57735027 0.57735027
g Cube1_Cube1_auv
usemtl Cube1_auv
s 1
f 1/20/1 5/9/5 6/1/6 2/10/2
f 2/16/2 4/18/4 3/8/3 1/6/1
f 2/3/2 6/13/6 8/15/8 4/5/4
f 3/12/3 7/3/7 5/2/5 1/11/1
f 4/19/4 8/21/8 7/22/7 3/20/3
f 5/14/5 7/17/7 8/7/8 6/4/6